<svg id="Layer_1" data-name="Layer 1" xmlns="http://www.w3.org/2000/svg" viewBox="0 0 512 512"><title>calm1</title><path d="M60.32,440c-8.12.21-12.92,1.81-19.19,6.62-8.25,6.3-11,11.42-11,21,0,5.77.74,9.08,2.34,11.75A36.14,36.14,0,0,0,47.4,492.55l4.92,2.35,159,.32c135.74.21,159.74,0,163.31-1.28,11.81-4.27,12.18-20.07.49-24.67-2.71-1.06-54.77-6.19-156.67-15.48C134.53,446.1,63.4,439.91,60.32,440Z" transform="translate(0)" fill="#fff" stroke="#000" stroke-miterlimit="10"/><path d="M181.54,241.1a247.19,247.19,0,0,0,42-17.41l7.14-3.95-16-3.52c-30-6.62-55.63-17.51-74.58-31.61-7.38-5.55-7.63-5.66-19.81-4.05-16.86,2.13-32.49,6.62-51.69,14.94C58.23,200,35.71,212.37,35.71,213.55s23.14,13.88,35.07,19C109.18,249.11,144.13,251.88,181.54,241.1Z" transform="translate(0)" fill="#fff" stroke="#000" stroke-miterlimit="10"/><path d="M363.56,450c13.66,1,22.52,3.84,29,9.29,10.71,9,13.66,22.21,8,34.38-.86,1.81.5,1.92,29,1.6,28.06-.32,30.39-.43,35-2.67a36.14,36.14,0,0,0,14.89-13.13c3.32-5.55,3.2-18.37-.37-24s-9.6-10.57-16.37-13.24c-3.81-1.49-8-2.13-13.54-2.13-7.87.1-91.93,7.79-95,8.65C353.35,449,357.53,449.52,363.56,450Z" transform="translate(0)" fill="#fff" stroke="#000" stroke-miterlimit="10"/><path d="M145.49,166.14c13.16,11,35.19,22.53,54.88,28.62,11,3.41,28.31,7.26,30.52,6.83,1.11-.21.25-2.14-2.7-6.19-16.25-22-27.82-50-30.65-74-.86-6.94-1.1-7.47-6.27-11.21-16.37-11.85-41.85-22.42-67.44-28-7.51-1.61-16.13-3.21-19-3.63l-5.41-.75.86,4.59C106.35,115.64,124,148.31,145.49,166.14Z" transform="translate(0)" fill="#fff" stroke="#000" stroke-miterlimit="10"/><path d="M256,199.67c1.48,0,16-20.08,21.91-30.43,15.26-26.7,20.42-51.68,15.5-76.45-3.94-20.08-13.66-40.36-28.67-59.9-4.43-5.77-8.37-10.47-8.74-10.47-1.48,0-16,20.08-22,30.54C223,72,216.62,93.32,216.62,111.05c0,17.29,6.28,38.86,16.86,57.55C239,178.42,254.4,199.67,256,199.67Z" transform="translate(0)" fill="#fff" stroke="#000" stroke-miterlimit="10"/><path d="M256.62,225.72c-.62-.21-6,2.56-12.07,6.3l-10.7,6.62,11.07.32c6,.11,16.13.11,22.16,0l11.07-.32-10.09-6.3C262.4,228.92,257.35,225.93,256.62,225.72Z" transform="translate(0)" fill="#fff" stroke="#000" stroke-miterlimit="10"/><path d="M281.11,201.59c2.21.43,19.56-3.42,30.52-6.83,21.29-6.62,45.28-19.54,57.71-31.07,21.05-19.54,36.56-49.23,42.34-81.26.49-2.46.37-4.48-.25-4.38-5.66.54-21.66,3.53-30.52,5.77-21.66,5.44-43.69,15-58.21,25.09l-7,4.8-2,12.28c-2.22,13.56-4.56,22-9.35,33.42-3.7,9-14.28,27.55-20.56,36C280.86,199.45,280,201.38,281.11,201.59Z" transform="translate(0)" fill="#fff" stroke="#000" stroke-miterlimit="10"/><path d="M397.65,348.3c-1.6-1.18-6.52-11.43-13.66-28.4-6.15-14.63-12.92-29.47-15.14-33.1-8.12-13.46-26.21-25.2-44.06-28.94-11.19-2.24-127.25-2.24-138.2.11-17.35,3.63-35.44,15.69-43.44,28.83-2.22,3.63-9,18.47-15.14,33.1-7.14,17-12.06,27.22-13.66,28.4-2.34,1.71-6.52,1.92-48,1.92-25,0-45.41.21-45.41.53a42,42,0,0,0,2.71,5.66c3.57,6.41,11,12.92,18.83,16.23l6.15,2.67,46.28.32,46.27.32,18.7-36.62c10.34-20.18,19.82-37.48,21.3-38.55a10.26,10.26,0,0,1,12.67.86l3.08,2.56V413.54l-10.59,9.39c-9.84,8.65-10.46,9.4-7.75,9.93,1.6.32,19.81,2,40.37,3.95l37.41,3.31,38.27-3.41c21.05-1.82,39-3.63,40-3.85s-2-3.73-8.86-9.93l-10.71-9.39V304.2l3.08-2.56a10.26,10.26,0,0,1,12.67-.86c1.48,1.07,11,18.37,21.3,38.55L370.82,376l46.27-.32,46.28-.32,6.15-2.67c7.88-3.31,15.26-9.82,18.83-16.23a42,42,0,0,0,2.71-5.66c0-.32-20.43-.53-45.41-.53C404.17,350.22,400,350,397.65,348.3Zm-131.8,1.92v8.54h-19.7V341.68h19.7Zm0-34.17v8.54h-19.7V307.51h19.7Zm0-34.17v8.55h-19.7V273.34h19.7Z" transform="translate(0)" fill="#fff" stroke="#000" stroke-miterlimit="10"/><path d="M375.62,181.84c-4.43,4-20.8,14-31,18.68a229.79,229.79,0,0,1-47.26,15.7l-15.88,3.52,7.27,4.06a240,240,0,0,0,41.72,17.3c37.28,10.67,72.36,8,110.39-8.33,12.3-5.34,35.44-17.94,35.44-19.22,0-.32-5.17-3.63-11.45-7.26-20.06-11.53-47.13-21.57-66.08-24.67-3.69-.64-9.85-1.38-13.54-1.7C379.07,179.27,378.21,179.49,375.62,181.84Z" transform="translate(0)" fill="#fff" stroke="#000" stroke-miterlimit="10"/><path d="M506,333.14h-95.5L402,312.53c-10.83-25.95-14.16-32.46-21-40.9l-5.66-6.83h3.94c9.48,0,31.26-3.63,44.67-7.58a227.74,227.74,0,0,0,66.83-31.61c15.38-10.35,15.38-13.77,0-24.13-26.83-18.15-59.2-31.82-86-36.19-4.67-.75-8.36-1.71-8.36-2.14s2.46-4.06,5.41-8c15.26-20.5,26.58-49,30.4-75.81,2.46-17.83-.37-20.5-19.32-18.47C379.56,64.49,347.07,74.21,322.46,88c-5.54,3.21-8.86,4.49-9.11,3.63s-1.35-5.23-2.59-9.93c-6.27-25-25.84-57.87-45.9-77.09C261.05,1,259.32,0,256,0S251,1,247.14,4.59c-20.06,19.22-39.63,52.11-45.9,77.09-1.24,4.7-2.34,9.19-2.59,9.93s-3.57-.42-9.11-3.63c-24.61-13.77-57.1-23.49-90.33-27.12-19.07-2-21.66.32-19.32,17.83,3.57,27.23,15.88,57.66,31.26,77.52,3.45,4.38,5,7.37,4.18,7.58S109.43,165,104,166c-27.32,5.24-56.48,17.73-82.7,35.45-15.38,10.36-15.38,13.78,0,24.13a230.85,230.85,0,0,0,67.07,31.72c13.29,3.84,35,7.47,44.43,7.47h3.94l-5.66,6.83c-6.89,8.44-10.22,14.95-21,40.9l-8.49,20.61H6.05L3.1,335.81C-.59,338.9-1,344.45,1.87,354c5.54,18.36,22,32.56,43.32,37.37,10.09,2.24,104.36,2.35,108.05.11,1.35-.86,7.14-10.68,12.92-22l10.46-20.61.37,28.72.25,28.73-13.91,12.06-13.91,12.07-41.72-4c-50.21-4.59-55.87-4.49-68.79,1.07-19.07,8.11-30.27,24.87-28.67,42.81C11.47,484.22,19,496.07,31.65,504c14.15,8.75-6,8,225,8H462.14l6.77-2.45c19.32-6.84,31.25-21.14,32.85-39.29,2.1-23.5-19.07-45.17-46-47.09-5.54-.32-22.52.75-50.71,3.31l-42.45,4-13.91-12.07-13.91-12.06.25-28.73.37-28.72,10.46,20.61c5.78,11.32,11.57,21.14,12.92,22,3.69,2.24,98,2.13,108.05-.11,21.29-4.81,37.78-19,43.32-37.37,2.83-9.51,2.46-15.06-1.23-18.15ZM398.76,181.62c18.95,3.1,46,13.14,66.08,24.67,6.28,3.63,11.45,6.94,11.45,7.26,0,1.28-23.14,13.88-35.44,19.22-38,16.34-73.11,19-110.39,8.33a240,240,0,0,1-41.72-17.3l-7.27-4.06,15.88-3.52a229.79,229.79,0,0,0,47.26-15.7c10.21-4.7,26.58-14.63,31-18.68,2.59-2.35,3.45-2.57,9.6-1.92C388.91,180.24,395.07,181,398.76,181.62Zm-85-55.63,2-12.28,7-4.8c14.52-10.14,36.55-19.65,58.21-25.09,8.86-2.24,24.86-5.23,30.52-5.77.62-.1.74,1.92.25,4.38-5.78,32-21.29,61.72-42.34,81.26-12.43,11.53-36.42,24.45-57.71,31.07-11,3.41-28.31,7.26-30.52,6.83-1.11-.21-.25-2.14,2.7-6.19,6.28-8.44,16.86-27,20.56-36C309.16,148,311.5,139.55,313.72,126ZM234,53c6-10.46,20.55-30.54,22-30.54.37,0,4.31,4.7,8.74,10.47,15,19.54,24.73,39.82,28.67,59.9,4.92,24.77-.24,49.75-15.5,76.45C272,179.59,257.48,199.67,256,199.67s-17-21.25-22.52-31.07c-10.58-18.69-16.86-40.26-16.86-57.55C216.62,93.32,223,72,234,53Zm44.18,185.68-11.07.32c-6,.11-16.13.11-22.16,0l-11.07-.32,10.7-6.62c6-3.74,11.45-6.51,12.07-6.3s5.78,3.2,11.44,6.62ZM100.32,82.43l-.86-4.59,5.41.75c2.83.42,11.45,2,19,3.63,25.59,5.55,51.07,16.12,67.44,28,5.17,3.74,5.41,4.27,6.27,11.21,2.83,24,14.4,52,30.65,74,2.95,4,3.81,6,2.7,6.19-2.21.43-19.56-3.42-30.52-6.83-19.69-6.09-41.72-17.62-54.88-28.62C124,148.31,106.35,115.64,100.32,82.43ZM70.78,232.56c-11.93-5.13-35.07-17.73-35.07-19S58.23,200,68.57,195.5c19.2-8.32,34.83-12.81,51.69-14.94,12.18-1.61,12.43-1.5,19.81,4.05,19,14.1,44.55,25,74.58,31.61l16,3.52-7.14,3.95a247.19,247.19,0,0,1-42,17.41C144.13,251.88,109.18,249.11,70.78,232.56ZM354.21,448.67c3.07-.86,87.13-8.55,95-8.65,5.54,0,9.73.64,13.54,2.13,6.77,2.67,12.92,7.58,16.37,13.24s3.69,18.48.37,24a36.14,36.14,0,0,1-14.89,13.13c-4.56,2.24-6.89,2.35-35,2.67-28.55.32-29.91.21-29-1.6,5.66-12.17,2.71-25.41-8-34.38-6.52-5.45-15.38-8.33-29-9.29C357.53,449.52,353.35,449,354.21,448.67Zm20.92,20.6c11.69,4.6,11.32,20.4-.49,24.67-3.57,1.28-27.57,1.49-163.31,1.28l-159-.32-4.92-2.35a36.14,36.14,0,0,1-14.89-13.13c-1.6-2.67-2.34-6-2.34-11.75,0-9.61,2.71-14.73,11-21,6.27-4.81,11.07-6.41,19.19-6.62,3.08-.11,74.21,6.08,158.14,13.77C320.36,463.08,372.42,468.21,375.13,469.27ZM488.35,356.41c-3.57,6.41-11,12.92-18.83,16.23l-6.15,2.67-46.28.32-46.27.32-18.7-36.62c-10.34-20.18-19.82-37.48-21.3-38.55a10.26,10.26,0,0,0-12.67.86l-3.08,2.56V413.54l10.71,9.39c6.89,6.2,10,9.61,8.86,9.93s-18.95,2-40,3.85l-38.27,3.41L219,436.81c-20.56-1.92-38.77-3.63-40.37-3.95-2.71-.53-2.09-1.28,7.75-9.93l10.59-9.39V304.2l-3.08-2.56a10.26,10.26,0,0,0-12.67-.86c-1.48,1.07-11,18.37-21.3,38.55L141.18,376l-46.27-.32-46.28-.32-6.15-2.67c-7.88-3.31-15.26-9.82-18.83-16.23a42,42,0,0,1-2.71-5.66c0-.32,20.43-.53,45.41-.53,41.48,0,45.66-.21,48-1.92,1.6-1.18,6.52-11.43,13.66-28.4,6.15-14.63,12.92-29.47,15.14-33.1,8-13.14,26.09-25.2,43.44-28.83,10.95-2.35,127-2.35,138.2-.11,17.85,3.74,35.94,15.48,44.06,28.94,2.22,3.63,9,18.47,15.14,33.1,7.14,17,12.06,27.22,13.66,28.4,2.34,1.71,6.52,1.92,48,1.92,25,0,45.41.21,45.41.53A42,42,0,0,1,488.35,356.41Z" transform="translate(0)" fill="#677882"/><polygon points="246.16 273.34 246.16 281.88 246.16 290.43 256 290.43 265.85 290.43 265.85 281.88 265.85 273.34 256 273.34 246.16 273.34" fill="#677882"/><polygon points="246.16 307.51 246.16 316.05 246.16 324.6 256 324.6 265.85 324.6 265.85 316.05 265.85 307.51 256 307.51 246.16 307.51" fill="#677882"/><polygon points="246.16 341.68 246.16 350.22 246.16 358.76 256 358.76 265.85 358.76 265.85 350.22 265.85 341.68 256 341.68 246.16 341.68" fill="#677882"/></svg>