<svg id="Layer_1" data-name="Layer 1" xmlns="http://www.w3.org/2000/svg" viewBox="0 0 512 512"><title>crt</title><rect x="334.47" y="145.49" width="158.23" height="76.02" fill="#fff"/><path d="M273.11,48.81l14.92-.3-7.59-13.9c-4.11-7.6-7.72-14-8.1-14.21s-3.86,5.91-8,13.61-7.2,14.3-6.82,14.5S264.88,48.91,273.11,48.81Z" fill="#fff"/><path d="M209.69,210.05H204.8c-7.72,0-19.3,2.7-31.13,7.2-18.4,7-34.86,21.81-41.17,37.11-.77,2-2.57,4.2-4,4.8-4.24,1.7-10.29.7-13.25-2.4l-2.57-2.8,3.09-7c4.24-9.8,10.68-17.9,21.1-26.61a110.9,110.9,0,0,1,63.42-25l9.39-.6V125H197.08c-7,0-13.12.3-13.51.7s-.9,8.8-.9,18.81c0,17-.13,18.5-3,22.5-3.08,4.6-6.94,6.6-23.67,12s-21.87,4-43.48-12.9c-8.49-6.7-16-12.1-16.72-12.1s-10,6.7-20.58,15L56,184,72.3,196.75c8.87,7.1,17.11,14.2,18.26,16,3.35,5.1,2.58,10.9-2.83,20.81-5.53,10.4-7.07,12.2-12.86,15.6-4.12,2.3-5.4,2.4-29.59,2.9l-25.34.5-.39,21.21-.25,21.3,2.83.5c1.67.2,13.38.6,26.24.7l23.28.3,4.76,2.8c2.58,1.6,5.66,4.3,6.56,6,10,17.61,11.71,23.71,8.24,29-.77,1.2-8.88,8.1-18,15.3s-16.6,13.51-16.6,14,8.62,7.7,19.3,15.9L95.2,394.5l16.33-12.61c9.14-6.9,18.27-13.3,20.59-14.2,6.81-2.7,14.53-2,28.3,2.4,21.35,7,22.25,8.2,22.25,32.81,0,12.5.52,18.2,1.55,19s5.91,1.2,13.5,1.2h12V353.39l-10.81-1.2c-34.35-3.71-62.26-18.91-78-42.11-5.53-8.31-10.54-21.11-9.39-23.81,1.55-3.5,4.63-5.2,9.39-5.2,6.31,0,7.85,1.7,12,12,9.39,23.81,37.05,41.51,69.47,44.51l7.33.6v-22.6l-7.85-1.2c-17.24-2.5-31.65-11.21-38.85-23.21-5.14-8.4-6.3-20.9-2.83-29.21,5.92-14.2,22.64-26.4,39.24-28.4,11.32-1.5,10.29-.3,10.29-12.51Z" fill="#fff"/><path d="M229,434.11V449c0,22.3,2.58,29.91,13.26,38.21,8.36,6.6,17.36,9.4,29.84,9.4,9.13,0,11.45-.4,18.91-3.3,9.78-3.7,15.44-8.2,20.2-16.2,3.09-5.21,3.34-6.51,3.73-24.31l.51-18.7H229Z" fill="#fff"/><path d="M111.28,81.42c9.64-4.9,9.39-17.2-.65-21.81-10.67-4.9-24.44,1.2-24.44,10.91,0,7.5,6.43,12.7,16.08,12.7A23.39,23.39,0,0,0,111.28,81.42Z" fill="#fff"/><path d="M373.45,53.81a40.21,40.21,0,0,1,9.13,7.1l3.61,4L394,58.61c4.38-3.5,9.14-6.9,10.55-7.5l2.58-1.1-2.58-1.1c-1.41-.6-6.17-4-10.55-7.5l-7.84-6.3-3.61,4a40.21,40.21,0,0,1-9.13,7.1c-3.09,1.7-5.53,3.4-5.53,3.8S370.36,52.11,373.45,53.81Z" fill="#fff"/><path d="M208.79,247.16c-8.36.9-18.27,4.8-22.9,9.1-6.3,5.8-8.75,11.3-8.11,18.71s3.22,12.3,9.14,17.1c4.5,3.6,15.31,8,19.94,8h2.83v-26.5C209.69,259,209.3,247.06,208.79,247.16Z" fill="#fff"/><path d="M102,114.33l6.56-2.7c3.61-1.5,14.67-6.4,24.58-10.91l18-8.2V48.71l-23.8-10.8C114.24,32,103,27.11,102.27,27.21S90.44,32,77.57,37.81L54,48.41V92.82l24.06,10.81ZM69.21,81.22c-3.6-6.3-2.83-16.9,1.67-23.71,3.48-5.3,12.74-11.5,19.68-13.3,6-1.5,17.63-1.4,24.06.3a35.31,35.31,0,0,1,18.78,12.2c4.76,6.41,5.66,17.91,1.93,24.51-6,10.6-18.52,17-33.06,17S75.26,91.82,69.21,81.22Z" fill="#fff"/><polygon points="228.99 389.09 228.99 404.1 228.99 419.1 272.08 419.1 315.18 419.1 315.18 404.1 315.18 389.09 272.08 389.09 228.99 389.09" fill="#fff"/><path d="M388.5,304.07v48c0,45.21.13,48.31,2.45,51.81,3,4.6,5.91,6.7,12.09,8.7a30.8,30.8,0,0,0,18.52,0c6.18-2,9.14-4.1,12.1-8.7,2.31-3.5,2.44-6.6,2.44-51.81v-48H388.5Zm33.45,81c0,10.41-.13,11.21-3.22,13.51a9.52,9.52,0,0,1-12.86,0c-3.09-2.3-3.22-3.1-3.22-13.51s.13-11.2,3.22-13.5a9.52,9.52,0,0,1,12.86,0C421.82,373.89,422,374.69,422,385.09Z" fill="#fff"/><path d="M334.47,237.06v17.3c0,19.11-.13,18.61,9.52,26.51s11.71,8.2,68.18,8.2c57.76,0,57.51,0,69.21-9,9.65-7.5,11.32-11.9,11.32-29.71v-13.3H334.47Z" fill="#fff"/><path d="M303.21,76.82,296.52,64H248.15l-1.93,3.7c-1.15,2.1-4.63,8.5-7.72,14.1s-5.66,10.6-5.66,10.8,17.76.4,39.37.4c36.92,0,39.36-.1,38.59-1.8C310.29,90.32,306.94,83.82,303.21,76.82Z" fill="#fff"/><path d="M495.28,196.05c-2.32,1.8-2.58,3.3-2.58,14v12H334.47V146h30.75l.38,23.4c.39,21.41.65,23.61,2.83,25.51,2.83,2.5,9.4,2.8,13.13.7,2.31-1.3,2.44-3.1,3.08-25.31l.65-23.8,8.74-.3,8.62-.3v23.4c0,23.11,0,23.41,3,25.51,4.25,3.1,10.29,2.9,13.64-.4,2.57-2.5,2.7-3.9,2.7-25.61v-22.9l8.75.3,8.62.3.64,23.8c.64,22.21.77,24,3.09,25.31,3.73,2.1,10.29,1.8,13.12-.7,2.19-1.9,2.44-4.1,2.83-25.51l.38-23.4H492.7v11.3c0,10,.26,11.6,2.58,13.5,3.6,3,10.55,3,14.15-.1,2.57-2.1,2.7-3.1,2.31-16.4-.38-12.51-.64-14.51-3.08-17-6.18-6.5-3-6.3-92.76-6.3H334.47v-16.3c0-8.9-.64-17.91-1.41-20-1.29-3.6-44.64-84.52-47.47-88.82C283.53,3,276.58,0,272,0a21.62,21.62,0,0,0-8.23,2.2C259.86,4.3,257,9,235,49.51c-22.77,42.21-24.31,45.51-25,52.71L209.3,110H194.64c-15.95,0-19,.7-25.22,5.7-5.27,4.3-6,8-6,27.1v17.31l-8.11,2.8c-14.66,5.1-12.22,5.8-30.36-8.2C107.55,141.33,103.17,139,95.71,139c-8.62,0-14.66,3.4-35.5,19.81-22.65,17.8-24.58,20.5-21.75,29.21,1.29,3.8,4.12,6.5,18.14,17.5,9.27,7.2,16.73,13.7,16.73,14.5,0,1.5-6,13.31-8.11,15.71-.77,1-7.07,1.3-24.18,1.3-25.22,0-28.82.6-34.87,5.6C.51,247.46,0,249.76,0,273.87c0,19.9.39,23.2,2.44,26.7,5.28,9,10.68,10.41,40.14,10.51H65.35l4,7.8c2.19,4.2,4,8.1,4,8.7s-7.46,6.8-16.6,14c-16.59,13-19.42,16.41-19.42,23,.13,5,5.66,10.7,25.85,26.2C86.83,408.9,89.66,410.2,101.24,408c5.28-1.1,8.36-3,23-14.1,9.26-7,17.49-12.81,18.27-12.81a91.49,91.49,0,0,1,10.8,2.9l9.39,3,.65,19.31c.51,15.3,1,19.9,2.7,22.3,5.27,7.31,12.09,9.51,30.1,9.51h13.51v12.7c0,17.7,1.67,25.31,7.2,34.21,8.36,13.1,24.57,23.1,42.71,26,33.58,5.41,67.28-12.2,73.46-38.31.9-3.9,1.41-27,1.41-65.11,0-58.42,0-59.32-2.7-61.92-3.34-3.3-10.16-3.6-14-.6-2.32,1.8-2.57,3.3-2.57,15.51v13.5H281.73V108h33.45v105c0,103.73,0,105,2.57,107,3.86,3,10.68,2.7,14-.6,2.32-2.3,2.7-4.1,2.7-13.41v-10.6l9.65,3.7a66.4,66.4,0,0,0,17.37,4.5l7.72.7v48.82c0,46.81.12,49.11,2.7,54.31,3.34,7.2,12,14.4,21.35,18.1,6.56,2.7,8.75,3,19,3,10,0,12.48-.4,18.91-2.8,9.14-3.5,18-11,21.49-18.3,2.57-5.2,2.7-7.5,2.7-54.31V304.37l7.46-.7c15.95-1.4,33.7-10.9,41.81-22.4,6.69-9.6,7.33-13.71,7.33-49.71,0-32-.13-33.21-2.57-35.31C506,193.35,498.75,193.35,495.28,196.05Zm-285.59,104h-2.83c-4.63,0-15.44-4.4-19.94-8-5.92-4.8-8.49-9.6-9.14-17.1s1.81-12.91,8.11-18.71c4.63-4.3,14.54-8.2,22.9-9.1.51-.1.9,11.8.9,26.41ZM199.4,233.56c-16.6,2-33.32,14.2-39.24,28.4-3.47,8.31-2.31,20.81,2.83,29.21,7.2,12,21.61,20.71,38.85,23.21l7.85,1.2v22.6l-7.33-.6c-32.42-3-60.08-20.7-69.47-44.51-4.12-10.3-5.66-12-12-12-4.76,0-7.84,1.7-9.39,5.2-1.15,2.7,3.86,15.5,9.39,23.81,15.7,23.2,43.61,38.4,78,42.11l10.81,1.2V423.1h-12c-7.59,0-12.47-.4-13.5-1.2s-1.55-6.5-1.55-19c0-24.61-.9-25.81-22.25-32.81-13.77-4.4-21.49-5.1-28.3-2.4-2.32.9-11.45,7.3-20.59,14.2L95.2,394.5,75.9,379.59c-10.68-8.2-19.3-15.4-19.3-15.9s7.46-6.8,16.6-14,17.24-14.1,18-15.3c3.47-5.3,1.8-11.4-8.24-29-.9-1.7-4-4.4-6.56-6l-4.76-2.8-23.28-.3c-12.86-.1-24.57-.5-26.24-.7l-2.83-.5.25-21.3.39-21.21,25.34-.5c24.19-.5,25.47-.6,29.59-2.9,5.79-3.4,7.33-5.2,12.86-15.6,5.41-9.91,6.18-15.71,2.83-20.81-1.15-1.8-9.39-8.9-18.26-16L56,184l19.3-15c10.55-8.3,19.81-15,20.58-15s8.23,5.4,16.72,12.1C134.17,183,139.19,184.54,156,179s20.59-7.4,23.67-12c2.83-4,3-5.5,3-22.5,0-10,.39-18.51.9-18.81s6.56-.7,13.51-.7h12.61v69.72l-9.39.6a110.9,110.9,0,0,0-63.42,25c-10.42,8.71-16.86,16.81-21.1,26.61l-3.09,7,2.57,2.8c3,3.1,9,4.1,13.25,2.4,1.42-.6,3.22-2.8,4-4.8,6.31-15.3,22.77-30.11,41.17-37.11,11.83-4.5,23.41-7.2,31.13-7.2h4.89v11C209.69,233.26,210.72,232.06,199.4,233.56ZM264.36,34c4.12-7.7,7.72-13.81,8-13.61s4,6.61,8.1,14.21L288,48.51l-14.92.3c-8.23.1-15.18,0-15.57-.3S260.25,41.71,264.36,34Zm51.07,400.1-.51,18.7c-.39,17.8-.64,19.1-3.73,24.31-4.76,8-10.42,12.5-20.2,16.2-7.46,2.9-9.78,3.3-18.91,3.3-12.48,0-21.48-2.8-29.84-9.4C231.56,478.92,229,471.31,229,449v-14.9h86.45Zm-.25-45v30H229v-30h86.2ZM229,108h33.45V374.19l-16.34-.3-16.46-.3-.39-132.83Zm43.23-15c-21.61,0-39.37-.2-39.37-.4s2.58-5.1,5.66-10.8,6.57-12,7.72-14.1l1.93-3.7h48.37l6.69,12.8c3.73,7,7.08,13.5,7.59,14.4C311.57,92.92,309.13,93,272.21,93ZM436.1,352.09c0,45.21-.13,48.31-2.44,51.81-3,4.6-5.92,6.7-12.1,8.7a30.8,30.8,0,0,1-18.52,0c-6.18-2-9.13-4.1-12.09-8.7-2.32-3.5-2.45-6.6-2.45-51.81v-48h47.6Zm56.6-101.73c0,17.81-1.67,22.21-11.32,29.71-11.7,9-11.45,9-69.21,9-56.47,0-58.4-.2-68.18-8.2s-9.52-7.4-9.52-26.51v-17.3H492.7Z" fill="#677882"/><path d="M405.87,371.59c-3.09,2.3-3.22,3.1-3.22,13.5s.13,11.21,3.22,13.51a9.52,9.52,0,0,0,12.86,0c3.09-2.3,3.22-3.1,3.22-13.51s-.13-11.2-3.22-13.5a9.52,9.52,0,0,0-12.86,0Z" fill="#677882"/><path d="M69.47,117.23c22.9,10.2,28.56,12.3,32.93,12.3s9.52-1.9,29.59-10.9c31.9-14.3,33.45-15.1,36.15-18.31,2.05-2.4,2.31-5.5,2.31-29.3,0-24.71-.13-26.71-2.57-29.91-2.06-2.7-8.49-6.1-30.23-15.9C109.6,12.6,105,11,98.93,12c-1.8.3-16,6.1-31.39,13-20.07,8.9-28.69,13.4-30.36,15.5C35,43.21,34.73,46,34.73,71.22V99l3.61,2.9C40.27,103.53,54.29,110.43,69.47,117.23ZM54,70.62V48.41l23.54-10.6c12.87-5.8,24.06-10.6,24.7-10.6s12,4.8,25.09,10.7l23.8,10.8V92.52l-18,8.2c-9.91,4.51-21,9.41-24.58,10.91l-6.56,2.7-23.92-10.7L54,92.82Z" fill="#677882"/><path d="M135.33,81.22c3.73-6.6,2.83-18.1-1.93-24.51a35.31,35.31,0,0,0-18.78-12.2c-6.43-1.7-18-1.8-24.06-.3-6.94,1.8-16.2,8-19.68,13.3-4.5,6.81-5.27,17.41-1.67,23.71,6.05,10.6,18.52,17,33.06,17S129.29,91.82,135.33,81.22ZM86.19,70.52c0-9.71,13.77-15.81,24.44-10.91,10,4.61,10.29,16.91.65,21.81a23.39,23.39,0,0,1-9,1.8C92.62,83.22,86.19,78,86.19,70.52Z" fill="#677882"/><path d="M351.71,61.41c5,1.81,10.81,4.61,12.86,6.21,3.61,2.8,9.78,11.7,9.78,14.1,0,2.2,7.85,6.3,12.09,6.3,6.18,0,10.55-3.2,15.31-11.3,5-8.4,9.65-11.8,21.74-16,9.52-3.3,13.51-7.4,12-12.5-1.29-4.3-3.48-5.9-12.35-9-12.09-4.2-16.34-7.5-21.87-16.7C396.22,14,393.39,12,385.93,12a16.26,16.26,0,0,0-7.33,2.4,21.57,21.57,0,0,0-6.05,7.71c-3.47,7.5-10,12.6-20.84,16.5-10.42,3.7-13.38,6.2-13.38,11.4S341.29,57.71,351.71,61.41Zm21.74-15.2a40.21,40.21,0,0,0,9.13-7.1l3.61-4,7.84,6.3c4.38,3.5,9.14,6.9,10.55,7.5l2.58,1.1-2.58,1.1c-1.41.6-6.17,4-10.55,7.5l-7.84,6.31-3.61-4a40.21,40.21,0,0,0-9.13-7.1c-3.09-1.7-5.53-3.4-5.53-3.8S370.36,47.91,373.45,46.21Z" fill="#677882"/><path d="M455.4,97h7.72v6c0,5.1.51,6.5,3.21,8.5a9.53,9.53,0,0,0,12.87,0c2.7-2,3.21-3.4,3.21-8.5V97h7.72c6.56,0,8.36-.4,10.94-2.5,1.8-1.3,3.21-3.6,3.21-5s-1.41-3.7-3.21-5c-2.58-2.1-4.38-2.5-10.94-2.5h-7.72V76c0-5.1-.51-6.5-3.21-8.5a9.53,9.53,0,0,0-12.87,0c-2.7,2-3.21,3.4-3.21,8.5v6H455.4c-6.56,0-8.36.4-10.94,2.5-4.11,3.1-4.11,6.9,0,10C447,96.62,448.84,97,455.4,97Z" fill="#677882"/><rect x="491.87" y="168.14" width="1.5" height="1.4" fill="#fff"/><rect x="281.1" y="108.03" width="33.45" height="266.06" fill="#fff"/></svg>