<svg id="Layer_1" data-name="Layer 1" xmlns="http://www.w3.org/2000/svg" viewBox="0 0 512 512"><title>eee</title><path d="M484.56,34.79c-5.69-2.89-12.16-1.11-15.06,4.12-5.35,9.58,4.46,19.82,14.61,15.25C491.81,50.71,492,38.69,484.56,34.79Z" fill="#fff"/><path d="M134.64,285.09c-.23.45,28,.89,62.8.89h63.13l2.68,2.68a15.31,15.31,0,0,1,3.46,5.68c.56,2.11-5.24,24.27-20.08,77.6-11.49,41-20.64,74.83-20.41,75.05.44.44,172.67-218.13,173.45-220.24.23-.45-28-.89-62.8-.89H273.74l-2.68-2.67a15.39,15.39,0,0,1-3.46-5.68c-.56-2.12,5.24-24.28,20.08-77.61,11.49-41,20.64-74.82,20.41-75.05C307.65,64.41,135.42,283,134.64,285.09Zm194.09-38.74c7.47-4.24,16.51,1.33,16.51,10.13,0,3.67-25,41.08-28.56,42.75a11.24,11.24,0,0,1-16.06-10.35C300.62,285.43,325.05,248.35,328.73,246.35Z" fill="#fff"/><path d="M46.29,458.57c-5.8-2.9-10.71-2.78-16.06.44-7.92,4.79-10.49,13.59-6.36,21.61,2.46,4.78,9.37,9.13,14.5,9.13,8.59,0,16.85-8.24,16.85-16.71C55.22,467.48,51.31,461.13,46.29,458.57Z" fill="#fff"/><path d="M450,110.06C441.5,99.37,420.53,78.55,410.49,71c-17.4-13.36-43.17-27.62-61-33.85-4.8-1.67-8.7-3.45-8.7-3.79s1.22-5,2.78-10.24c3.24-10.91,3.35-13.36,1.23-17.59-3.23-6.24-10.93-7.35-16.51-2.45-2,1.78-6.91,7.57-10.93,12.91l-7.25,9.58L304,24.88c-21.31-2.34-26.22-2.78-36.37-2.78a243,243,0,0,0-92.14,18.7C162.64,46,159,49.27,159,55.28c0,5.57,3.35,9.91,8.37,10.91,3,.56,6-.22,14.17-3.79,31.12-13.25,61.35-18.92,93.92-17.7,9.15.45,16.84,1,17.18,1.22s0,1.23-.56,2-43.95,56-96.27,122.7C91,304.13,96.38,296.56,103,303.91l3.34,3.79,67.38.55,67.37.56L220.53,382.3c-11.27,40.42-20.64,73.71-20.86,73.82-.89.89-24.32-9.24-34.58-14.92-47.18-26.28-82-67.92-98.72-118.47A210.84,210.84,0,0,1,90.8,139c4.35-6.46,9.59-13.7,11.71-16.15l3.91-4.45.11,4.23c0,7.91,8,12.69,15.28,9.24,5.91-2.78,7-6.79,7-25.72,0-17.26-1.12-22.71-5.36-24.94-1.45-.78-10-1.22-22.2-1.22-22.19,0-23.75.44-26,7.12-1,3-.89,4.68.34,7.69,1.9,4.56,2.79,5.12,9.37,6.79l4.91,1.22-5.8,7.24c-17,20.93-31.35,48-40,75.16-23.65,73.71-8.37,155.66,40.16,216.56,13.5,16.93,34.69,36.41,53,48.66,13.83,9.24,38.71,21.71,52.21,25.94,2.23.67,4.12,1.67,4.12,2.12s-1.22,5-2.78,10.24S188,499.21,188,500.55a12,12,0,0,0,5.69,9.91c7.36,3.78,11.48,1.22,23.31-14.59l7.25-9.58,6.13.67c24.88,2.67,31.35,3,45.74,2.45,36-1.56,72.39-11.36,102.4-27.72,11.49-6.35,14.28-12.81,8.59-19.6-5-5.9-7.59-5.68-24.21,2.45-34.58,16.81-67.6,24-104,22.6-9.15-.44-16.84-1-17.18-1.22s0-1.23.56-2,44-56,96.26-122.7c104.75-133.5,99.39-125.93,92.81-133.28L428,204.15l-67.38-.56L293.26,203l20.63-73.82c19.52-69.81,20.75-73.71,22.87-73,7.47,2.23,27.55,11.47,37,17,76.64,45.21,117,131.5,102.07,218.46-5.24,30.4-18.85,63.47-35.47,86.18l-4.13,5.57-.78-3.9a10.72,10.72,0,0,0-19.3-4c-2,2.67-2.34,5-2.68,18.26-.44,18.92.23,23.71,3.91,27.39l2.9,2.89H440.5c22.53,0,24.09-.44,26.32-7.12,1-3,.9-4.68-.44-7.69-1.9-4.56-4.35-6.12-11.16-7l-5-.78,3.68-4.57c11.27-13.8,25.88-40.75,33.13-61,9.93-27.73,13.72-49.33,13.72-79.39,0-23.38-1.33-35.86-6.13-55.12C485.9,166.07,472.18,138,450,110.06ZM287.68,139.9c-14.84,53.33-20.64,75.49-20.08,77.61a15.39,15.39,0,0,0,3.46,5.68l2.68,2.67h63.13c34.8,0,63,.44,62.8.89-.78,2.11-173,220.68-173.45,220.24-.23-.22,8.92-34.07,20.41-75.05,14.84-53.33,20.64-75.49,20.08-77.6a15.31,15.31,0,0,0-3.46-5.68L260.57,286H197.44c-34.8,0-63-.44-62.8-.89.78-2.11,173-220.68,173.45-220.24C308.32,65.08,299.17,98.92,287.68,139.9Z" fill="#677882"/><path d="M316.68,299.23c3.57-1.67,28.56-39.08,28.56-42.75,0-8.8-9-14.37-16.51-10.13-3.68,2-28.11,39.08-28.11,42.53A11.24,11.24,0,0,0,316.68,299.23Z" fill="#677882"/><path d="M88.68,33.23c5.69,0,11.15-5.45,11.15-11a11.23,11.23,0,0,0-16.62-9.69C73.51,17.87,77.64,33.23,88.68,33.23Z" fill="#677882"/><path d="M468.27,13c-28,10-30.34,48.1-3.9,61.13a34.15,34.15,0,0,0,29.45,0c11.93-5.91,18.18-16,18.18-29.73,0-9.47-2.34-15.81-8.25-22.61C495.71,12.74,480,8.74,468.27,13Zm15.84,41.19c-10.15,4.57-20-5.67-14.61-15.25,2.9-5.23,9.37-7,15.06-4.12C492,38.69,491.81,50.71,484.11,54.16Z" fill="#677882"/><path d="M362.08,135c-9.7,5.35-5.58,20.71,5.47,20.71,5.69,0,11.15-5.46,11.15-11A11.24,11.24,0,0,0,362.08,135Z" fill="#677882"/><path d="M116.68,157.27C107,162.61,111.1,178,122.14,178c5.69,0,11.16-5.46,11.16-11A11.24,11.24,0,0,0,116.68,157.27Z" fill="#677882"/><path d="M362.08,368.82c-9.7,5.35-5.58,20.72,5.47,20.72,5.69,0,11.15-5.46,11.15-11A11.24,11.24,0,0,0,362.08,368.82Z" fill="#677882"/><path d="M40.38,434.52a38.6,38.6,0,0,0-12.72,1.11C16.17,439.42,8,446.54,2.9,457.46.45,462.58,0,465.14,0,473,0,481.51.45,483.4,3.68,490a38.25,38.25,0,0,0,19.08,18.59c5.24,2.45,7.8,2.9,15.72,2.9S49,511,54.21,508.56A38.29,38.29,0,0,0,73.29,490C76.52,483.4,77,481.51,77,473c0-7.9-.45-10.46-2.9-15.7C67.6,443.54,55.22,435.19,40.38,434.52Zm-2,55.23c-5.13,0-12-4.35-14.5-9.13-4.13-8-1.56-16.82,6.36-21.61,5.35-3.22,10.26-3.34,16.06-.44,5,2.56,8.93,8.91,8.93,14.47C55.22,481.51,47,489.75,38.37,489.75Z" fill="#677882"/><path d="M462.47,457.9c-9.7,5.35-5.57,20.71,5.47,20.71,5.69,0,11.15-5.46,11.15-11A11.23,11.23,0,0,0,462.47,457.9Z" fill="#677882"/></svg>