<svg id="Layer_1" data-name="Layer 1" xmlns="http://www.w3.org/2000/svg" viewBox="0 0 512 512"><title>trgt</title><path d="M221.54,92C138.76,98.22,71,153.68,50.25,232.22c-2.81,10.76-5.82,28.35-5.82,34.24v3.42H90.92l.72-6.52c1.88-16.76,9-38.7,17.58-53.49a143.35,143.35,0,0,1,78.21-64.05c10-3.31,23.5-6.31,28.29-6.31a27.77,27.77,0,0,0,5.3-.63c2.29-.62,2.29-.62,2.29-23.79C223.31,93.67,223.21,91.91,221.54,92Z" fill="#fff"/><path d="M358.72,421.46c33.07-28.55,56.68-72,62.19-114.33.63-4.87,1.35-10.56,1.56-12.73l.52-3.83h-46.8l-.41,2.28c-.21,1.34-.94,6.1-1.67,10.66C371.3,322,362.36,344.27,351,360.73c-7.59,11-23.08,26.69-33.9,34.35-20,14.17-46.7,24.31-68.85,26.07l-3.64.31-.31,23.39-.21,23.28,9-.83C291.12,463.68,329.08,447.23,358.72,421.46Z" fill="#fff"/><path d="M337.09,122.33a192.14,192.14,0,0,0-78.42-29c-6-.73-11.75-1.45-12.69-1.45-1.77,0-1.87,1.76-1.87,23.18v23.17l8.63,1.14a146.72,146.72,0,0,1,66.77,27.42l6.24,4.66,16.43-16.25c8.95-8.9,16.33-16.45,16.33-16.76C358.41,137.54,345.72,127.92,337.09,122.33Z" fill="#fff"/><path d="M90.81,290.57H44.12l.72,7.45c4.37,45.74,26.11,89.09,60.64,120.75A170.88,170.88,0,0,0,149,448.26c21.42,10.56,43,17.07,62.4,18.73,4.06.41,8.32.83,9.67,1.14l2.29.41V422l-2.29-.41c-1.35-.21-6.13-.93-10.71-1.66-60-9-108.06-57.11-117.73-117.85Z" fill="#fff"/><path d="M274.17,250.94l-17.48,17.28c-15.39,15.21-17.78,17.18-20.8,17.18-2.49,0-4.36-.93-7.07-3.62-3.22-3.21-3.64-4.14-3.12-7.45s3.23-6.42,17.06-20.28c18.72-18.63,18.41-17.59,5.72-21.42-8.84-2.69-21.32-2.69-30.06.1-13.62,4.24-26.52,16.35-31.51,29.6-2.81,7.34-3.85,20.59-2.18,28.14,5.82,26.9,34.42,44.7,60.94,37.87,32.45-8.49,48-45.73,30.58-73.88Z" fill="#fff"/><path d="M449.83,47.11l-2.6-7.87a73.16,73.16,0,0,0-3.33-8.59c-.42-.41-11.75,10.25-25.38,23.8L393.87,79l2.71,8.27c1.56,4.56,3,8.49,3.22,8.8S411.34,85.39,425,71.84Z" fill="#fff"/><path d="M467,62.52c-1.46-.51-7.6,5.07-26.84,24.22-16.74,16.65-24.33,24.93-23.29,25.24.72.31,4.78,1.76,8.94,3.11l7.49,2.48,24.65-24.94L482.69,67.7l-6.86-2.28C472,64.18,468,62.83,467,62.52Z" fill="#fff"/><path d="M493.71,49.9c-6.55-2.07-12.16-3.93-12.37-4.14s2.18-3.21,5.41-6.52c5-5.17,5.92-6.72,5.92-9.93a10.05,10.05,0,0,0-9.88-9.83c-3.22,0-4.78.93-10,5.9-3.33,3.21-6.34,5.58-6.55,5.38s-1.87-5.07-3.75-10.76a146.35,146.35,0,0,0-5.3-14.08c-2.6-5.17-7.8-7.24-12.9-5.07-1.14.42-17.88,16.66-37.13,35.91C376.3,67.59,372,72.15,372,74.94c0,1.76,2.6,10.76,5.72,20s5.72,17.38,5.72,18-2.18,3.52-5,6.21l-4.89,4.76-7.28-5.79c-32-25.66-73.53-42.53-112.32-45.63l-9.36-.73-.52-9c-.42-8.17-.83-9.31-3.43-11.9a9.71,9.71,0,0,0-13.94,0c-2.7,2.59-2.91,3.62-3.22,12.11l-.42,9.31h-4.68a140.8,140.8,0,0,0-15.7,1.66C120.66,86,54.41,143.85,31.53,223.32c-2.91,10.34-6.86,32.49-6.86,38.8,0,7.45-.31,7.76-9.05,7.76-9,0-13,1.65-14.87,6.21a9.89,9.89,0,0,0,3.43,11.79c2.29,1.66,4.89,2.28,11.13,2.49l8.21.41.63,5.9c1.35,12.83,4.68,31.14,7.59,41,23.19,79.47,89.34,136.69,172.33,149a147.79,147.79,0,0,0,14.87,1.55h4.37v8.9c0,8.38.1,9,3,11.9,2.28,2.17,4,3,6.86,3,7.9,0,10.92-4.55,10.92-16.35v-7.14l9.15-.72C281.66,485.51,314,475.16,340,460c57.51-33.73,97.14-95.71,102.34-160.38l.73-9h7.17c11.86,0,16.43-3,16.43-10.86,0-2.8-.83-4.55-3-6.83-2.91-2.79-3.54-3-11.86-3h-8.73l-.73-9.62c-1.56-20.59-8.95-48.53-18.1-68.19-5.72-12.31-15.39-28.46-17.89-29.8a17.53,17.53,0,0,0-6-1c-3.43,0-4.68.63-6.86,3.21-4,4.66-3.54,8.8,1.66,17.18,14.25,23.18,24.75,54.63,26.52,79.67l.62,8.59h-46.8l-.72-7.55c-1.88-20.28-13.94-52.26-20.91-55.36-5.3-2.38-11.13-.62-13.62,4-2.08,4.14-1.87,5.49,2.6,14.8a134.59,134.59,0,0,1,11,34.15c.83,5.07,1.56,9.31,1.56,9.51s-6,.42-13.41.42c-12.8,0-13.63.1-16.54,2.59-3.74,3.1-4.68,7.13-2.7,11.69,2.08,5.07,6.44,6.41,20.59,6.41h12l-.52,3.83c-6.45,47.6-38.07,86.09-83.1,101.09-6.76,2.28-23,5.8-26.62,5.8-.52,0-.94-5.38-.94-11.9,0-17.08-2.18-21.21-10.92-21.21-2.81,0-4.58.82-6.86,3l-3,3v27.31l-5.41-.72a123.06,123.06,0,0,1-104.31-96.54A80.34,80.34,0,0,1,112,293.68v-2.9l13.62-.41,13.63-.31,3-3.42c4.16-4.55,4.16-9.62,0-13.76l-3-3H111.72l.62-6.21c3.23-30,21.95-61.56,48-81,15.18-11.38,38.48-20.69,57-23l5.93-.62v27.21l3,3c2.28,2.18,4,3,6.86,3,8.74,0,10.92-4.14,10.92-21.22v-12l5,.62c15.29,2.07,33.08,8.07,45,15,7,4.13,16.53,10.65,16.53,11.38,0,.31-8.11,8.59-18.09,18.52l-18.1,18-8.74-4.24c-12.37-6.1-20.49-7.76-35.15-7.14-8.32.41-13.83,1.14-18,2.69-19,6.73-32.76,18.63-41.39,35.8-22.78,45.74,10.71,99.95,62,100.16,12.58,0,20-1.65,31.51-7.14a69.37,69.37,0,0,0,34.64-88,71.89,71.89,0,0,0-6.24-12.31c-1.77-2.69-3.23-5.28-3-5.8.62-1.65,108.37-108.54,109.51-108.54.63,0,8.84,2.59,18.2,5.69,11.34,3.83,18.1,5.49,19.87,5.18,3.64-.83,70.72-66.33,73.11-71.4,1.46-3.1,1.56-4.34.62-7.34C509.83,55.59,508,54.45,493.71,49.9Zm-249.39,395,.31-23.39,3.64-.31c22.15-1.76,48.88-11.9,68.85-26.07,10.82-7.66,26.31-23.39,33.9-34.35,11.34-16.46,20.28-38.7,23.09-57.22.73-4.56,1.46-9.32,1.67-10.66l.41-2.28H423l-.52,3.83c-.21,2.17-.93,7.86-1.56,12.73-5.51,42.32-29.12,85.78-62.19,114.33-29.64,25.77-67.6,42.22-105.56,45.84l-9,.83Zm-34-24.94c4.58.73,9.36,1.45,10.71,1.66l2.29.41v46.56l-2.29-.41c-1.35-.31-5.61-.73-9.67-1.14-19.45-1.66-41-8.17-62.4-18.73a170.88,170.88,0,0,1-43.47-29.49C71,387.11,49.21,343.76,44.84,298l-.72-7.45H90.81l1.77,11.49C102.25,362.8,150.3,410.91,210.31,419.91Zm10.71-281a27.77,27.77,0,0,1-5.3.63c-4.79,0-18.31,3-28.29,6.31a143.35,143.35,0,0,0-78.21,64.05c-8.53,14.79-15.7,36.73-17.58,53.49l-.72,6.52H44.43v-3.42c0-5.89,3-23.48,5.82-34.24C71,153.68,138.76,98.22,221.54,92c1.67-.1,1.77,1.66,1.77,23.08C223.31,138.26,223.31,138.26,221,138.88Zm24.65,189.46c-26.52,6.83-55.12-11-60.94-37.87-1.67-7.55-.63-20.8,2.18-28.14,5-13.25,17.89-25.36,31.51-29.6,8.74-2.79,21.22-2.79,30.06-.1,12.69,3.83,13,2.79-5.72,21.42-13.83,13.86-16.54,17.07-17.06,20.28s-.1,4.24,3.12,7.45c2.71,2.69,4.58,3.62,7.07,3.62,3,0,5.41-2,20.8-17.18l17.48-17.28,2.08,3.52C293.62,282.61,278.12,319.85,245.67,328.34Zm96.51-173.11-16.43,16.25-6.24-4.66a146.72,146.72,0,0,0-66.77-27.42l-8.63-1.14V115.09c0-21.42.1-23.18,1.87-23.18.94,0,6.66.72,12.69,1.45a192.14,192.14,0,0,1,78.42,29c8.63,5.59,21.32,15.21,21.42,16.14C358.51,138.78,351.13,146.33,342.18,155.23Zm54.4-68L393.87,79l24.65-24.53c13.63-13.55,25-24.21,25.38-23.8a73.16,73.16,0,0,1,3.33,8.59l2.6,7.87L425,71.84c-13.63,13.55-25,24.41-25.17,24.21S398.14,91.81,396.58,87.25Zm61.36,5.38-24.65,24.94-7.49-2.48c-4.16-1.35-8.22-2.8-8.94-3.11-1-.31,6.55-8.59,23.29-25.24C459.39,67.59,465.53,62,467,62.52c1,.31,5,1.66,8.84,2.9l6.86,2.28Z" fill="#677882"/><path d="M421.22,261.8c-1.76-25-27.58-81.25-28.61-83.34a36.15,36.15,0,0,1-1.53-3.53,2.8,2.8,0,0,1-.4-.55,2.22,2.22,0,0,1-.24-.62,2.64,2.64,0,0,1-.67-1.72,2.84,2.84,0,0,1-.73-.8,104,104,0,0,0-6.36-8.77c-2.42-3.19-6.05-4.9-9-7.52a2.18,2.18,0,0,1-.51-.66c-.11,0-.22,0-.34,0l-.28,0C340.27,186,290.09,236,289.66,237.17c-.2.52,1.25,3.1,3,5.79a71.64,71.64,0,0,1,6.24,12.32,69.37,69.37,0,0,1-34.63,88c-11.55,5.48-18.93,7.14-31.52,7.14-51.27-.21-84.76-54.43-62-100.16,8.63-17.18,22.36-29.08,41.39-35.8,4.16-1.56,9.67-2.28,18-2.69,14.67-.62,22.78,1,35.16,7.14l8.73,4.24,18.1-18c10-9.93,18.1-18.21,18.1-18.52,0-.72-9.57-7.24-16.54-11.38-12-6.93-29.74-12.93-45-15l-5-.62v12c0,17.07-2.18,21.21-10.92,21.21-2.8,0-4.57-.83-6.86-3l-3-3V159.57l-5.92.62c-18.52,2.27-41.81,11.59-57,23-26.1,19.45-44.82,51-48,81l-.63,6.2h27.56l3,3c4.16,4.14,4.16,9.21,0,13.77l-3,3.41-13.62.31-13.63.42v2.89a80.19,80.19,0,0,0,1.56,10.56,123.07,123.07,0,0,0,104.32,96.53l5.4.73V374.68l3-3c2.29-2.17,4.06-3,6.86-3,8.74,0,10.92,4.14,10.92,21.21,0,6.52.42,11.9.94,11.9,3.64,0,19.87-3.52,26.63-5.79,45-15,76.64-53.5,83.09-101.09l.52-3.83h-12c-14.14,0-18.51-1.35-20.59-6.42-2-4.55-1-8.58,2.7-11.69,2.92-2.48,3.75-2.59,16.54-2.59,7.38,0,13.42-.2,13.42-.41s-.73-4.45-1.56-9.52a135,135,0,0,0-11-34.14c-4.47-9.32-4.68-10.66-2.6-14.8,2.5-4.66,8.32-6.42,13.63-4,7,3.11,19,35.08,20.9,55.36l.73,7.55h46.8Z" fill="#fff"/></svg>