<svg id="Layer_1" data-name="Layer 1" xmlns="http://www.w3.org/2000/svg" viewBox="0 0 510.45 511.98"><title>smiley2</title><path d="M114.21,51.64c.3,0,2.9-2.6,5.9-5.81l5.4-5.71-5.4-5.81c-3-3.11-5.6-5.81-5.9-5.91s-2.9,2.5-5.9,5.81L103,40.12l5.31,5.81C111.31,49,113.91,51.64,114.21,51.64Z" transform="translate(0 0)" fill="#fcfcfc"/><path d="M38.27,128.34v0c7.7-3.45,7.89-15.47.45-19.34-5.69-2.88-12.16-1.11-15.06,4.12C18.27,122.67,28.12,132.91,38.27,128.34Z" transform="translate(0 0)" fill="#fcfcfc"/><path d="M112.27,333c6.17,24.82,20.76,47.24,44.17,66.45,76.41,63.25,200.08,28.42,222.17-62.44L383,320.23H109.17Z" transform="translate(0 0)" fill="#fcfcfc"/><path d="M312.35,128.47v0c-75.08-23.61-159.45-4.4-214.22,48.84C46,227.77,28.79,287.81,47.34,352.66,80.46,466.74,220.92,524,338.41,471.55,415.71,437.12,462.09,356.66,450.16,279,439.12,210.55,384.79,150.91,312.35,128.47ZM288.5,239.38c2.65-13.61,13.25-25.22,31.36-34.83,14.14-7.21,41.52-2.4,55.66,10,14.57,12.78,21.64,36.79,12.36,42-7.51,4-11,1.19-20.76-16.81-14.53-26-50.79-23.22-56.53,4.4-3.09,12.4-10.16,17.2-19.44,12C287.62,254.19,286.29,248.58,288.5,239.38ZM128.61,207c19.88-9.26,34.89-8.41,52.56,2.4s30.09,35.63,22.09,44.44c-8,8.41-17.23,3.61-20.32-10C179.85,231,165.71,220.22,152,220.22c-11.49,0-28.71,14-28.71,23.22,0,9.6-8.39,16.8-15.9,14C91.51,251.83,106.08,217,128.61,207ZM402.9,323.79c-1.77,38-33.13,84.06-72.44,106.88-78.59,44.83-186.83,16-226.59-60.45-12.36-22.77-19-53.19-14.57-64,2.7-5.22,20.32-6,158.57-5.22l155.91,1.17Z" transform="translate(0 0)" fill="#fcfcfc"/><path d="M370.11,71.3v0c7.7-3.45,7.89-15.47.45-19.34-5.69-2.88-12.16-1.11-15.06,4.12C350.11,65.63,360,75.87,370.11,71.3Z" transform="translate(0 0)" fill="#fcfcfc"/><path d="M474.24,109.74c-.3-.1-2.9,2.5-5.9,5.81L463,121.46l5.31,5.81c3,3.11,5.6,5.71,5.9,5.71s2.9-2.6,5.9-5.81l5.4-5.71-5.4-5.81C477.14,112.54,474.54,109.84,474.24,109.74Z" transform="translate(0 0)" fill="#fcfcfc"/><path d="M211.65,100.47c-57.42,6.41-121.47,44.44-156.8,92.87-111.75,152.91,46.37,355.06,244.69,313,139.58-30,213.79-169.32,153.71-287.81C410.85,135.7,315.45,88.87,211.65,100.47ZM338.41,471.55C220.92,524,80.46,466.74,47.34,352.66,28.79,287.81,46,227.77,98.13,177.33c54.77-53.24,139.14-72.45,214.22-48.84v0C384.79,150.91,439.12,210.55,450.16,279,462.09,356.66,415.71,437.12,338.41,471.55Z" transform="translate(0 0)" fill="#677882"/><path d="M107.41,257.44c7.51,2.8,15.9-4.4,15.9-14,0-9.21,17.22-23.22,28.71-23.22,13.69,0,27.83,10.81,30.92,23.62,3.09,13.61,12.36,18.41,20.32,10,8-8.81-4.42-33.63-22.09-44.44s-32.68-11.66-52.56-2.4C106.08,217,91.51,251.83,107.41,257.44Z" transform="translate(0 0)" fill="#677882"/><path d="M291.15,256.19c9.28,5.2,16.35.4,19.44-12,5.74-27.62,42-30.42,56.53-4.4,9.72,18,13.25,20.81,20.76,16.81,9.28-5.21,2.21-29.22-12.36-42-14.14-12.45-41.52-17.26-55.66-10-18.11,9.61-28.71,21.22-31.36,34.83C286.29,248.58,287.62,254.19,291.15,256.19Z" transform="translate(0 0)" fill="#677882"/><path d="M89.3,306.22c-4.42,10.81,2.21,41.23,14.57,64,39.76,76.46,148,105.28,226.59,60.45,39.31-22.82,70.67-68.86,72.44-106.88l.88-21.62L247.87,301C109.62,300.22,92,301,89.3,306.22Zm289.31,30.83c-22.09,90.86-145.76,125.69-222.17,62.44-23.41-19.21-38-41.63-44.17-66.45l-3.1-12.81H383Z" transform="translate(0 0)" fill="#677882"/><path d="M85.51,48.54A37,37,0,0,1,103.31,67c1.7,3.71,3.6,7.82,4.2,9.22a7.69,7.69,0,0,0,9.4,3.4c2.9-1,3.3-1.7,8.2-12.62a37,37,0,0,1,17.8-18.43c10.1-5.11,10-11.73-.2-17s-16.8-13.39-20.4-24.71c-2.1-6.31-8-8.72-12.8-5.31-1.2.8-2.7,3.21-3.4,5.31-3.6,11.32-10.3,19.44-20.4,24.65S75.41,43.43,85.51,48.54Zm22.8-14.33c3-3.31,5.6-5.91,5.9-5.81s2.9,2.8,5.9,5.91l5.4,5.81-5.4,5.71c-3,3.21-5.6,5.81-5.9,5.81s-2.9-2.6-5.9-5.71L103,40.12Z" transform="translate(0 0)" fill="#677882"/><path d="M502.74,112.91c-10.2-5.27-16.8-13.39-20.4-24.71-2.1-6.31-8-8.72-12.8-5.31-1.2.8-2.7,3.21-3.4,5.31-3.6,11.32-10.3,19.44-20.4,24.65s-10.3,11.92-.2,17a37,37,0,0,1,17.8,18.46c1.7,3.71,3.6,7.82,4.2,9.22a7.69,7.69,0,0,0,9.4,3.4c2.9-1,3.3-1.7,8.2-12.62a37,37,0,0,1,17.8-18.43C513,124.8,512.94,118.18,502.74,112.91Zm-22.6,14.26c-3,3.21-5.6,5.81-5.9,5.81s-2.9-2.6-5.9-5.71L463,121.46l5.31-5.91c3-3.31,5.6-5.91,5.9-5.81s2.9,2.8,5.9,5.91l5.4,5.81Z" transform="translate(0 0)" fill="#677882"/><path d="M48,148.28c11.93-5.91,18.18-16,18.18-29.73,0-9.47-2.34-15.81-8.25-22.61-8-9-23.75-13-35.48-8.79-28,10-30.34,48.1-3.9,61.13A34.15,34.15,0,0,0,48,148.28ZM23.66,113.09c2.9-5.23,9.37-7,15.06-4.12,7.44,3.87,7.25,15.89-.45,19.34v0C28.12,132.91,18.27,122.67,23.66,113.09Z" transform="translate(0 0)" fill="#677882"/><path d="M350.37,91.24a34.15,34.15,0,0,0,29.45,0c11.93-5.91,18.18-16,18.18-29.73,0-9.47-2.34-15.81-8.25-22.61-8-9-23.75-13-35.48-8.79C326.27,40.11,323.93,78.21,350.37,91.24Zm5.13-35.19c2.9-5.23,9.37-7,15.06-4.12,7.44,3.87,7.25,15.89-.45,19.34v0C360,75.87,350.11,65.63,355.5,56.05Z" transform="translate(0 0)" fill="#677882"/></svg>