<svg id="Layer_1" data-name="Layer 1" xmlns="http://www.w3.org/2000/svg" viewBox="0 0 512.37 513"><title>crt2</title><path d="M240.21,480.94v5.51c0,4.61.4,6,2.5,8,2.3,2.4,3.1,2.5,13.5,2.5s11.2-.1,13.5-2.5c2.1-2,2.5-3.41,2.5-8v-5.51h-32Z" transform="translate(0 0)" fill="#fff"/><polygon points="216.21 416.82 216.21 424.84 216.21 432.85 256.21 432.85 296.21 432.85 296.21 424.84 296.21 416.82 256.21 416.82 216.21 416.82" fill="#fff"/><path d="M216.21,448.88v5.51c0,4.61.4,6,2.5,8l2.4,2.5h70.2l2.4-2.5c2.1-2,2.5-3.41,2.5-8v-5.51h-80Z" transform="translate(0 0)" fill="#fff"/><path d="M293.51,372.44c-7.1-4.71-18.3-12.93-25-18.24s-12.4-9.51-12.5-9.41-4.8,3.6-10.3,8c-8,6.31-23.7,17.63-38.1,27.45-1.3.9-1.2,1.81,1.2,6.82a46.92,46.92,0,0,1,3.1,9.81l.6,3.91h87.7V398c0-2.21,2-7.82,5.6-15.73C306,381.66,300.51,377.25,293.51,372.44Z" transform="translate(0 0)" fill="#fff"/><path d="M36.21,51.64c.3,0,2.9-2.6,5.9-5.81l5.4-5.71-5.4-5.81c-3-3.11-5.6-5.81-5.9-5.91s-2.9,2.5-5.9,5.81L25,40.12l5.3,5.81C33.31,49,35.91,51.64,36.21,51.64Z" transform="translate(0 0)" fill="#fff"/><path d="M41.21,197.41c0-1.9-1.6-1-3.2,1.81a52.85,52.85,0,0,1-7.1,7.91l-5.5,5.21,6.3,6.31a93.65,93.65,0,0,1,7.4,8.32l1.1,2,1.2-2a69.51,69.51,0,0,1,7.1-8.22l6-6.31-6.7-7C44.21,201.52,41.21,197.91,41.21,197.41Z" transform="translate(0 0)" fill="#fff"/><path d="M83.31,446.58c-8-4.71-20.2-18.54-24.7-28.06-1-2-2-3.7-2.3-3.7s-1.9,2.5-3.5,5.51c-4,7.71-13.1,18.23-20.3,23.54-3.4,2.51-6.2,4.81-6.2,5.11s1,1.1,2.3,1.7c6.4,2.91,17.6,15.63,26.1,29.66l1.7,2.8,3-5.31A84.6,84.6,0,0,1,78,455.29c3.6-3,7-5.41,7.4-5.41C87.11,449.88,86.11,448.18,83.31,446.58Z" transform="translate(0 0)" fill="#fff"/><path d="M243.51,334.37l-3.4-3.11c-22.6-20.24-32.5-29.65-50.5-47.89-11.6-11.72-25.8-26.85-31.7-33.56-7.8-9-10.7-11.82-11.1-10.52-1.6,5.41-2.8,21-2.3,30.26,1.3,21.74,10.1,44.58,24.6,63.92,7.5,9.91,27,33.56,28.1,34.06.8.3,23-15.13,36.1-25.25Z" transform="translate(0 0)" fill="#fff"/><path d="M217.81,289.28c15.4,14.73,37.4,34.37,38.4,34.37s23.4-20.24,38.9-35c24-22.74,64.1-66.82,64.1-70.43,0-.7-1.9-4.71-4.1-8.81-15.4-28.46-40.1-47-71.9-54.21-9.8-2.2-34-3.3-43.8-1.9-35.6,5-65.4,25.15-81.5,55.1-5.8,10.82-6.1,9.52,5.6,23.35C179.31,250.31,200.11,272.35,217.81,289.28Zm-16.9-102.69c7.2-6.91,26.8-15,41-17.13a113.46,113.46,0,0,1,11.6-1c4.9-.1,6.2.3,8.2,2.4a7.83,7.83,0,0,1,2.5,5.51c0,4.81-3.8,8-9.7,8-12.4.1-28,4.81-40.1,12-3.8,2.21-7.8,4-9,4-2.8,0-7-3.91-7.8-7.31C197.11,190.7,197.61,189.7,200.91,186.59Zm-22.2,24.35a7.81,7.81,0,0,1,5.5-2.51,8,8,0,0,1,0,16A7.91,7.91,0,0,1,178.71,210.94Z" transform="translate(0 0)" fill="#fff"/><path d="M367.31,249.61c-.7-5.21-1.5-9.92-1.9-10.62s-3.9,2.61-9.2,8.92c-10.8,12.82-62.2,64.52-76.2,76.64-5.9,5.11-10.5,9.72-10.2,10.22,1.6,2.7,45,33.76,45.8,32.86.1-.2,5-6.11,10.9-13,16.5-19.84,23.3-29.56,29.8-42.48A108.39,108.39,0,0,0,367.31,249.61Z" transform="translate(0 0)" fill="#fff"/><path d="M471.11,227l1.1,2,1.2-2a69.51,69.51,0,0,1,7.1-8.22l6-6.31-6.7-7c-3.6-3.91-6.6-7.52-6.6-8,0-1.9-1.6-1-3.2,1.81a52.85,52.85,0,0,1-7.1,7.91l-5.5,5.21,6.3,6.31A93.65,93.65,0,0,1,471.11,227Z" transform="translate(0 0)" fill="#fff"/><path d="M476.21,28.4c-.3-.1-2.9,2.5-5.9,5.81L465,40.12l5.3,5.81c3,3.11,5.6,5.71,5.9,5.71s2.9-2.6,5.9-5.81l5.4-5.71-5.4-5.81C479.11,31.2,476.51,28.5,476.21,28.4Z" transform="translate(0 0)" fill="#fff"/><path d="M483.31,446.58c-8-4.71-20.2-18.54-24.7-28.06-1-2-2-3.7-2.3-3.7s-2.4,3.3-4.6,7.21c-4.2,7.51-16.4,20.94-22.2,24.35-1.8,1.1-3.3,2.2-3.3,2.5s1.5,1.4,3.3,2.51c7.4,4.4,18,16.23,23.6,26.54l2.9,5.31,1.7-2.9c8.6-14.13,14.4-20.84,22.8-26.95a41.2,41.2,0,0,0,5.7-4.51C486.21,448.58,484.91,447.48,483.31,446.58Z" transform="translate(0 0)" fill="#fff"/><path d="M7.51,48.54A37,37,0,0,1,25.31,67c1.7,3.71,3.6,7.82,4.2,9.22a7.69,7.69,0,0,0,9.4,3.4c2.9-1,3.3-1.7,8.2-12.62a37,37,0,0,1,17.8-18.43c10.1-5.11,10-11.73-.2-17S47.91,18.18,44.31,6.86c-2.1-6.31-8-8.72-12.8-5.31-1.2.8-2.7,3.21-3.4,5.31-3.6,11.32-10.3,19.44-20.4,24.65S-2.59,43.43,7.51,48.54Zm22.8-14.33c3-3.31,5.6-5.91,5.9-5.81s2.9,2.8,5.9,5.91l5.4,5.81-5.4,5.71c-3,3.21-5.6,5.81-5.9,5.81s-2.9-2.6-5.9-5.71L25,40.12Z" transform="translate(0 0)" fill="#677882"/><path d="M506.21,32.31c-11.2-5.61-17-12-21.2-23.55-2.3-6.21-4.7-8.71-8.8-8.71a9.3,9.3,0,0,0-4.6,1.5c-1.2.7-3.1,4-4.2,7.21-4.2,11.42-9.8,17.84-20.6,23.35-9.3,4.6-9,11.52.7,16.43a38.93,38.93,0,0,1,17.9,18.63c4.8,10.72,5.2,11.42,8.1,12.42a7.69,7.69,0,0,0,9.4-3.4c.6-1.4,2.5-5.51,4.2-9.22a37,37,0,0,1,17.8-18.43C514.31,43.83,514.91,36.71,506.21,32.31Zm-24.1,13.52c-3,3.21-5.6,5.81-5.9,5.81s-2.9-2.6-5.9-5.71L465,40.12l5.3-5.91c3-3.31,5.6-5.91,5.9-5.81s2.9,2.8,5.9,5.91l5.4,5.81Z" transform="translate(0 0)" fill="#677882"/><path d="M434,386.16c.5-10.92-1.3-20.83-6.4-35.66-3.5-10.12-14.6-33.46-19.8-41.78-4.1-6.41-8.3-7.31-13.3-2.8-3.5,3.2-2.8,6.71,3.7,18.43,16.7,30.26,23.8,58,17.9,70-5,10.52-22.5,11.22-47.4,1.9-8-2.9-33.9-15.73-37.2-18.33l-2.2-1.7,12.5-15c6.8-8.32,15.3-19.34,18.9-24.55,22.1-32.76,28.4-67.42,19.4-105.69l-2.1-9,10.4-14c48.4-64.72,68.9-117.11,55.8-142.86-3-5.91-9.4-11.52-15.8-14.13-8-3.1-24.1-3.1-36.1.1-21.9,5.81-48.4,18.94-77.6,38.57-15.2,10.12-23.7,16.33-25.2,18.44-3.4,4.41.7,12.22,6.4,12.22,1.6,0,4.9-1.5,7.8-3.61,56.5-40.77,103.8-60.11,121.2-49.49,18.9,11.52-.5,65.12-46.2,127.14L371,204.73l-4.1-6.92q-27.9-47-81.9-58.7c-13.7-2.91-41.7-3.21-55.1-.51q-55.95,11.28-84.4,59.21l-4.1,6.92-7.7-10.42c-24.6-33.26-42.9-66.33-50.1-90.57-3.4-11.52-3.9-26.15-1.1-31.36,10.5-19.23,60.2-2.7,119.7,39.67,12.7,9,15.5,9.82,19.5,5.72,3.5-3.41,3.3-7.92-.4-11.33-8.6-8.11-44.8-31.15-64.1-40.77-28.3-14.23-53.4-20.14-68.5-16.23-6.7,1.8-10.7,4-15,8.21C51.31,80.1,69.91,135.6,124,207.93l10.4,14-2,9c-7.6,32.66-4.7,59.91,9.3,88.16,6.8,13.73,15,25.55,31.8,45.58l9.6,11.53-2.2,1.7c-3.4,2.6-29.3,15.43-37.2,18.33-24.9,9.32-42.4,8.62-47.4-1.9-5.9-12.12,1.2-39.67,17.9-70,3.3-5.91,6-12,6-13.63,0-6-8.8-9.81-13-5.51-2.5,2.61-11.2,18.54-16.4,30.26-9.1,20.34-13.1,36.87-12.4,51.1.5,10.11,2.7,15.82,8.3,22,10.6,11.82,30.5,13.42,57.2,4.6,8.4-2.8,35.5-15.52,43.5-20.43a31,31,0,0,1,5.3-3c.2,0,1.2,2.41,2.1,5.41,1.7,5.31,1.7,5.51-.4,8.12a11,11,0,0,0-2.2,5.71c0,3.1,3.8,7.81,6.5,7.81,1.2,0,1.5,1.4,1.5,7.72,0,7.81,0,7.81-3.3,9.31a7.67,7.67,0,0,0-4.1,9.72,8.53,8.53,0,0,0,4.1,4.31c3.1,1.4,3.3,1.8,3.3,6.91,0,8.42,1.9,13,7.5,18.64,4.7,4.71,10.2,7.51,14.9,7.51,1.3,0,1.6,1.1,1.6,5.61,0,8.72,1.8,13.33,7.5,18.94,6.3,6.41,10,7.51,24.5,7.51s18.2-1.1,24.5-7.51c5.7-5.61,7.5-10.22,7.5-18.94,0-4.51.3-5.61,1.6-5.61,4.7,0,10.2-2.8,14.9-7.51,5.6-5.61,7.5-10.22,7.5-18.64,0-5.11.2-5.51,3.3-6.91a7.66,7.66,0,0,0,4.1-9.72,8.53,8.53,0,0,0-4.1-4.31c-3.3-1.5-3.3-1.5-3.3-9.31,0-6.32.3-7.72,1.5-7.72,2.7,0,6.5-4.71,6.5-7.81a11,11,0,0,0-2.1-5.61c-2-2.51-2.1-3.11-.9-6.92,1.9-6.61,2.6-7,7.3-4,8.5,5.41,34.6,17.53,44.7,20.83,20.5,6.62,36.7,7.32,47.2,2.21C427.81,409.91,433.31,400.69,434,386.16ZM157.91,208.43c16.1-30,45.9-50.09,81.5-55.1,9.8-1.4,34-.3,43.8,1.9,31.8,7.22,56.5,25.75,71.9,54.21,2.2,4.1,4.1,8.11,4.1,8.81,0,3.61-40.1,47.69-64.1,70.43-15.5,14.73-38,35-38.9,35s-23-19.64-38.4-34.37c-17.7-16.93-38.5-39-54.3-57.5C151.81,218,152.11,219.25,157.91,208.43Zm39.3,159.1c-1.1-.5-20.6-24.15-28.1-34.06-14.5-19.34-23.3-42.18-24.6-63.92-.5-9.22.7-24.85,2.3-30.26.4-1.3,3.3,1.5,11.1,10.52,5.9,6.71,20.1,21.84,31.7,33.56,18,18.24,27.9,27.65,50.5,47.89l3.4,3.11-10.2,7.91C220.21,352.4,198,367.83,197.21,367.53Zm75,118.92c0,4.61-.4,6-2.5,8-2.3,2.4-3.1,2.5-13.5,2.5s-11.2-.1-13.5-2.5c-2.1-2-2.5-3.41-2.5-8v-5.51h32Zm24-32.06c0,4.61-.4,6-2.5,8l-2.4,2.5h-70.2l-2.4-2.5c-2.1-2-2.5-3.41-2.5-8v-5.51h80Zm0-29.55v8h-80v-16h80Zm4-26.85v2.8h-87.7l-.6-3.91a46.92,46.92,0,0,0-3.1-9.81c-2.4-5-2.5-5.92-1.2-6.82,14.4-9.82,30.1-21.14,38.1-27.45,5.5-4.41,10.1-8,10.3-8s5.8,4.21,12.5,9.41,17.9,13.53,25,18.24,12.5,9.22,12.3,9.82C302.21,390.17,300.21,395.78,300.21,398Zm15.4-30.36c-.8.9-44.2-30.16-45.8-32.86-.3-.5,4.3-5.11,10.2-10.22,14-12.12,65.4-63.82,76.2-76.64,5.3-6.31,8.8-9.62,9.2-8.92s1.2,5.41,1.9,10.62a108.39,108.39,0,0,1-11,62.52c-6.5,12.92-13.3,22.64-29.8,42.48C320.61,361.52,315.71,367.43,315.61,367.63Z" transform="translate(0 0)" fill="#677882"/><path d="M205.41,200.42c1.2,0,5.2-1.8,9-4,12.1-7.21,27.7-11.92,40.1-12,5.9,0,9.7-3.21,9.7-8a7.83,7.83,0,0,0-2.5-5.51c-2-2.1-3.3-2.5-8.2-2.4a113.46,113.46,0,0,0-11.6,1c-14.2,2.11-33.8,10.22-41,17.13-3.3,3.11-3.8,4.11-3.3,6.52C198.41,196.51,202.61,200.42,205.41,200.42Z" transform="translate(0 0)" fill="#677882"/><path d="M184.21,224.46a8,8,0,0,0,0-16,7.81,7.81,0,0,0-5.5,2.51A7.91,7.91,0,0,0,184.21,224.46Z" transform="translate(0 0)" fill="#677882"/><path d="M250.71,117.77a7.3,7.3,0,0,0,11,0c2.4-2.31,2.5-3.11,2.5-13.53s-.1-11.22-2.5-13.52a7.28,7.28,0,0,0-11,0c-2.4,2.3-2.5,3.1-2.5,13.52S248.31,115.46,250.71,117.77Z" transform="translate(0 0)" fill="#677882"/><path d="M132.11,140.21c-4.6,4.61-3.9,7.21,3.9,15.33,8.4,8.81,11.3,10.41,15.3,8.71a9.41,9.41,0,0,0,4.5-4.11c2.2-4.3.7-7.21-8.1-15.73C139.31,136.2,136.81,135.6,132.11,140.21Z" transform="translate(0 0)" fill="#677882"/><path d="M360.41,164c4.3,2.21,7.2.7,15.7-8.11,8.2-8.42,8.8-10.92,4.2-15.63s-7.2-3.91-15.3,3.8c-8.8,8.52-10.4,11.43-8.7,15.43A9.41,9.41,0,0,0,360.41,164Z" transform="translate(0 0)" fill="#677882"/><path d="M45,170.06a8,8,0,0,0-9.4-.2c-1.2.7-3.1,4.11-4.3,7.42-2.8,7.61-9.1,17.13-13.9,20.73a72.41,72.41,0,0,1-9.7,5.92c-6.7,3.4-8.6,6.51-6.9,11.22.7,2,2.9,3.8,7.7,6.31,11.2,5.81,18.4,14.12,22.9,26.35,2.3,6.21,4.8,8.71,8.8,8.71s6.6-2.5,8.5-8.21a45.54,45.54,0,0,1,23.2-26.95c5-2.51,7-4.11,7.7-6.21,1.7-4.71-.2-7.82-7-11.22-11.9-6-19.4-14.43-23.6-26.35C48,174.47,46.21,171.06,45,170.06Zm3.5,48.69a69.51,69.51,0,0,0-7.1,8.22l-1.2,2-1.1-2a93.65,93.65,0,0,0-7.4-8.32l-6.3-6.31,5.5-5.21a52.85,52.85,0,0,0,7.1-7.91c1.6-2.81,3.2-3.71,3.2-1.81,0,.5,3,4.11,6.6,8l6.7,7Z" transform="translate(0 0)" fill="#677882"/><path d="M432.81,215.15c.7,2.1,2.7,3.7,7.7,6.21a41.8,41.8,0,0,1,20.2,20.84c2,4.3,4.2,8.91,4.9,10.32,1.5,3.2,5.7,4.7,9.3,3.4,2.9-1,3.1-1.4,8.6-13.52a42.15,42.15,0,0,1,20.4-21c7.5-3.81,9.5-6.71,7.7-11.72-.7-2-2.7-3.61-7.7-6.12a45.51,45.51,0,0,1-23.2-27c-2.5-7.61-7.9-10.41-13.1-6.71-1.2.7-3.1,4.11-4.3,7.42-2.8,7.61-9.1,17.13-13.9,20.73a72.41,72.41,0,0,1-9.7,5.92C433,207.33,431.11,210.44,432.81,215.15Zm30.1-8a52.85,52.85,0,0,0,7.1-7.91c1.6-2.81,3.2-3.71,3.2-1.81,0,.5,3,4.11,6.6,8l6.7,7-6,6.31a69.51,69.51,0,0,0-7.1,8.22l-1.2,2-1.1-2a93.65,93.65,0,0,0-7.4-8.32l-6.3-6.31Z" transform="translate(0 0)" fill="#677882"/><path d="M96.21,272.55c10.4,0,11.2-.1,13.5-2.5a7.32,7.32,0,0,0,0-11c-2.3-2.41-3.1-2.51-13.5-2.51s-11.2.1-13.5,2.51a7.32,7.32,0,0,0,0,11C85,272.45,85.81,272.55,96.21,272.55Z" transform="translate(0 0)" fill="#677882"/><path d="M416.21,256.52c-10.4,0-11.2.1-13.5,2.51a7.32,7.32,0,0,0,0,11c2.3,2.4,3.1,2.5,13.5,2.5s11.2-.1,13.5-2.5a7.32,7.32,0,0,0,0-11C427.41,256.62,426.61,256.52,416.21,256.52Z" transform="translate(0 0)" fill="#677882"/><path d="M123.91,376.75c3.1,0,18.3-11.22,20.3-15,1.3-2.51.5-5.71-2.3-8.82-3.4-3.7-6.7-2.8-15.6,3.91-4.5,3.41-8.6,7-9.1,8C114.51,369.83,118.41,376.75,123.91,376.75Z" transform="translate(0 0)" fill="#677882"/><path d="M370.41,352.9a16.07,16.07,0,0,0-2.8,5.11c-.6,2.51-.1,3.41,4.5,7.72,6.8,6.41,13.9,11,16.8,11,3.2,0,7.3-4.31,7.3-7.52,0-4.1-1.5-5.91-10.1-12.42C377.21,350.1,373.91,349.2,370.41,352.9Z" transform="translate(0 0)" fill="#677882"/><path d="M102.11,439.16A72.17,72.17,0,0,1,76,416.52c-4.6-6.71-10.1-18.13-11.7-24.44-1.8-6.62-7.8-9.32-12.8-5.82-1.2.91-3,4.31-4.3,8.22-6.3,19.74-19.9,36.27-36.5,44.48-9.8,4.81-11.8,7.32-9.9,12.63.7,2.2,3,3.8,9.9,7.21a71.3,71.3,0,0,1,30.8,31c2.5,5.11,5.4,11.72,6.2,14.72,1.8,5.92,4.4,8.52,8.5,8.52,4.3,0,6.7-2.6,9.1-9.72,6.7-20.44,19.6-36.17,36.9-44.68,9.3-4.61,11.3-7.21,9.4-12.42C110.91,444,108.71,442.37,102.11,439.16Zm-16.7,10.72c-.4,0-3.8,2.41-7.4,5.41a84.6,84.6,0,0,0-18.6,22.54l-3,5.31-1.7-2.8c-8.5-14-19.7-26.75-26.1-29.66-1.3-.6-2.4-1.4-2.3-1.7s2.8-2.6,6.2-5.11c7.2-5.31,16.3-15.83,20.3-23.54,1.6-3,3.2-5.51,3.5-5.51s1.3,1.7,2.3,3.7c4.5,9.52,16.7,23.35,24.7,28.06C86.11,448.18,87.11,449.88,85.41,449.88Z" transform="translate(0 0)" fill="#677882"/><path d="M501.71,439c-7.3-3.6-10.6-6.11-17.6-13-7.2-7.22-9.4-10.22-13.7-18.94-2.8-5.61-5.4-11.82-5.8-13.72-1.3-6.92-8-10.52-13.1-7-1.2.91-3.1,4.41-4.4,8.22-6.7,20.44-19.6,36.17-36.9,44.68-6.5,3.21-8.7,4.81-9.4,7-1.9,5.21.1,7.81,9.4,12.42,17.2,8.51,30.5,24.54,37,44.68,2.3,7.12,4.7,9.72,9,9.72s6.7-2.6,9-9.72c6.3-19.73,19.9-36.27,36.5-44.48,9.8-4.81,11.8-7.31,9.9-12.62C510.91,444,508.61,442.37,501.71,439Zm-21.2,14.43c-8.4,6.11-14.2,12.82-22.8,26.95l-1.7,2.9-2.9-5.31c-5.6-10.31-16.2-22.14-23.6-26.54-1.8-1.11-3.3-2.21-3.3-2.51s1.5-1.4,3.3-2.5c5.8-3.41,18-16.84,22.2-24.35,2.2-3.91,4.3-7.21,4.6-7.21s1.3,1.7,2.3,3.7c4.5,9.52,16.7,23.35,24.7,28.06,1.6.9,2.9,2,2.9,2.3A41.2,41.2,0,0,1,480.51,453.39Z" transform="translate(0 0)" fill="#677882"/></svg>