<svg id="Layer_1" data-name="Layer 1" xmlns="http://www.w3.org/2000/svg" viewBox="0 0 511.45 512.64"><title>Untitled-2</title><path d="M377.05,185.62l-96.19.27-96.18.27.08,27.38.07,27.37,1.44.31a31.43,31.43,0,0,0,4.81.3,115.36,115.36,0,0,1,18.37,1.83c10.5,2.27,18.32,7.58,23.71,16.14l3,4.74.12,44.47.13,44.46L233.44,358a31.18,31.18,0,0,1-7.66,8.8c-6.36,5.35-11.85,7.71-19.65,8.41-7.31.65-59.52.8-66.83.19-11.5-1-21.07-7.21-27.6-17.95l-2.88-4.7.31-44.93.38-44.89,2.42-3.45C121,247,129.69,242.9,149.23,241.9c3.63-.17,7.5-.44,8.62-.6l2-.26-.08-27.38-.07-27.43-43.1.12-43.09.11.29,84c.13,46.24.52,98.12.88,115.37.65,31.19.65,31.34,2.29,36.83a80.29,80.29,0,0,0,6.6,16.7c11.68,22.12,35.9,40.34,64,48.1,13.07,3.62,11.19,3.52,70.65,3.62,59.15.1,70.64-.25,80-2.37,14.67-3.38,26.59-8.32,38.06-15.83,6.61-4.35,18.38-14.68,23.3-20.49,7-8.28,14.68-23.45,16.28-32.13.92-5.12,1.53-77.49,1.3-160.57Z" transform="translate(-0.68 -0.05)" fill="#fff"/><path d="M137.06,265.66l-3.8,3L133,297.91c-.14,16,0,33.91.18,39.65.73,15.73,1.42,16.56,14.91,17.52,4.5.35,16.24.42,30.17.23,29.1-.4,30.54-.66,32.9-6.41,1-2.46,1.1-5.44.94-41.55L212,268.48l-4-3-4-3-31.54.09-31.54.09Z" transform="translate(-0.68 -0.05)" fill="#fff"/><polygon points="7.03 512.64 7.08 512.64 7.03 512.59 7.03 512.64" fill="#90abd3"/><path d="M246.07,3.21c-2-1.35-7.32-3.21-9.13-3.16a19.5,19.5,0,0,0-4.37.8c-4.22,1.31-5.77,1.87-6.4,11.23L248.68,12C248.34,4.65,247.67,4.31,246.07,3.21Z" transform="translate(-0.68 -0.05)" fill="#677882"/><path d="M225.45,67.17l-4.8,4.2c-10.47,9.12-14,12.52-15.2,14.88-1.8,3.4-2.62,23.52-1.7,41.28.67,13.79,1.11,15.62,4.36,18.43,2,1.77,7,2.75,11,2.27,2.44-.32,3.37-.79,6-3.25l3.18-2.94-.07-23.62-.06-23.67,10.65-9.27,10.66-9.23-.35-34.85c-.12-15.28-.19-24.12-.43-29.38l-22.51.06c-.35,5.3-.41,13.41-.49,26.09Z" transform="translate(-0.68 -0.05)" fill="#677882"/><path d="M131.28,143.51a17.25,17.25,0,0,0,4.07,3.39c2.19,1.3,3.19,1.5,6.69,1.49,9.18,0,12.54-4.32,12.51-16.12v-5.33l9.53-6.14c5.18-3.41,10.85-7.19,12.54-8.45l3-2.26.48-5.74c.24-3.14.45-18.45.41-34l0-28.32-2.19-1.61C173.46,36.91,168,35.83,164,37.67a25.24,25.24,0,0,0-4.49,2.93l-2.68,2.15.08,28.32L157,99.34l-9.17,6c-5,3.31-11.16,7.56-13.59,9.5l-4.36,3.46,0,11.7C129.9,141.16,130,141.69,131.28,143.51Z" transform="translate(-0.68 -0.05)" fill="#677882"/><path d="M297.43,145c2.55-2.09,2.74-3,3.19-18.66l.34-13,9.85-8.65,9.78-8.64-.07-23.26-.06-23.19-2.63-2.14c-4.44-3.59-10-4.73-14.56-3a12,12,0,0,0-5.86,5.19c-1.18,2.61-1.9,12.49-1.86,25.71l0,13.06L286,96.48l-9.54,8-.38,18.55-.45,18.6,2.75,2.34C284.45,149.25,291.76,149.6,297.43,145Z" transform="translate(-0.68 -0.05)" fill="#677882"/><path d="M1.86,498.34c-2.3,4.13-1.23,7.94,3.28,12l2.57,2.35,0-19.28A10.44,10.44,0,0,0,1.86,498.34Z" transform="translate(-0.68 -0.05)" fill="#677882"/><path d="M511.69,267.81c-.83-10.21-1.66-14.09-4.71-19.71l.41,147a37.86,37.86,0,0,0,3.86-12.59C512.17,374.29,512.46,278,511.69,267.81Z" transform="translate(-0.68 -0.05)" fill="#677882"/><path d="M505.25,245.09c-4.33-7.25-8.21-11.68-15.29-17.56A61,61,0,0,0,471.2,216.4c-12.07-4.72-22.26-5.9-50.86-5.82l-18,0-.37-19.9-.37-19.91-3.38-2.76-3.38-2.76-121.48.13c-66.83.08-142.84.34-168.94.57-51.09.4-47.72.24-51.59,2.86-2.24,1.52-2.61,3.2-3.08,14.22-.7,17.56-.77,174.52,0,203.83.35,14.63,1,29.21,1.34,32.39,1.79,13.79,9,29.34,20,43.31,6.52,8.29,12.85,14.49,22.74,22.25l8.2,6.41-45.53.44c-41.29.37-45.72.49-48,1.33-.28.1-.54.21-.8.32l0,19.28.06.05,218.35-.61,218.41-.6,2.56-2.26c3.36-2.88,4.54-5,4.53-8,0-4.76-3.58-8.46-9.2-9.7-1.38-.3-20.62-.57-46.91-.65L351,490.73l9.91-8.49c21.81-18.66,30.4-30.81,38.45-54.76l2.79-8.11.11-94,.12-94,23.17.3c25.05.29,28.92.65,34.8,3.14C471,239.29,478,245.33,484,255.24l2.58,4.28,0,62.59v62.54l-3.42,5.19c-8.46,12.82-22.18,20.54-39.29,22.1-5.87.49-8.11,1.23-10.86,3.38s-4.11,4.5-4.1,6.75c0,2.09,2.89,6.57,5.39,8.45,2.13,1.56,2.26,1.56,9.19,1.54a74.87,74.87,0,0,0,42.44-13.13,63.14,63.14,0,0,0,21.45-23.79l-.41-147C506.47,247.16,505.9,246.17,505.25,245.09ZM375.89,420.23c-1.6,8.68-9.3,23.85-16.28,32.13-4.92,5.81-16.69,16.14-23.3,20.49-11.47,7.51-23.39,12.45-38.06,15.83-9.36,2.12-20.85,2.47-80,2.37-59.46-.1-57.58,0-70.65-3.62-28.13-7.76-52.35-26-64-48.1a80.29,80.29,0,0,1-6.6-16.7c-1.64-5.49-1.64-5.64-2.29-36.83-.36-17.25-.75-69.13-.88-115.37l-.29-84,43.09-.11,43.1-.12.07,27.43.08,27.38-2,.26c-1.12.16-5,.43-8.62.6-19.54,1-28.21,5.1-37.3,17.61L109.51,263l-.38,44.89-.31,44.93,2.88,4.7c6.53,10.74,16.1,17,27.6,17.95,7.31.61,59.52.46,66.83-.19,7.8-.7,13.29-3.06,19.65-8.41a31.18,31.18,0,0,0,7.66-8.8l2.92-4.87-.13-44.46-.12-44.47-3-4.74c-5.39-8.56-13.21-13.87-23.71-16.14a115.36,115.36,0,0,0-18.37-1.83,31.43,31.43,0,0,1-4.81-.3l-1.44-.31-.07-27.37-.08-27.38,96.18-.27,96.19-.27.14,74C377.42,342.74,376.81,415.11,375.89,420.23ZM172.4,262.53l31.54-.09,4,3,4,3,.17,38.87c.16,36.11.11,39.09-.94,41.55-2.36,5.75-3.8,6-32.9,6.41-13.93.19-25.67.12-30.17-.23-13.49-1-14.18-1.79-14.91-17.52-.21-5.74-.32-23.61-.18-39.65l.24-29.21,3.8-3,3.8-3Z" transform="translate(-0.68 -0.05)" fill="#677882"/></svg>