<svg id="Layer_1" data-name="Layer 1" xmlns="http://www.w3.org/2000/svg" viewBox="0 0 512 512"><title>sleepy</title><path d="M332.75,204.26l3.95-3.95,3.95-4.06L337,192.52c-2-2-3.95-3.74-4.27-3.74s-2.24,1.71-4.27,3.74l-3.64,3.73,4,4.06Z" fill="#fff"/><path d="M102,298.17l4-3.95,4-4.05-3.63-3.74c-2-2-4-3.73-4.28-3.73s-2.24,1.71-4.27,3.73l-3.63,3.74,4,4.05Z" fill="#fff"/><path d="M229,431.15c-5.77-3.1-7.91-3.63-17.63-4.27-14.21-.86-14.63-1.28-15.38-14-.64-10.25-1.93-13.13-7.91-17.5-2.13-1.71-4.48-2.25-9.18-2.25-7.27,0-10.58,1.93-15.39,9-5.66,8.32-11.32,7.9-17.41-1.39-7.9-12.06-18.91-20.17-31.83-23.58a50.68,50.68,0,0,0-48.93,14.3c-10,10.46-14.63,22.51-14.63,38.31,0,8-.21,9.07-2.67,11.42a8.19,8.19,0,0,1-6,2.67c-13.14,0-25.53,12.48-25.53,25.61,0,10.14,8.65,21.77,18.16,24.33,3.74,1.07,26.06,1.28,96.14,1.07l91.33-.32,6.73-3.63c7.48-4.05,10.79-7.47,15-15.47,2.35-4.59,2.78-6.83,2.78-14.52s-.43-9.92-2.78-14.51C239.71,438.4,236.4,435,229,431.15Z" fill="#fff"/><path d="M213.11,187.18l3.95-4,3.95-4-3.63-3.74c-2-2-3.95-3.73-4.27-3.73s-2.24,1.71-4.27,3.73l-3.64,3.74,4,4Z" fill="#fff"/><path d="M84.92,68.19A8.43,8.43,0,0,0,90.8,53.78a8.33,8.33,0,0,0-5.88-2.67,9,9,0,0,0-8.54,8.54A9,9,0,0,0,84.92,68.19Z" fill="#fff"/><path d="M443.84,435.31a8.54,8.54,0,1,0,0,17.07,8.42,8.42,0,0,0,5.88-14.4A8.33,8.33,0,0,0,443.84,435.31Z" fill="#fff"/><path d="M395.88,374.05c-29.38,9.61-66.44,12.38-95.71,7.36-66.66-11.52-120.92-51.54-150.51-111-9.08-18.14-13.57-30.73-17.31-48-7.58-36-5.55-74.28,5.88-108,1.07-3.1,1.6-5.66,1.07-5.66-1.5,0-22.54,20.71-28.63,28.18-21.15,25.82-34.51,55.7-40.92,91.35-1.81,10.14-1.92,50.59-.21,52.29,2.35,2.35,10.15-1.06,15.92-6.93,5.55-5.45,8-10.89,8-17.51a8.55,8.55,0,1,1,17.09,0c0,13,12.5,25.51,25.53,25.51a8.54,8.54,0,1,1,0,17.08c-13,0-25.53,12.48-25.53,25.5a8.55,8.55,0,1,1-17.09,0c0-6.61-2.46-12.06-8-17.61-4.92-4.91-10.58-7.89-12.07-6.29-.32.32,1.39,6.72,4,14.19,4.38,13.23,11.86,29.56,17.94,39.17,2.89,4.59,3.21,4.8,8.34,4.8,15.27.11,32.9,7.36,45.08,18.57l7.47,6.94,3.74-2.57c10.36-7,23.61-7.57,35.15-1.49a40.88,40.88,0,0,1,9.08,6.62c4,4.69,7.58,12.48,8.43,17.93l.75,4.8,7.27,1.17c15.7,2.46,30.55,13,37.6,26.68l3.52,6.83,7-.64c41.66-3.84,76.16-17.61,106.39-42.26,7.48-6.08,28.2-27.11,28.2-28.6C403.25,372,399.94,372.77,395.88,374.05Z" fill="#fff"/><path d="M463,51.11c-8.86,0-10.57-1.17-15.16-10.14-4.92-9.39-11.22-15.58-20.62-19.95A34.83,34.83,0,0,0,412,17.39c-9.72-.43-14.42.64-22.75,5.12-7.91,4.16-13.89,10.57-18.27,19.42-3.84,7.9-5.87,9.18-14.63,9.18-13.57,0-23.93,6.3-29.81,18.15-2.35,4.8-3.84,6.29-7.79,8.21-8.87,4.16-12.82,11.42-11.22,20.07,1,5,6.3,10.88,11.11,12.27,2.67.85,28.2,1.07,79.26.85l75.31-.32,5.34-2.88c18.37-9.71,22-32.87,7.37-47.49C479.63,53.67,473,51.11,463,51.11Z" fill="#fff"/><path d="M452.39,196.25a9.19,9.19,0,1,0,5.87,2.67A8.35,8.35,0,0,0,452.39,196.25Z" fill="#fff"/><path d="M332.75,315.25l3.95-3.95,3.95-4.06L337,303.51c-2-2-3.95-3.74-4.27-3.74s-2.24,1.71-4.27,3.74l-3.64,3.73,4,4.06Z" fill="#fff"/><path d="M487.64,39.91c-6.09-3.1-16-5.87-20.83-5.87-2.78,0-3.63-.75-5.88-4.91-3.31-6.3-13.13-16.33-19.76-20.28-12.28-7.15-30.55-10.56-42.73-8A84.54,84.54,0,0,0,378,9c-6.51,3.84-16.45,14-19.65,20.17C356,33.5,355.29,34,352,34c-13.89.1-32.16,11.1-38.25,23.16-1.38,2.66-4.37,5.65-8,8.11-15.17,9.92-19.76,28.6-11.32,44.61,3.85,7.15,7.26,10.35,15.28,14.62l5.44,2.88,76.81.32c51.38.21,78.73-.11,82.36-.86,19.33-3.94,33.75-19.21,37.17-38.95C514.56,69.58,504,48.23,487.64,39.91Zm-9.08,67.55-5.34,2.88-75.31.32c-51.06.22-76.59,0-79.26-.85-4.81-1.39-10.15-7.26-11.11-12.27-1.6-8.65,2.35-15.91,11.22-20.07,3.95-1.92,5.44-3.41,7.79-8.21,5.88-11.85,16.24-18.15,29.81-18.15,8.76,0,10.79-1.28,14.63-9.18,4.38-8.85,10.36-15.26,18.27-19.42,8.33-4.48,13-5.55,22.75-5.12A34.83,34.83,0,0,1,427.18,21c9.4,4.37,15.7,10.56,20.62,20,4.59,9,6.3,10.14,15.16,10.14,10.05,0,16.67,2.56,23,8.86C500.57,74.59,496.93,97.75,478.56,107.46Z" fill="#677882"/><path d="M103.4,76.73c9.62-10.68,9.62-23.48,0-34.16-6.94-7.68-16.87-10.35-27-7.15-5.24,1.71-14.21,10.89-15.81,16.33-3,10-.86,18,6.73,25.51C78.19,88.25,93.26,88,103.4,76.73ZM84.92,51.11a8.33,8.33,0,0,1,5.88,2.67,8.43,8.43,0,0,1-5.88,14.41,9,9,0,0,1-8.54-8.54A9,9,0,0,1,84.92,51.11Z" fill="#677882"/><path d="M436.37,350.79c0-3.74-4.28-8.33-7.8-8.33-1.39,0-7.27,2.35-13.25,5.34-70.5,34.9-155.74,21.34-213.21-34.05-58.33-56.24-73.92-144.92-38.14-217,2.89-6,5.34-12,5.34-13.34,0-3.52-4.59-7.79-8.33-7.79-1.92,0-6.73,2.24-12.6,6-59,36.82-94.54,97.87-97.32,166.92-1.39,34.47,5.66,66.8,21.26,98.39,4.06,8.22,7.26,15.05,7.05,15.27l-6.2,2.88A73.81,73.81,0,0,0,49,383.76c-8.65,10.89-15.27,28.18-15.38,40,0,2.67-.54,4.06-1.5,4.06-.74,0-4.8,1.71-8.86,3.73-9.19,4.59-15.39,11-19.87,20.6C.32,458.68,0,460.28,0,469.57c0,9.6.21,10.56,4,18.25,4.81,9.71,11,15.68,20.94,20.38l7.16,3.41,92.93.33c64.52.21,94.54-.11,98.49-.86,20.19-4.27,36.75-21.77,40.17-42.37.64-4,1.17-7.36,1.28-7.47s4.91-.74,10.79-1.38c65.16-7.16,120.17-41.41,154.67-96.48C434.12,357.51,436.37,352.71,436.37,350.79ZM243.87,475.44c-4.16,8-7.47,11.42-15,15.47l-6.73,3.63-91.33.32c-70.08.21-92.4,0-96.14-1.07-9.51-2.56-18.16-14.19-18.16-24.33,0-13.13,12.39-25.61,25.53-25.61a8.19,8.19,0,0,0,6-2.67c2.46-2.35,2.67-3.42,2.67-11.42,0-15.8,4.59-27.85,14.63-38.31a50.68,50.68,0,0,1,48.93-14.3c12.92,3.41,23.93,11.52,31.83,23.58,6.09,9.29,11.75,9.71,17.41,1.39,4.81-7,8.12-9,15.39-9,4.7,0,7,.54,9.18,2.25,6,4.37,7.27,7.25,7.91,17.5.75,12.7,1.17,13.12,15.38,14,9.72.64,11.86,1.17,17.63,4.27,7.37,3.84,10.68,7.25,14.84,15.26,2.35,4.59,2.78,6.83,2.78,14.51S246.22,470.85,243.87,475.44Zm131.18-74.39c-30.23,24.65-64.73,38.42-106.39,42.26l-7,.64-3.52-6.83c-7.05-13.66-21.9-24.22-37.6-26.68l-7.27-1.17-.75-4.8c-.85-5.45-4.48-13.24-8.43-17.93a40.88,40.88,0,0,0-9.08-6.62c-11.54-6.08-24.79-5.55-35.15,1.49L156.17,384,148.7,377c-12.18-11.21-29.81-18.46-45.08-18.57-5.13,0-5.45-.21-8.34-4.8-6.08-9.61-13.56-25.94-17.94-39.17-2.56-7.47-4.27-13.87-4-14.19,1.49-1.6,7.15,1.38,12.07,6.29,5.55,5.55,8,11,8,17.61a8.55,8.55,0,1,0,17.09,0c0-13,12.5-25.5,25.53-25.5a8.54,8.54,0,1,0,0-17.08c-13,0-25.53-12.49-25.53-25.51a8.55,8.55,0,1,0-17.09,0c0,6.62-2.46,12.06-8,17.51-5.77,5.87-13.57,9.28-15.92,6.93-1.71-1.7-1.6-42.15.21-52.29,6.41-35.65,19.77-65.53,40.92-91.35,6.09-7.47,27.13-28.18,28.63-28.18.53,0,0,2.56-1.07,5.66-11.43,33.72-13.46,72-5.88,108,3.74,17.29,8.23,29.88,17.31,48,29.59,59.45,83.85,99.47,150.51,111,29.27,5,66.33,2.25,95.71-7.36,4.06-1.28,7.37-2,7.37-1.6C403.25,373.94,382.53,395,375.05,401.05ZM94.11,290.17l3.63-3.74c2-2,4-3.73,4.27-3.73s2.25,1.71,4.28,3.73l3.63,3.74-4,4.05-4,3.95-4-3.95Z" fill="#677882"/><path d="M179,187.72c13,0,25.53,12.48,25.53,25.5a8.55,8.55,0,1,0,17.09,0c0-13,12.5-25.5,25.54-25.5a8.54,8.54,0,1,0,0-17.08c-13,0-25.54-12.49-25.54-25.51a9,9,0,0,0-8.54-8.64,8.35,8.35,0,0,0-5.88,2.67,8.16,8.16,0,0,0-2.67,6c0,13-12.49,25.51-25.53,25.51a8.54,8.54,0,1,0,0,17.08Zm29.81-12.28c2-2,3.95-3.73,4.27-3.73s2.24,1.71,4.27,3.73l3.63,3.74-3.95,4-3.95,4-4-4-4-4Z" fill="#677882"/><path d="M298.67,204.79c13,0,25.53,12.49,25.53,25.51a8.55,8.55,0,1,0,17.09,0c0-13,12.5-25.51,25.54-25.51a8.54,8.54,0,1,0,0-17.07c-13,0-25.54-12.49-25.54-25.51a9,9,0,0,0-8.54-8.65,8.39,8.39,0,0,0-5.88,2.67,8.19,8.19,0,0,0-2.67,6c0,13-12.49,25.51-25.53,25.51a8.54,8.54,0,1,0,0,17.07Zm29.81-12.27c2-2,3.95-3.74,4.27-3.74s2.24,1.71,4.27,3.74l3.63,3.73-3.95,4.06-3.95,3.95-3.95-3.95-4-4.06Z" fill="#677882"/><path d="M443.84,180.57c-5.23,1.7-14.2,10.88-15.81,16.32-3,10-.85,18,6.73,25.51,10.9,11,26,10.78,36.11-.53,9.61-10.68,9.61-23.48,0-34.15C463.93,180,454,177.36,443.84,180.57Zm14.42,30.09a7.79,7.79,0,1,1,2.67-5.87A8.31,8.31,0,0,1,458.26,210.66Z" fill="#677882"/><path d="M298.67,315.78c13,0,25.53,12.49,25.53,25.51a8.55,8.55,0,1,0,17.09,0c0-13,12.5-25.51,25.54-25.51a8.54,8.54,0,1,0,0-17.07c-13,0-25.54-12.49-25.54-25.51a9,9,0,0,0-8.54-8.64,8.38,8.38,0,0,0-5.88,2.66,8.19,8.19,0,0,0-2.67,6c0,13-12.49,25.51-25.53,25.51a8.54,8.54,0,1,0,0,17.07Zm29.81-12.27c2-2,3.95-3.74,4.27-3.74s2.24,1.71,4.27,3.74l3.63,3.73-3.95,4.06-3.95,3.95-3.95-3.95-4-4.06Z" fill="#677882"/><path d="M435.3,419.62c-5.24,1.71-14.21,10.89-15.81,16.33-3,10-.86,18,6.73,25.51,10.89,11,26,10.77,36.1-.54,9.62-10.67,9.62-23.48,0-34.15C455.38,419.09,445.45,416.42,435.3,419.62Zm8.54,32.76a8.54,8.54,0,1,1,0-17.07,8.33,8.33,0,0,1,5.88,2.67A8.42,8.42,0,0,1,443.84,452.38Z" fill="#677882"/></svg>