<svg id="Layer_1" data-name="Layer 1" xmlns="http://www.w3.org/2000/svg" width="513.79" height="355.9" viewBox="0 0 513.79 355.9"><rect x="6.9" y="6.9" width="500" height="342.11" rx="30.7" fill="#fff" stroke="#f3f3f3" stroke-miterlimit="55.17" stroke-width="13.79"/><path d="M287.92,191.46h-8.49a1.61,1.61,0,0,1-1.5-1.6v-44.6a1.61,1.61,0,0,1,1.63-1.46h7.9A1.61,1.61,0,0,1,289,145v6.82h.16c2.39-6.09,5.73-9,11.61-9a11.15,11.15,0,0,1,9.94,5.25c2.22,3.57,2.22,9.58,2.22,13.89v28.06a1.64,1.64,0,0,1-1.63,1.4H302.7a1.61,1.61,0,0,1-1.5-1.4V164.67c0-4.77.1-10.84-5.33-10.84a5.6,5.6,0,0,0-4.93,3.57,20.24,20.24,0,0,0-1.35,8.46v24a1.66,1.66,0,0,1-1.66,1.6Zm-36-48.54c12.65,0,19.48,11.07,19.48,25.14,0,13.61-7.53,24.39-19.48,24.39-12.4,0-19.15-11.07-19.15-24.85S239.65,142.92,252,142.92Zm.09,9.11c-6.28,0-6.68,8.72-6.68,14.16v.18c0,5.52,0,16.89,6.59,16.89s6.92-9.38,6.92-15.1c0-3.75-.15-8.26-1.27-11.82C256.65,153.26,254.75,152,252.05,152ZM94.6,191.55H86.09a1.62,1.62,0,0,1-1.51-1.47v-44.6a1.63,1.63,0,0,1,1.63-1.59h7.94a1.63,1.63,0,0,1,1.51,1.54v5.82h.15c2.07-5.64,6-8.26,11.21-8.26s8.67,2.62,11,8.26a12.64,12.64,0,0,1,9.85-8.17,12.46,12.46,0,0,1,11.81,4.75c2.32,3.21,2.24,7.68,2.17,11.88h0c0,.71,0,1.41,0,2.1v28.13a1.68,1.68,0,0,1-.49,1.15,1.62,1.62,0,0,1-1.15.46h-8.51a1.62,1.62,0,0,1-1.51-1.6V166.31c0-.36,0-.82,0-1.34h0a43.26,43.26,0,0,0-.25-7c-.64-3-2.54-3.84-5-3.84a5.65,5.65,0,0,0-5.09,3.65c-.81,2.1-.8,5.48-.8,8v24.19a1.61,1.61,0,0,1-.49,1.15,1.58,1.58,0,0,1-1.14.46h-8.53a1.62,1.62,0,0,1-1.51-1.6V166.31c0-.48,0-1,0-1.51h0c.07-4.82.15-10.79-5.29-10.79-5.89,0-5.88,6.8-5.88,11.93v24a1.64,1.64,0,0,1-.49,1.15,1.6,1.6,0,0,1-1.15.46Zm-25.33.54a1.74,1.74,0,0,0,2-.2h.07c1.69-1.54,4.78-4.28,6.52-5.77a1.67,1.67,0,0,0,0-2.3c-.16-.24-.33-.46-.49-.69h0a11,11,0,0,1-2.72-7.36V161h0c0-5.22,0-10-3.77-13.65-3.26-3.2-8.67-4.32-12.82-4.32-8.1,0-17.15,3.08-19,13.29a1.54,1.54,0,0,0,.25,1.18,1.5,1.5,0,0,0,1,.64l8.18.91A1.81,1.81,0,0,0,50,157.4c.71-3.51,3.6-5.21,6.85-5.21a5.62,5.62,0,0,1,4.78,2.25c1.07,1.61,1.05,3.74,1,5.65,0,.22,0,.44,0,.66v1.12l-2.42.26c-4.49.47-9.69,1-13.59,2.75a14.83,14.83,0,0,0-9,14.2c0,9,5.58,13.54,12.75,13.54,6,0,9.36-1.46,14-6.32l.62.94h0A18.3,18.3,0,0,0,69.27,192.09Zm-6.58-21v-2.29c-6.16,0-12.66,1.35-12.66,8.74,0,3.77,1.91,6.31,5.17,6.31a6.91,6.91,0,0,0,5.9-3.95C62.7,177,62.7,174.33,62.69,171.13ZM189.48,183.8c-.16-.24-.33-.46-.5-.69-1.39-1.91-2.72-3.72-2.72-7.36V162.22c0-.46,0-.92,0-1.38h0c0-5.2,0-9.94-3.78-13.57-3.26-3.2-8.67-4.32-12.81-4.32-8.1,0-17.15,3.07-19.05,13.29a1.56,1.56,0,0,0,.25,1.19,1.49,1.49,0,0,0,1,.63l8.25.91a1.83,1.83,0,0,0,1.51-1.6c.71-3.51,3.59-5.21,6.84-5.21a5.6,5.6,0,0,1,4.78,2.26c1.07,1.6,1.06,3.73,1,5.64v1.75l-2.37.26c-4.51.46-9.74,1-13.64,2.75a14.75,14.75,0,0,0-9.08,14.2c0,9,5.57,13.53,12.74,13.53,6,0,9.37-1.45,14-6.31l.61.92h0A18.28,18.28,0,0,0,180.9,192a1.75,1.75,0,0,0,2-.2c1.69-1.54,4.78-4.28,6.52-5.77C190.18,185.53,190.05,184.6,189.48,183.8Zm-16.73-3.9a6.91,6.91,0,0,1-5.9,3.94c-3.26,0-5.17-2.53-5.17-6.29,0-7.41,6.51-8.75,12.67-8.75V171C174.35,174.26,174.35,177,172.75,179.9Zm23.94-28.22v-6.35a1.54,1.54,0,0,1,.44-1.16,1.51,1.51,0,0,1,1.15-.45h28a1.57,1.57,0,0,1,1.14.45,1.63,1.63,0,0,1,.47,1.16v5.47c0,.91-.75,2.11-2.1,4l-14.51,21.12c5.39-.13,11.08.69,16,3.49a2.94,2.94,0,0,1,1.51,2.49v6.83c0,.93-1,2-2.07,1.46a31.66,31.66,0,0,0-29.57.05c-1,.53-2-.54-2-1.48v-6.49a7.8,7.8,0,0,1,1-4.38l16.8-24.6H198.31a1.57,1.57,0,0,1-1.62-1.61Zm147.93-2.29a25.07,25.07,0,0,1,7.23-4.55,20.81,20.81,0,0,1,7.86-1.54,18,18,0,0,1,7.77,1.6,15.92,15.92,0,0,1,5.88,4.74,22,22,0,0,1,3.71,7.56,35.53,35.53,0,0,1,1.3,10A35.11,35.11,0,0,1,377,177.39a23.2,23.2,0,0,1-3.88,7.74,17,17,0,0,1-14,6.67,19.66,19.66,0,0,1-13.83-5.38v21.34a1.65,1.65,0,0,1-.45,1.37,1.56,1.56,0,0,1-1.34.46h-5.28a1.56,1.56,0,0,1-1.34-.46,1.61,1.61,0,0,1-.44-1.37V146.48a1.63,1.63,0,0,1,.44-1.37,1.57,1.57,0,0,1,1.34-.46h3.93a1.87,1.87,0,0,1,1.41.46,2,2,0,0,1,.65,1.37Zm12.59,1.18a19.72,19.72,0,0,0-12,4.19v25.38A19.08,19.08,0,0,0,357,184.51q12.32,0,12.32-16.91t-12.14-17Zm32.31,2.25.67-.23a44.89,44.89,0,0,1,13.1-2.08q5.35,0,7.5,2t2.14,6.92v6a47.42,47.42,0,0,0-11.24-1.54q-7.86,0-12.5,4a14.62,14.62,0,0,0-.88,20.49q3.75,3.69,10.18,3.69a20.63,20.63,0,0,0,7.72-1.53,24.3,24.3,0,0,0,7.1-4.37l.45,3a1.85,1.85,0,0,0,.62,1.3,1.73,1.73,0,0,0,1.34.43h3.84a1.55,1.55,0,0,0,1.34-.45,1.65,1.65,0,0,0,.45-1.37V157.92c0-5-1.35-8.65-4-11s-6.85-3.55-12.5-3.55a46.27,46.27,0,0,0-8.39.77,31.53,31.53,0,0,0-7.05,2,3.3,3.3,0,0,0-1.42,1,3.12,3.12,0,0,0-.37,1.77v2.44c0,1.1.41,1.65,1.16,1.65A2.43,2.43,0,0,0,389.52,152.82ZM406.8,184a17.86,17.86,0,0,1-6.16,1.17A6.52,6.52,0,0,1,393.4,178q0-7.92,10.09-7.92a36.43,36.43,0,0,1,4.78.32,43.75,43.75,0,0,1,4.68.86v9.3A23.32,23.32,0,0,1,406.8,184Zm38,23.91q3.17-2.74,5.58-9l19.65-51a7.23,7.23,0,0,0,.62-2.19c0-.73-.41-1.09-1.25-1.09h-5a3.15,3.15,0,0,0-2,.45,4.89,4.89,0,0,0-1.07,2l-12.06,35.33-12.5-35.33a4.89,4.89,0,0,0-1.07-2,3.15,3.15,0,0,0-2-.45h-5.36c-.83,0-1.25.36-1.25,1.09a7.23,7.23,0,0,0,.62,2.19L445,191.3l-1.69,4.61q-1.51,4.38-3.39,6a7.77,7.77,0,0,1-5.28,1.63,12.17,12.17,0,0,1-2.41-.18,7.57,7.57,0,0,0-1.34-.18c-.89,0-1.34.58-1.34,1.73v2.37a3.11,3.11,0,0,0,.45,1.86,2.58,2.58,0,0,0,1.43.87,18.6,18.6,0,0,0,5.09.64A12.26,12.26,0,0,0,444.82,207.94Z" fill="#232f3e" fill-rule="evenodd"/><path d="M210.69,219.9c1.93-4.91,6.25-15.92,4.2-18.59h0c-2-2.67-13.5-1.27-18.65-.64h0c-1.57.2-1.81-1.2-.4-2.2,9.15-6.56,24.14-4.69,25.88-2.47s-.47,17.54-9,24.86C211.36,222,210.1,221.39,210.69,219.9Zm-61.58,7.58c19.93,0,43.14-6.42,59.13-18.45v0c2.64-2,.37-5-2.33-3.84a141.27,141.27,0,0,1-55.12,11.53,143.17,143.17,0,0,1-72.26-19.55c-1.8-1.07-3.14.82-1.64,2.19A105.8,105.8,0,0,0,149.11,227.48Z" fill="#f90" fill-rule="evenodd"/></svg>