<svg id="Layer_1" data-name="Layer 1" xmlns="http://www.w3.org/2000/svg" width="500" height="300" viewBox="0 0 500 300"><g id="Rounded"><g id="Large"><g id="large_american-express" data-name="large/american-express"><rect id="Background" width="500" height="300" rx="20" fill="#13a8e0"/><g id="Logo"><g id="amex"><path id="Shape" d="M46,107.58,36.45,83.43l-9.53,24.15ZM257.14,98c-1.92,1.21-4.2,1.25-6.92,1.25h-17V85.76h17.24c2.44,0,5,.11,6.64,1.09A5.58,5.58,0,0,1,260,92.2C260,94.85,259,97,257.14,98Zm121.34,9.62-9.69-24.15-9.63,24.15ZM152.3,133.71H138l-.06-47.44-20.3,47.44H105.3L84.94,86.23v47.48H56.46L51.08,120.2H21.93L16.5,133.71H1.29L26.36,73.14H47.17L71,130.49V73.14H93.83l18.32,41.09L129,73.14H152.3v60.57Zm57.21,0H162.73V73.14h46.78V85.76H176.73V96.67h32v12.42h-32v12.1h32.78v12.52Zm65.94-44.25c0,9.65-6.23,14.64-9.86,16.14a16.31,16.31,0,0,1,6.92,5.1c2,3,2.32,5.7,2.32,11.11v11.9H260.71l0-7.64c0-3.64.33-8.88-2.21-11.8-2.05-2.13-5.17-2.59-10.21-2.59h-15v22h-14V73.14h32.2c7.16,0,12.43.2,17,2.9S275.45,82.7,275.45,89.46Zm22.41,44.25H283.57V73.14h14.29Zm165.74,0H443.76L417.22,88.25v45.46H388.7l-5.45-13.51H354.17l-5.29,13.51H332.5c-6.81,0-15.42-1.55-20.3-6.7s-7.48-12.11-7.48-23.12c0-9,1.53-17.19,7.55-23.68,4.52-4.84,11.61-7.07,21.26-7.07h13.55v13H333.81c-5.11,0-8,.79-10.77,3.59-2.39,2.55-4,7.37-4,13.72s1.25,11.17,3.85,14.22c2.16,2.4,6.08,3.13,9.76,3.13h6.29l19.73-47.64h21l23.71,57.3V73.14h21.31l24.62,42.19V73.14H463.6ZM1.13,145.61H25.05l5.4-13.45H42.52l5.38,13.45H95V135.32l4.2,10.33h24.44l4.2-10.48v10.44h117l-.05-22.08H247c1.59,0,2,.2,2,2.91v19.17h60.5v-5.14c4.88,2.7,12.47,5.14,22.46,5.14h25.45l5.45-13.45H375l5.33,13.45h49.05V132.83l7.42,12.78h39.31V61.13h-38.9v10l-5.45-10H391.82v10l-5-10H332.9c-9,0-16.95,1.31-23.36,4.94V61.13H272.33v4.94c-4.07-3.75-9.63-4.94-15.81-4.94H120.6L111.48,83l-9.37-21.82H59.3v10l-4.7-10H18.08L1.13,101.3v44.31Z" fill="#fff"/><path id="Shape-2" data-name="Shape" d="M499.27,190.29H473.75c-2.55,0-4.24.1-5.67,1.09a4.76,4.76,0,0,0-2,4.36,4.55,4.55,0,0,0,3.06,4.51,15.44,15.44,0,0,0,5.39.69l7.59.21c7.66.2,12.77,1.56,15.89,4.88a8.22,8.22,0,0,1,1.3,1.5Zm0,39.94c-3.41,5.14-10,7.75-19,7.75h-27V225h26.93c2.67,0,4.54-.37,5.66-1.5a5.4,5.4,0,0,0,1.66-4,5,5,0,0,0-1.71-4c-1-.92-2.5-1.35-4.94-1.35-13.14-.46-29.54.43-29.54-18.75,0-8.78,5.39-18,20.08-18h27.9V165.34H473.35c-7.82,0-13.5,1.94-17.52,4.95v-4.95H417.5c-6.13,0-13.32,1.57-16.72,4.95v-4.95H332.33v4.95c-5.44-4.06-14.63-4.95-18.88-4.95H268.31v4.95c-4.31-4.32-13.89-4.95-19.73-4.95H198.05l-11.56,12.94-10.83-12.94H100.19v84.54h74.05l11.91-13.15,11.23,13.15,45.64,0V230h4.49c6.06.1,13.2-.15,19.5-3v22.82h37.65v-22h1.82c2.32,0,2.54.1,2.54,2.5v19.53H423.4c7.26,0,14.85-1.92,19.05-5.41v5.41h36.28c7.55,0,14.93-1.09,20.54-3.89ZM443.42,206c2.72,2.91,4.18,6.6,4.18,12.83,0,13-7.87,19.12-22,19.12H398.34V225H425.5c2.65,0,4.54-.37,5.72-1.5a5.47,5.47,0,0,0,1.65-4,5.28,5.28,0,0,0-1.71-4c-1.07-.92-2.55-1.35-5-1.35-13.1-.46-29.49.43-29.49-18.75,0-8.78,5.33-18,20-18h28.07v12.89H419.09c-2.55,0-4.2.1-5.61,1.1a5.16,5.16,0,0,0,1,8.87,15.66,15.66,0,0,0,5.45.68l7.54.21C435,201.35,440.24,202.7,443.42,206Zm-126.34-3.75c-1.88,1.15-4.19,1.25-6.92,1.25h-17v-13.6h17.24c2.5,0,5,0,6.69,1.09a5.82,5.82,0,0,1,2.9,5.45A6.6,6.6,0,0,1,317.08,202.28Zm8.45,7.54a15.27,15.27,0,0,1,6.86,5.09c2,3,2.26,5.72,2.32,11.06v12H320.65V230.4c0-3.65.34-9-2.26-11.86-2.05-2.17-5.16-2.69-10.27-2.69h-15V238H279.09V177.39h32.32c7.09,0,12.25.33,16.85,2.86,4.42,2.76,7.2,6.55,7.2,13.46C335.45,203.38,329.22,208.31,325.53,209.82Zm17.69-32.43H390v12.53H357.16v11h32V213.3h-32v12l32.79.06V238H343.22V177.39Zm-94.47,28H230.66V189.93h18.26c5.05,0,8.56,2.13,8.56,7.42S254.13,205.35,248.75,205.35Zm-32,27.12-21.5-24.68,21.5-23.89Zm-55.52-7.12H126.78v-12h30.74V200.94H126.78v-11h35.1l15.31,17.66Zm111.31-28c0,16.83-12.14,20.31-24.38,20.31H230.66V238H203.45l-17.24-20.06L168.29,238H112.83V177.39h56.31l17.23,19.86,17.81-19.86h44.74C260,177.39,272.51,180.58,272.51,197.35Z" fill="#fff"/></g></g></g></g></g></svg>