<svg id="Layer_1" data-name="Layer 1" xmlns="http://www.w3.org/2000/svg" width="500" height="109.3" viewBox="0 0 500 109.3"><path d="M83.16,61.9,65.35,18.49,47.64,61.9Zm170.86,47-.1-85.28-37.74,85.28H193.33L155.49,23.53v85.36H102.56l-10-24.29H38.37l-10.1,24.29H0L46.61,0H85.27l44.27,103.09V0H172l34.06,73.87L237.37,0H280.7V108.89Zm68.1-22.29V64.94h57.14V42.71H322.12V22.91h65.25l28.47,31.74L386.11,86.6Zm176.34,22.7H464.64l-32.05-36-33.3,36.05H296.2V.39H400.87l32,35.7L466,.39h34L449.42,54.85Z" fill="#002663" fill-rule="evenodd"/></svg>