<svg id="Layer_1" data-name="Layer 1" xmlns="http://www.w3.org/2000/svg" width="500" height="359.39" viewBox="0 0 500 359.39"><path d="M31.25,0h437.5A31.26,31.26,0,0,1,500,31.26V328.14a31.26,31.26,0,0,1-31.25,31.25H31.25A31.25,31.25,0,0,1,0,328.14V31.26A31.26,31.26,0,0,1,31.25,0Z" fill="#26a6d1"/><path d="M80.63,125,31.25,234.27H90.36l7.33-17.43h16.75l7.32,17.43h65.07V221l5.79,13.3h33.66l5.8-13.58v13.58H367.39l16.45-17,15.41,17,69.5.14-49.53-54.47L468.75,125H400.33l-16,16.66L369.39,125H222.19l-12.64,28.2L196.61,125h-59v12.84L131.06,125Zm11.43,15.52h28.82l32.75,74.09V140.52h31.56l25.3,53.12,23.31-53.12h31.4v78.4H246.09l-.15-61.44-27.86,61.44H201l-28-61.44v61.44H133.66l-7.46-17.58H85.94L78.5,218.91H57.44Zm190.63,0h77.7l23.77,25.67,24.53-25.67h23.76l-36.11,39.4,36.11,39H407.61l-23.77-26-24.65,26h-76.5V140.52ZM106.08,153.78,92.81,185.09h26.52Zm195.8,3v14.31h42.39v16H301.88v15.62h47.54l22.1-23-21.16-22.89H301.88Z" fill="#fff"/></svg>