<svg id="Layer_1" data-name="Layer 1" xmlns="http://www.w3.org/2000/svg" width="511.43" height="352.01" viewBox="0 0 511.43 352.01"><rect x="5.71" y="5.71" width="500" height="340.58" rx="39.86" fill="#fff" stroke="#d9d9d9" stroke-miterlimit="45.71" stroke-width="11.43"/><path d="M140.93,123c-4.25,5.1-11.07,9.12-17.88,8.54-.85-6.89,2.48-14.22,6.39-18.74,4.25-5.25,11.71-9,17.74-9.27C147.89,110.72,145.12,117.76,140.93,123Zm6.18,9.91c-6-.35-11.48,1.83-15.91,3.58-2.84,1.14-5.25,2.09-7.09,2.09-2,0-4.56-1-7.38-2.14h0c-3.69-1.48-7.92-3.18-12.34-3.1a29.09,29.09,0,0,0-24.77,15.23c-10.64,18.53-2.77,46,7.52,61,5,7.47,11.07,15.66,19,15.38a22.72,22.72,0,0,0,8.62-2.34,25.31,25.31,0,0,1,11-2.62,23.76,23.76,0,0,1,10.52,2.55c2.72,1.19,5.33,2.33,9.2,2.26,8.23-.14,13.42-7.47,18.45-14.94a65.85,65.85,0,0,0,8.19-17l0-.14-.19-.09c-1.82-.84-15.71-7.28-15.84-24.54-.14-14.49,11-21.84,12.77-23l.21-.14C162,134.36,150.94,133.21,147.11,132.92Zm57,91.15v-112H245.6C267,112.09,282,127,282,148.87s-15.25,36.92-37,36.92H221.26v38.28Zm17.17-97.33h19.8c14.9,0,23.41,8,23.41,22.2S256,171.2,241,171.2H221.26Zm117.44,83.9c-4.54,8.76-14.55,14.29-25.33,14.29-16,0-27.11-9.62-27.11-24.13S297.05,178.17,317,177l21.43-1.29v-6.18c0-9.12-5.89-14.08-16.4-14.08-8.65,0-15,4.53-16.25,11.42H290.3c.5-14.51,14-25.07,32.22-25.07,19.66,0,32.43,10.42,32.43,26.58v55.74h-15.9V210.64Zm-20.72,1c-9.16,0-15-4.46-15-11.28,0-7,5.6-11.14,16.32-11.78l19.09-1.22v6.32C338.42,204.18,329.62,211.65,318,211.65Zm89.69,16.8c-6.88,19.61-14.76,26.08-31.5,26.08a47.84,47.84,0,0,1-6.53-.43V240.67c1.06.14,3.69.28,5,.28,7.59,0,11.85-3.23,14.47-11.63l1.56-5-29.09-81.53h17.95L399.8,209h.35l20.22-66.16h17.46Z" fill-rule="evenodd"/></svg>