<svg id="Layer_1" data-name="Layer 1" xmlns="http://www.w3.org/2000/svg" width="511.43" height="352.01" viewBox="0 0 511.43 352.01"><rect x="5.71" y="5.71" width="500" height="340.58" rx="39.86" fill="#fff" stroke="#d9d9d9" stroke-miterlimit="45.71" stroke-width="11.43"/><path d="M241.66,230.47V186.69h22.59a32.61,32.61,0,0,0,23.45-9.23l1.53-1.55a31.51,31.51,0,0,0-1.53-44.12,32.25,32.25,0,0,0-23.45-9.4H228V230.47Zm0-57.06V135.67H264.6A18.48,18.48,0,0,1,277.68,141a19.19,19.19,0,0,1,.43,26.8,17.71,17.71,0,0,1-13.51,5.6ZM353,162.3c-5.86-5.43-13.85-8.19-24-8.19-13,0-22.76,4.82-29.22,14.39l12.06,7.67q6.63-9.82,18.1-9.82a19.72,19.72,0,0,1,13.16,5.08,16.31,16.31,0,0,1,5.61,12.33v3.18c-5.27-2.92-11.89-4.48-20-4.48-9.51,0-17.16,2.24-22.85,6.81s-8.58,10.6-8.58,18.27a23,23,0,0,0,8.07,18.1c5.35,4.83,12.15,7.24,20.13,7.24,9.43,0,16.91-4.22,22.6-12.67h.6v10.26h13.08V184.88C361.78,175.31,358.89,167.73,353,162.3Zm-37.12,54.55a11.23,11.23,0,0,1-4.51-9c0-4.05,1.87-7.41,5.53-10.08a23.44,23.44,0,0,1,13.93-4.05c7.65-.09,13.59,1.63,17.84,5.08A20.49,20.49,0,0,1,341.91,214a21.61,21.61,0,0,1-15.38,6.46A16.54,16.54,0,0,1,315.91,216.85ZM391.17,263l45.7-106.44H422l-21.15,53.09h-.26l-21.66-53.09H364.07l30,69.21-17,37.23Z" fill="#3c4043" fill-rule="evenodd"/><path d="M194.44,177.21a77.76,77.76,0,0,0-1-12.59H135.74V188.5h33a28.71,28.71,0,0,1-12.23,18.87v15.51h19.71C187.81,212.11,194.44,196.17,194.44,177.21Z" fill="#4285f4"/><path d="M135.74,237.88c16.49,0,30.42-5.51,40.53-15l-19.71-15.51c-5.52,3.79-12.57,5.95-20.82,5.95-16,0-29.47-10.95-34.31-25.6H81.12v16A61,61,0,0,0,135.74,237.88Z" fill="#34a853"/><path d="M101.42,187.72a38.09,38.09,0,0,1,0-23.79V148H81.12a62.33,62.33,0,0,0,0,55.68Z" fill="#fbbc04"/><path d="M135.74,138.34a32.68,32.68,0,0,1,23.45,9.3l17.5-17.75a58.61,58.61,0,0,0-40.95-16.12A61.11,61.11,0,0,0,81.12,148l20.31,16C106.27,149.28,119.77,138.34,135.74,138.34Z" fill="#ea4335"/></svg>