<svg id="Layer_1" data-name="Layer 1" xmlns="http://www.w3.org/2000/svg" width="500" height="300" viewBox="0 0 500 300"><g id="Rounded"><g id="Large"><g id="large_mastercard" data-name="large/mastercard"><rect id="Background" width="500" height="300" rx="20" fill="#10427a"/><g id="Logo"><g id="mastercard"><rect id="Rectangle-path" x="221.11" y="66.99" width="67.53" height="124.88" fill="#ff5f00"/><path id="Shape" d="M225.4,129.43A80.5,80.5,0,0,1,254.77,67a75.36,75.36,0,0,0-47.59-17C164.52,50,130,85.52,130,129.43s34.52,79.42,77.18,79.42a75.36,75.36,0,0,0,47.59-17A80.16,80.16,0,0,1,225.4,129.43Z" fill="#eb001b"/><path id="Shape-2" data-name="Shape" d="M379.75,129.43c0,43.9-34.51,79.42-77.17,79.42a75.37,75.37,0,0,1-47.6-17A81,81,0,0,0,255,67a75.37,75.37,0,0,1,47.6-17C345.24,50,379.75,85.74,379.75,129.43Z" fill="#f79e1b"/></g><path id="Shape-3" data-name="Shape" d="M166.43,259.56V246.32c0-5.07-3.33-8.38-9.05-8.38a9.65,9.65,0,0,0-8.09,3.75,8.51,8.51,0,0,0-7.62-3.75A7.91,7.91,0,0,0,135,241v-2.65h-5v21.18h5V247.87c0-3.75,2.14-5.52,5.48-5.52s5,2,5,5.52v11.69h5V247.87c0-3.75,2.38-5.52,5.47-5.52,3.34,0,5,2,5,5.52v11.69Zm74-21.18h-8.1V232h-5v6.39h-4.52v4.19h4.52v9.71c0,4.85,2.14,7.72,7.86,7.72a14.19,14.19,0,0,0,6.19-1.54l-1.43-4a8.35,8.35,0,0,1-4.29,1.1c-2.38,0-3.33-1.33-3.33-3.53v-9.49h8.1v-4.19Zm42.38-.44a6.84,6.84,0,0,0-6,3.09v-2.65h-5v21.18h5V247.65c0-3.53,1.67-5.52,4.77-5.52a15,15,0,0,1,3.09.44l1.43-4.41a17,17,0,0,0-3.33-.22Zm-64.05,2.21c-2.38-1.55-5.71-2.21-9.29-2.21-5.71,0-9.52,2.65-9.52,6.84,0,3.53,2.86,5.51,7.86,6.18l2.38.22c2.62.44,4,1.1,4,2.2,0,1.55-1.91,2.65-5.24,2.65a13.79,13.79,0,0,1-7.62-2.21l-2.38,3.53a17.77,17.77,0,0,0,9.76,2.65c6.67,0,10.48-2.87,10.48-6.84,0-3.75-3.1-5.73-7.86-6.4l-2.38-.22c-2.15-.22-3.81-.66-3.81-2,0-1.55,1.66-2.43,4.28-2.43a18.28,18.28,0,0,1,7.15,1.77l2.14-3.75Zm132.86-2.21a6.83,6.83,0,0,0-6,3.09v-2.65h-5v21.18h5V247.65c0-3.53,1.67-5.52,4.77-5.52a15,15,0,0,1,3.09.44l1.43-4.41a17,17,0,0,0-3.33-.22Zm-63.81,11c0,6.4,4.76,11,12.14,11a12.48,12.48,0,0,0,8.1-2.43l-2.39-3.75a10.06,10.06,0,0,1-5.95,2,6.49,6.49,0,0,1-6.9-6.84c0-4,2.85-6.62,6.9-6.84a10.06,10.06,0,0,1,5.95,2l2.39-3.75a12.48,12.48,0,0,0-8.1-2.43c-7.38,0-12.14,4.63-12.14,11Zm46.19,0V238.38h-5V241a8.88,8.88,0,0,0-7.15-3.09c-6.42,0-11.42,4.63-11.42,11s5,11,11.42,11c3.34,0,5.72-1.1,7.15-3.09v2.65h5Zm-18.34,0a6.91,6.91,0,0,1,13.81,0,6.74,6.74,0,0,1-6.9,6.84c-4.29-.22-6.91-3.09-6.91-6.84Zm-59.76-11c-6.66,0-11.43,4.41-11.43,11s4.77,11,11.67,11a15.32,15.32,0,0,0,9.29-2.87l-2.38-3.31a11.93,11.93,0,0,1-6.67,2.21c-3.1,0-6.19-1.32-6.91-5.07h16.91v-1.77c.24-6.84-4.05-11.25-10.48-11.25Zm0,4c3.1,0,5.24,1.77,5.72,5.08H249.76a5.89,5.89,0,0,1,6.19-5.08ZM380,249V230h-5v11a8.87,8.87,0,0,0-7.14-3.09c-6.43,0-11.43,4.63-11.43,11s5,11,11.43,11c3.33,0,5.71-1.1,7.14-3.09v2.65h5Zm-18.33,0a6.91,6.91,0,0,1,13.81,0,6.75,6.75,0,0,1-6.91,6.84c-4.28-.22-6.9-3.09-6.9-6.84Zm-167.15,0V238.38h-5V241a8.84,8.84,0,0,0-7.14-3.09c-6.43,0-11.43,4.63-11.43,11s5,11,11.43,11c3.33,0,5.72-1.1,7.14-3.09v2.65h5ZM176,249a6.91,6.91,0,0,1,13.81,0,6.74,6.74,0,0,1-6.9,6.84C178.57,255.59,176,252.72,176,249Z" fill="#fff"/></g></g></g></g></svg>