<svg id="Layer_1" data-name="Layer 1" xmlns="http://www.w3.org/2000/svg" width="500" height="301.04" viewBox="0 0 500 301.04"><path d="M250.13,262a147.7,147.7,0,0,0,100.26,39C433.07,301,500,233.6,500,150.65,500,67.45,433.07,0,350.39,0A147.7,147.7,0,0,0,250.13,39a150.61,150.61,0,0,0,0,223Z" fill="#e9b040" fill-rule="evenodd"/><path d="M480.11,234.37a4.63,4.63,0,0,1,4.65-4.65,4.7,4.7,0,0,1,4.91,4.65,4.75,4.75,0,0,1-4.91,4.91A4.69,4.69,0,0,1,480.11,234.37Zm4.65,3.88a4,4,0,0,0,3.87-3.88,3.75,3.75,0,0,0-3.87-3.61,3.7,3.7,0,0,0-3.62,3.61A3.94,3.94,0,0,0,484.76,238.25Zm-.52-1.55h-1v-4.4H485a1.49,1.49,0,0,1,1,.27c.52.25.52.51.52,1s-.26,1-.78,1l1,2.07h-1.3l-.51-1.81h-.78v-.78h1c.25,0,.25-.26.25-.51s0-.26-.25-.52h-1Z" fill="#e9b040" fill-rule="evenodd"/><path d="M298.45,134.63c-.52-5.43-1.55-10.59-2.58-16H204.39a158.34,158.34,0,0,1,4.14-15.76h82.94q-2.7-8.16-6.2-16H215q3.87-8.2,8.53-16h53A136.39,136.39,0,0,0,265.12,55H234.89a147.89,147.89,0,0,1,15.24-16A149.6,149.6,0,0,0,149.61,0C67.18,0,0,67.45,0,150.65,0,233.6,67.18,301,149.61,301a148.35,148.35,0,0,0,100.52-39,143.21,143.21,0,0,0,15-15.77H234.89a174.22,174.22,0,0,1-11.37-16h53a120.29,120.29,0,0,0,8.79-16H215a165.82,165.82,0,0,1-6.46-15.76h82.94a153.17,153.17,0,0,0,7-32c.52-5.23.78-10.5.78-15.76,0-5.42-.26-10.84-.78-16Z" fill="#cc2131" fill-rule="evenodd"/><path d="M480.11,185.53a4.69,4.69,0,0,1,4.65-4.9,4.75,4.75,0,0,1,4.91,4.9,4.78,4.78,0,1,1-9.56,0Zm4.65,3.62a3.62,3.62,0,1,0,0-7.23,3.62,3.62,0,1,0,0,7.23Zm-.52-1.55h-1v-4.13h2.84c.52.26.52.77.52,1.29a1.41,1.41,0,0,1-.78,1l1,1.8h-1.3l-.51-1.55h-.78v-.78h.52c.26,0,.52,0,.52-.26.25,0,.25-.25.25-.51a.25.25,0,0,0-.25-.26c0-.26-.26,0-.52,0h-.52Z" fill="#fff" fill-rule="evenodd"/><path d="M199.23,194.06c-4.91,1.29-8.53,2.07-12.15,2.07-7.75,0-12.4-4.91-12.4-13.7a46,46,0,0,1,.51-5.68l1-5.94.77-4.91,7-42.38h15.5l-1.81,9.3h9.82l-2.32,15.51h-9.82l-4.14,25.32a12.24,12.24,0,0,0-.25,2.58c0,3.36,1.55,4.65,5.42,4.65a28.47,28.47,0,0,0,4.91-.51l-2.06,13.69Zm50.13-.52a60.49,60.49,0,0,1-16.54,2.33c-17.57,0-27.65-9.31-27.65-27.65,0-21.45,11.89-36.95,28.42-36.95,13.18,0,21.71,8.78,21.71,22.48A71.37,71.37,0,0,1,253.49,169h-32.3a7.2,7.2,0,0,0-.26,2.06c0,7.24,4.91,10.85,14.21,10.85a39,39,0,0,0,16.8-3.87Zm-9.56-36.95v-3.1c0-5.17-2.85-8-7.76-8-5.17,0-8.78,3.87-10.33,11.11ZM75.19,194.83h-16l9.3-58.65L47.54,194.83H36.43l-1.29-58.39-9.82,58.39H9.56l12.66-76.22H45.73l.52,47,15.76-47H87.86L75.19,194.83Zm39-27.64a14.7,14.7,0,0,0-3.1-.26c-9.3,0-14,3.61-14,9.3,0,3.88,2.32,6.46,5.94,6.46,7.75,0,10.85-6.46,11.11-15.5Zm12.92,27.64H113.18l.26-6.45c-3.62,4.9-8.53,7.49-17.06,7.49-7.75,0-14.47-7-14.47-17.05a27.14,27.14,0,0,1,1.3-8c2.58-9.57,12.14-15.51,26.87-15.77,1.81,0,4.65,0,7.23.26a13.54,13.54,0,0,0,.52-4.13c0-4.14-3.36-5.43-10.85-5.43a42.94,42.94,0,0,0-13.44,2.07l-2.33.51-1,.26,2.33-14c7.49-2.33,12.91-3.36,18.86-3.36,13.95,0,21.45,6.46,21.45,18.34a58.3,58.3,0,0,1-.78,12.15L128.43,184l-.52,3.88-.26,3.1-.26,2.07-.26,1.8Zm200.26-61.49c4.65,0,8.79,1.29,14.48,4.13l2.84-16.54a38.22,38.22,0,0,0-4.14-1.55l-6.45-1.81a31.69,31.69,0,0,0-7.5-.77c-8,0-12.66.25-17.57,3.1a48.24,48.24,0,0,0-9.56,8.27l-2.07-.52-16.54,11.63.78-6.46H264.6l-10.07,62h16.28l5.94-33.33s2.33-4.65,3.36-6.2c3.1-3.88,5.68-3.88,9-3.88h1.3a81.51,81.51,0,0,0-.78,11.89c0,20.15,11.37,32.82,28.94,32.82a52.26,52.26,0,0,0,14.21-2.07l2.85-17.57c-5.17,2.84-9.82,4.13-13.7,4.13-9.56,0-15.25-7.23-15.25-18.6,0-16.8,8.53-28.68,20.67-28.68ZM464.6,118.61,461,140.31c-3.88-5.94-8.53-8.78-14.73-8.78-8.54,0-16.54,4.91-21.45,14.21v-.26l-10.34-6.2,1-6.46H398.19l-9.82,62h16l5.43-33.33s4.13-4.65,5.17-6.2a10.07,10.07,0,0,1,7.23-3.87,56,56,0,0,0-2.84,18.34c0,15.51,8,25.84,19.9,25.84,5.94,0,10.59-2.07,15-7l-.77,6.2h15.25l12.4-76.22Zm-19.89,61.5c-5.43,0-8.27-4.14-8.27-12.15,0-12.15,5.17-20.93,12.66-20.93,5.68,0,8.53,4.4,8.53,12.15,0,12.4-5.17,20.93-12.92,20.93ZM370,167.19a14.75,14.75,0,0,0-3.1-.26c-9.31,0-14,3.61-14,9.3,0,3.88,2.33,6.46,5.95,6.46C366.67,182.69,369.77,176.23,370,167.19ZM383,194.83H368.74l.51-6.45c-3.61,4.9-8.53,7.49-17.05,7.49-8,0-15-6.72-15-17.05,0-14.73,11.11-23.77,28.68-23.77a67.36,67.36,0,0,1,7,.26,15.83,15.83,0,0,0,.78-4.14c0-4.14-3.36-5.43-11.11-5.43a44.44,44.44,0,0,0-13.44,2.07l-2.06.52-1,.25,2.32-14c7.5-2.33,12.93-3.36,18.87-3.36,13.95,0,21.19,6.46,21.19,18.35,0,3.1.51,5.43-.77,12.14L384.24,184l-.51,3.87-.52,3.11L383,193v1.8ZM161,146a77.25,77.25,0,0,1,12.15,1l2.32-14.47c-4.65-.52-10.85-1.29-14.47-1.29-18.08,0-24,9.82-24,21.19,0,7.49,3.36,12.92,12.15,17,6.46,3.1,7.49,3.62,7.49,6.46,0,3.87-3.36,6.2-9.56,6.2a43.42,43.42,0,0,1-14.73-2.58l-1.81,14.21.26.26,3.1.52c1,.25,2.32.51,4.13.77,3.88.26,7.24.51,9.31.51,18.09,0,25.58-7,25.58-20.67,0-8.52-4.14-13.69-12.15-17.3-7-3.11-7.75-3.62-7.75-6.47s3.1-5.42,8-5.42Z" fill="#1b3771" fill-rule="evenodd"/><path d="M349.1,116l-2.85,16.54c-5.68-2.84-9.82-4.13-14.47-4.13-12.14,0-20.67,11.88-20.67,28.68,0,11.63,5.69,18.6,15.25,18.6,3.87,0,8.53-1.29,13.69-3.87l-2.84,17.31c-5.94,1.55-9.82,2.33-14.21,2.33-17.57,0-28.43-12.66-28.43-33.07,0-27.14,15-46.26,36.44-46.26a32.19,32.19,0,0,1,7.49.77l6.46,1.56c2.07.77,2.59,1,4.14,1.54Zm-52.2,11.37h-1.55c-5.42,0-8.53,2.59-13.44,10.08l1.55-9.56H268.73l-10.07,62h16.28c5.94-38,7.49-44.45,15.25-44.45h1a65.15,65.15,0,0,1,6.2-17.83l-.52-.26Zm-93.54,61.76a33.56,33.56,0,0,1-11.63,2.07c-8.26,0-12.92-4.65-12.92-13.69a42.19,42.19,0,0,1,.52-5.43l1-6.2.78-4.91,7-42.38h16l-1.81,9.3h8.27l-2.07,15.25h-8.27L195.87,169a9.61,9.61,0,0,0-.26,2.58c0,3.11,1.55,4.4,5.42,4.4a10.75,10.75,0,0,0,4.4-.52l-2.07,13.69Zm-62.27-41.6c0,7.75,3.61,13.18,12.14,17.31C160,168,161,169,161,171.58c0,3.88-2.84,5.68-9.3,5.68a48.32,48.32,0,0,1-14.47-2.32l-2.33,14.21.78.26,2.84.52a17.21,17.21,0,0,0,4.39.52,60.59,60.59,0,0,0,8.79.51c17,0,25.06-6.46,25.06-20.67,0-8.53-3.35-13.44-11.36-17.31-7-3.1-7.76-3.88-7.76-6.72,0-3.36,2.85-4.91,8-4.91a100.14,100.14,0,0,1,11.63.78l2.33-14.22a94.32,94.32,0,0,0-14.21-1.29c-18.09,0-24.55,9.56-24.29,20.93Zm331.79,42.38H457.63l.78-6c-4.4,4.65-9.05,6.72-15,6.72-11.88,0-19.64-10.07-19.64-25.58,0-20.67,12.15-38.24,26.36-38.24,6.46,0,11.11,2.84,15.51,8.52l3.62-21.7h16l-12.4,76.23ZM449.1,175.46c7.5,0,12.66-8.79,12.66-20.93,0-8-2.84-12.15-8.53-12.15-7.23,0-12.66,8.53-12.66,20.67q0,12.4,8.53,12.41ZM253,188.63a52.68,52.68,0,0,1-16.79,2.59c-18.09,0-27.4-9.56-27.4-27.91,0-21.19,11.89-36.95,28.17-36.95,13.44,0,22,8.79,22,22.48a62.13,62.13,0,0,1-2.07,15.51h-32a5,5,0,0,0-.26,1.81c0,7.23,4.91,10.85,14.21,10.85a35.62,35.62,0,0,0,16.8-3.88L253,188.63Zm-9-36.95v-3.1c0-5.16-2.85-8-7.75-8-5.17,0-8.79,3.88-10.34,11.11ZM79.33,189.93h-16l9.3-58.66L51.68,189.93H40.57l-1.3-58.14-9.81,58.14h-15L27.13,113.7H50.39L51.16,161l15.5-47.29H92L79.33,189.93Zm40.05-27.65c-1.55,0-2.33-.26-3.62-.26-9,0-13.69,3.36-13.69,9.56,0,3.88,2.06,6.2,5.68,6.2,6.72,0,11.37-6.2,11.63-15.5Zm11.89,27.65H117.83l.26-6.46C114,188.63,108.52,191,101,191c-8.79,0-14.73-6.72-14.73-16.79,0-15.25,10.34-24,28.42-24,1.81,0,4.14.26,6.72.51a12.93,12.93,0,0,0,.52-3.87c0-4.14-2.84-5.69-10.34-5.69a53.4,53.4,0,0,0-13.43,1.55l-2.33.78-1.55.26,2.33-14c8-2.32,13.43-3.1,19.38-3.1,14,0,21.44,6.2,21.44,18.09,0,3.1-.25,5.43-1.29,12.4l-3.62,22L132,183l-.26,3.1-.26,2.33-.25,1.55ZM375.2,162.28c-1.81,0-2.59-.26-3.62-.26-9.3,0-14,3.36-14,9.56,0,3.88,2.33,6.2,5.95,6.2,6.46,0,11.37-6.2,11.63-15.5Zm11.89,27.65H373.65l.25-6.46c-4.13,5.16-9.55,7.49-17,7.49-8.78,0-14.73-6.72-14.73-16.79,0-15.25,10.33-24,28.42-24,1.82,0,4.14.26,6.47.51a16.81,16.81,0,0,0,.78-3.87c0-4.14-2.85-5.69-10.34-5.69a55.64,55.64,0,0,0-13.7,1.55l-2.06.78-1.56.26,2.33-14c8-2.32,13.43-3.1,19.38-3.1,14,0,21.19,6.2,21.19,18.09a55.51,55.51,0,0,1-1.29,12.4l-3.36,22-.52,3.87-.52,3.1-.25,2.33v1.55Zm43.41-62.54h-1.56c-5.42,0-8.52,2.59-13.43,10.08l1.55-9.56H402.33l-9.82,62h16c5.94-38,7.5-44.45,15.25-44.45h1a65.15,65.15,0,0,1,6.2-17.83l-.51-.26Z" fill="#fff" fill-rule="evenodd"/></svg>