<svg id="Layer_1" data-name="Layer 1" xmlns="http://www.w3.org/2000/svg" width="500" height="500" viewBox="0 0 500 500"><path d="M0,0H500V500H0Z" fill="#fff" fill-rule="evenodd"/><path d="M250.11,345.1a126,126,0,0,0,85.51,33.28c70.53,0,127.61-57.52,127.61-128.27,0-71-57.08-128.49-127.61-128.49a126,126,0,0,0-85.51,33.28,128.46,128.46,0,0,0,0,190.2Z" fill="#e9b040" fill-rule="evenodd"/><path d="M446.27,321.52a4,4,0,0,1,4-4,4,4,0,0,1,4.19,4,4.06,4.06,0,0,1-4.19,4.19A4,4,0,0,1,446.27,321.52Zm4,3.31a3.39,3.39,0,0,0,3.3-3.31,3.2,3.2,0,0,0-3.3-3.08,3.15,3.15,0,0,0-3.08,3.08A3.36,3.36,0,0,0,450.23,324.83Zm-.44-1.33h-.88v-3.74h1.54a1.32,1.32,0,0,1,.88.22c.44.22.44.44.44.88s-.21.88-.66.88l.89,1.77h-1.11l-.44-1.55h-.66v-.66h.88c.22,0,.22-.22.22-.44s0-.22-.22-.44h-.88Z" fill="#e9b040" fill-rule="evenodd"/><path d="M291.32,236.45c-.44-4.63-1.32-9-2.2-13.67h-78a133.75,133.75,0,0,1,3.52-13.44h70.75a146.15,146.15,0,0,0-5.29-13.67H220.14q3.3-7,7.27-13.66h45.18a115.18,115.18,0,0,0-9.69-13.45H237.11a126.18,126.18,0,0,1,13-13.66,127.57,127.57,0,0,0-85.73-33.28c-70.31,0-127.61,57.52-127.61,128.49,0,70.75,57.3,128.27,127.61,128.27a126.51,126.51,0,0,0,85.73-33.28,122.15,122.15,0,0,0,12.79-13.44H237.11a152.77,152.77,0,0,1-9.7-13.67h45.18a103.54,103.54,0,0,0,7.5-13.66H220.14a143.71,143.71,0,0,1-5.52-13.45h70.75a138.14,138.14,0,0,0,3.75-13.67,132.61,132.61,0,0,0,2.2-40.76Z" fill="#cc2131" fill-rule="evenodd"/><path d="M446.27,279.86a4,4,0,0,1,4-4.18,4,4,0,0,1,4.19,4.18,4.19,4.19,0,0,1-4.19,4.19A4.14,4.14,0,0,1,446.27,279.86Zm4,3.09a3.09,3.09,0,1,0,0-6.17,3.09,3.09,0,0,0,0,6.17Zm-.44-1.32h-.88V278.1h2.42c.44.22.44.66.44,1.11a1.19,1.19,0,0,1-.66.88l.89,1.54h-1.11l-.44-1.32h-.66v-.67h.44c.22,0,.44,0,.44-.22.22,0,.22-.22.22-.44a.22.22,0,0,0-.22-.22c0-.22-.22,0-.44,0h-.44Z" fill="#fff" fill-rule="evenodd"/><path d="M206.69,287.14a40.72,40.72,0,0,1-10.36,1.76c-6.61,0-10.58-4.19-10.58-11.68a39.66,39.66,0,0,1,.44-4.85l.89-5.07.66-4.18L193.69,227h13.22l-1.54,7.94h8.37l-2,13.22h-8.38l-3.52,21.6a10.1,10.1,0,0,0-.22,2.2c0,2.87,1.32,4,4.63,4a24.37,24.37,0,0,0,4.18-.44l-1.76,11.68Zm42.76-.44a52,52,0,0,1-14.11,2c-15,0-23.58-7.94-23.58-23.58,0-18.3,10.14-31.52,24.24-31.52,11.24,0,18.52,7.49,18.52,19.17a60.81,60.81,0,0,1-1.54,13H225.42a6.19,6.19,0,0,0-.22,1.76c0,6.17,4.19,9.26,12.13,9.26a33.26,33.26,0,0,0,14.32-3.3Zm-8.16-31.52v-2.65c0-4.4-2.42-6.83-6.61-6.83-4.41,0-7.49,3.31-8.81,9.48ZM100.9,287.8H87.23l7.94-50-17.85,50H67.84L66.74,238,58.36,287.8H44.92l10.8-65h20l.45,40.12,13.44-40.12h22l-10.8,65Zm33.28-23.58a12.09,12.09,0,0,0-2.64-.23c-7.94,0-11.9,3.09-11.9,7.94,0,3.31,2,5.51,5.06,5.51,6.62,0,9.26-5.51,9.48-13.22Zm11,23.58H133.3l.22-5.51c-3.09,4.18-7.27,6.39-14.55,6.39-6.61,0-12.34-5.95-12.34-14.55a23.41,23.41,0,0,1,1.1-6.83c2.21-8.15,10.36-13.22,22.92-13.44,1.55,0,4,0,6.18.22a11.94,11.94,0,0,0,.43-3.53c0-3.53-2.86-4.63-9.25-4.63a36.51,36.51,0,0,0-11.46,1.77l-2,.44-.88.22,2-11.91c6.39-2,11-2.86,16.09-2.86,11.9,0,18.29,5.51,18.29,15.65a50.12,50.12,0,0,1-.66,10.36l-3.09,19-.44,3.31-.22,2.64-.22,1.77-.22,1.54ZM316,235.34c4,0,7.49,1.11,12.34,3.53l2.43-14.11a31.26,31.26,0,0,0-3.53-1.32l-5.51-1.54a27.11,27.11,0,0,0-6.39-.66c-6.84,0-10.8.22-15,2.64a41.39,41.39,0,0,0-8.15,7.05l-1.77-.44-14.1,9.92.66-5.51H262.45l-8.59,52.89h13.89l5.06-28.42s2-4,2.87-5.29c2.65-3.31,4.85-3.31,7.71-3.31h1.11a70.21,70.21,0,0,0-.67,10.14c0,17.19,9.7,28,24.69,28a44.23,44.23,0,0,0,12.12-1.77l2.43-15c-4.41,2.42-8.38,3.52-11.68,3.52-8.16,0-13-6.17-13-15.86,0-14.33,7.27-24.47,17.63-24.47Zm117-12.56L430,241.29c-3.31-5.06-7.28-7.49-12.57-7.49-7.28,0-14.11,4.19-18.29,12.12v-.22l-8.82-5.29.88-5.51H376.4L368,287.8h13.66l4.63-28.43s3.53-4,4.41-5.29a8.62,8.62,0,0,1,6.17-3.31,47.73,47.73,0,0,0-2.42,15.65c0,13.23,6.83,22,17,22,5.07,0,9-1.76,12.78-5.95l-.66,5.29h13l10.58-65Zm-17,52.46c-4.63,0-7.05-3.53-7.05-10.36,0-10.36,4.4-17.86,10.79-17.86,4.85,0,7.28,3.75,7.28,10.37,0,10.57-4.41,17.85-11,17.85Zm-63.69-11a12.17,12.17,0,0,0-2.65-.23c-7.94,0-11.9,3.09-11.9,7.94,0,3.31,2,5.51,5.07,5.51C349.51,277.44,352.16,271.93,352.38,264.22Zm11,23.58H351.27l.44-5.51c-3.08,4.18-7.27,6.39-14.54,6.39-6.84,0-12.78-5.73-12.78-14.55,0-12.56,9.47-20.27,24.46-20.27a58,58,0,0,1,5.95.22,13.57,13.57,0,0,0,.66-3.52c0-3.53-2.86-4.64-9.47-4.64a37.87,37.87,0,0,0-11.46,1.77l-1.77.44-.88.22,2-11.9c6.4-2,11-2.87,16.09-2.87,11.9,0,18.07,5.51,18.07,15.65a37.83,37.83,0,0,1-.65,10.36l-2.87,19-.44,3.31-.44,2.65-.22,1.76v1.54ZM174.07,246.14a65.47,65.47,0,0,1,10.36.88l2-12.34c-4-.44-9.26-1.1-12.35-1.1-15.42,0-20.49,8.38-20.49,18.07,0,6.4,2.86,11,10.36,14.55,5.5,2.64,6.39,3.08,6.39,5.51,0,3.3-2.87,5.29-8.16,5.29a36.91,36.91,0,0,1-12.56-2.21l-1.54,12.12.21.23,2.65.44a34.75,34.75,0,0,0,3.53.65c3.3.23,6.17.45,7.93.45,15.43,0,21.82-5.95,21.82-17.64,0-7.27-3.53-11.67-10.36-14.76-5.95-2.65-6.61-3.08-6.61-5.51s2.65-4.63,6.83-4.63Z" fill="#1b3771" fill-rule="evenodd"/><path d="M334.52,220.58l-2.42,14.1c-4.85-2.42-8.38-3.52-12.35-3.52-10.36,0-17.63,10.13-17.63,24.46,0,9.92,4.85,15.87,13,15.87,3.3,0,7.27-1.1,11.68-3.3L324.38,283c-5.07,1.32-8.37,2-12.12,2-15,0-24.24-10.81-24.24-28.21,0-23.15,12.78-39.46,31.07-39.46a27.11,27.11,0,0,1,6.39.66l5.51,1.33c1.77.66,2.21.88,3.53,1.32ZM290,230.28h-1.32c-4.63,0-7.27,2.2-11.46,8.59l1.32-8.16H266l-8.59,52.9h13.88c5.07-32.4,6.39-37.91,13-37.91h.89a55.55,55.55,0,0,1,5.28-15.21l-.44-.21ZM210.22,283a28.67,28.67,0,0,1-9.92,1.76c-7.05,0-11-4-11-11.68a36.53,36.53,0,0,1,.44-4.63l.88-5.28.67-4.19,5.95-36.15h13.66l-1.54,7.94h7l-1.76,13h-7.06l-3.74,22a8.32,8.32,0,0,0-.22,2.21c0,2.64,1.32,3.74,4.62,3.74a9.19,9.19,0,0,0,3.75-.44L210.22,283ZM157.1,247.47c0,6.61,3.09,11.24,10.36,14.76,5.73,2.65,6.61,3.53,6.61,5.73,0,3.31-2.42,4.85-7.93,4.85a41.21,41.21,0,0,1-12.34-2l-2,12.12.66.22,2.43.44a14.36,14.36,0,0,0,3.74.44,51.12,51.12,0,0,0,7.5.44c14.54,0,21.38-5.51,21.38-17.63,0-7.27-2.87-11.46-9.7-14.76-5.95-2.65-6.61-3.31-6.61-5.73,0-2.87,2.42-4.19,6.83-4.19a86.23,86.23,0,0,1,9.92.66l2-12.12a79.87,79.87,0,0,0-12.12-1.1c-15.43,0-20.94,8.15-20.72,17.85Zm283,36.14h-13l.66-5.07c-3.75,4-7.71,5.73-12.78,5.73-10.14,0-16.75-8.59-16.75-21.81,0-17.64,10.36-32.63,22.48-32.63,5.51,0,9.47,2.43,13.22,7.28L437,218.59h13.66l-10.57,65Zm-20.28-12.34c6.39,0,10.8-7.49,10.8-17.85,0-6.84-2.43-10.36-7.28-10.36-6.17,0-10.8,7.27-10.8,17.63q0,10.59,7.28,10.58ZM252.53,282.51a45.27,45.27,0,0,1-14.32,2.2c-15.43,0-23.37-8.15-23.37-23.8,0-18.07,10.14-31.52,24-31.52,11.46,0,18.73,7.5,18.73,19.18a53.31,53.31,0,0,1-1.76,13.22H228.51a4.37,4.37,0,0,0-.22,1.55c0,6.17,4.19,9.25,12.12,9.25a30.38,30.38,0,0,0,14.33-3.3l-2.21,13.22ZM244.82,251v-2.64c0-4.41-2.43-6.83-6.61-6.83-4.41,0-7.5,3.3-8.82,9.47ZM104.43,283.61H90.76l7.94-50-17.85,50H71.37L70.27,234l-8.38,49.59H49.11l10.8-65H79.74l.66,40.33L93.63,218.6h21.6l-10.8,65ZM138.59,260c-1.32,0-2-.22-3.09-.22-7.71,0-11.68,2.86-11.68,8.15,0,3.31,1.77,5.29,4.85,5.29,5.73,0,9.7-5.29,9.92-13.22Zm10.14,23.58H137.26l.22-5.51c-3.52,4.41-8.15,6.39-14.54,6.39-7.5,0-12.56-5.73-12.56-14.32,0-13,8.81-20.5,24.24-20.5,1.54,0,3.53.22,5.73.44a11.11,11.11,0,0,0,.44-3.3c0-3.53-2.43-4.85-8.82-4.85a45.62,45.62,0,0,0-11.46,1.32l-2,.66-1.32.22,2-11.9a55.53,55.53,0,0,1,16.53-2.64c11.9,0,18.29,5.29,18.29,15.42,0,2.65-.22,4.63-1.1,10.58l-3.09,18.74-.44,3.3-.22,2.65-.22,2-.21,1.32ZM356.79,260c-1.55,0-2.21-.22-3.09-.22-7.93,0-11.91,2.86-11.91,8.15,0,3.31,2,5.29,5.08,5.29,5.51,0,9.69-5.29,9.92-13.22Zm10.13,23.58H355.46l.22-5.51c-3.52,4.41-8.15,6.39-14.54,6.39-7.5,0-12.57-5.73-12.57-14.32,0-13,8.82-20.5,24.24-20.5a55.27,55.27,0,0,1,5.52.44,14,14,0,0,0,.66-3.3c0-3.53-2.43-4.85-8.81-4.85a47.41,47.41,0,0,0-11.69,1.32l-1.76.66-1.32.22,2-11.9a55.53,55.53,0,0,1,16.53-2.64c11.9,0,18.07,5.29,18.07,15.42a47.38,47.38,0,0,1-1.1,10.58L368,274.36l-.44,3.3-.44,2.65-.21,2v1.32Zm37-53.33h-1.32c-4.63,0-7.28,2.2-11.46,8.59l1.32-8.16H379.92l-8.37,52.9h13.66c5.07-32.4,6.4-37.91,13-37.91h.88a55.21,55.21,0,0,1,5.29-15.21l-.44-.21Z" fill="#fff" fill-rule="evenodd"/></svg>