<?xml version="1.0" encoding="utf-8"?>
<!-- Generator: Adobe Illustrator 26.3.0, SVG Export Plug-In . SVG Version: 6.00 Build 0)  -->
<svg version="1.1" id="Layer_1" xmlns="http://www.w3.org/2000/svg" xmlns:xlink="http://www.w3.org/1999/xlink" x="0px" y="0px"
	 width="500px" height="133.3px" viewBox="0 0 500 133.3" style="enable-background:new 0 0 500 133.3;" xml:space="preserve">
<style type="text/css">
	.st0{fill:#003087;}
	.st1{fill:#009CDE;}
</style>
<path class="st0" d="M134.2,24.5c-4.4-3-10.1-4.5-17.2-4.5H89.7c-2.2,0-3.4,1.1-3.6,3.2L75,93c-0.1,0.7,0.1,1.4,0.5,1.9
	c0.4,0.5,1,0.9,1.7,0.9h13c2.3,0,3.5-1.1,3.8-3.2l3.1-18.8c0.1-0.9,0.5-1.7,1.2-2.2c0.7-0.6,1.6-1,2.6-1.1c1-0.2,1.9-0.2,2.9-0.3
	c0.9,0,2,0.1,3.2,0.2s2.1,0.2,2.4,0.2c9.8,0,17.5-2.8,23.1-8.3c5.6-5.5,8.4-13.2,8.4-23C140.8,32.4,138.6,27.5,134.2,24.5
	L134.2,24.5z M120.2,45.5c-0.6,4-2.1,6.6-4.4,7.9c-2.4,1.3-5.8,1.9-10.3,1.9l-5.6,0.2l2.9-18.3c0.1-1.1,1.1-2,2.2-1.9c0,0,0,0,0,0
	h3.2c4.6,0,7.9,0.7,9.9,2S120.8,41.2,120.2,45.5z"/>
<path class="st1" d="M422.8,20h-12.6c-1.1-0.1-2.1,0.7-2.2,1.9c0,0,0,0,0,0L396.8,93l-0.2,0.3c0,0.6,0.3,1.2,0.7,1.6
	c0.4,0.5,1.1,0.8,1.7,0.8h11.3c2.2,0,3.4-1.1,3.6-3.2L425,22.5v-0.2C425,20.8,424.3,20,422.8,20z"/>
<path class="st0" d="M270,47.5c0-0.6-0.3-1.2-0.7-1.6c-0.4-0.5-0.9-0.8-1.5-0.8h-13.1c-1.3,0-2.4,0.6-3.1,1.7l-18.1,26.7l-7.5-25.6
	c-0.4-1.7-2-2.9-3.8-2.7h-12.8c-0.6,0-1.2,0.3-1.5,0.8c-0.4,0.4-0.7,1-0.7,1.6c0,0.2,1.1,3.6,3.3,10.1c2.2,6.5,4.6,13.5,7.2,21
	c2.6,7.5,3.9,11.5,4,12c-9.3,12.8-14,19.6-14,20.5c0,1.5,0.7,2.2,2.2,2.2H223c1.3,0,2.4-0.6,3.1-1.7l43.6-62.9
	C269.9,48.3,270.1,47.9,270,47.5L270,47.5z"/>
<path class="st1" d="M392.5,45.1h-13c-1.6,0-2.6,1.9-2.9,5.6c-3-4.6-8.4-6.8-16.2-6.8c-8.2,0-15.2,3.1-20.9,9.2
	c-5.6,5.8-8.7,13.6-8.6,21.7c0,6.7,2,12.1,5.9,16.1c3.9,4,9.2,6,15.8,6c3.5,0,6.9-0.7,10.1-2.1c3.1-1.1,5.8-3,8-5.5
	c-0.1,0.5-0.2,1-0.3,1.5c-0.2,0.7-0.3,1.4-0.3,2.1c0,1.8,0.7,2.7,2.2,2.7H384c2.2,0,3.4-1.1,3.8-3.2l7-44.6c0.1-0.7-0.1-1.4-0.5-1.9
	C393.8,45.4,393.2,45.1,392.5,45.1L392.5,45.1z M370.2,78.8c-2.8,2.8-6.6,4.3-10.5,4.3c-3.3,0-6-0.9-8-2.7s-3.1-4.3-3.1-7.5
	c-0.1-4,1.5-7.9,4.3-10.7c2.8-2.9,6.6-4.4,10.6-4.3c2.9-0.1,5.7,0.9,7.9,2.8c2.1,1.9,3.2,4.5,3.2,7.8
	C374.7,72.3,373.1,76.1,370.2,78.8z"/>
<path class="st0" d="M198.4,45.1h-13c-1.6,0-2.6,1.9-2.9,5.6c-3.1-4.6-8.5-6.8-16.2-6.8c-8.2,0-15.2,3.1-20.9,9.2
	c-5.6,5.8-8.7,13.6-8.6,21.7c0,6.7,2,12.1,5.9,16.1c3.9,4,9.2,6,15.8,6c3.4,0,6.8-0.7,9.9-2.1c3.1-1.2,5.9-3,8.2-5.5
	c-0.4,1.2-0.7,2.4-0.7,3.6c0,1.8,0.7,2.7,2.2,2.7h11.8c2.2,0,3.4-1.1,3.8-3.2l7-44.6c0.1-0.7-0.1-1.4-0.5-1.9
	C199.7,45.4,199.1,45.1,198.4,45.1L198.4,45.1z M176.1,78.9c-2.8,2.8-6.7,4.3-10.7,4.2c-3.3,0-6-0.9-8-2.7s-3-4.3-3-7.5
	c-0.1-4,1.5-7.9,4.3-10.7c2.8-2.9,6.6-4.4,10.6-4.3c2.9-0.1,5.7,0.9,7.9,2.8c2.1,1.9,3.2,4.5,3.2,7.8
	C180.6,72.3,179,76.1,176.1,78.9L176.1,78.9z"/>
<path class="st1" d="M328.4,24.5c-4.4-3-10.1-4.5-17.2-4.5H284c-2.3,0-3.5,1.1-3.8,3.2L269.2,93c-0.1,0.7,0.1,1.4,0.5,1.9
	c0.4,0.5,1,0.9,1.7,0.9h14c1.4,0,2.3-0.7,2.7-2.2l3.1-19.8c0.1-0.9,0.5-1.7,1.2-2.2c0.7-0.6,1.6-1,2.6-1.1c1-0.2,1.9-0.2,2.9-0.3
	c0.9,0,2,0.1,3.2,0.2c1.3,0.1,2.1,0.2,2.4,0.2c9.8,0,17.5-2.8,23.1-8.3c5.6-5.5,8.4-13.2,8.4-23C335,32.4,332.8,27.5,328.4,24.5
	L328.4,24.5z M310.9,52.6c-2.5,1.7-6.3,2.6-11.3,2.6l-5.5,0.2l2.9-18.3c0.1-1.1,1.1-2,2.2-1.9c0,0,0,0,0,0h3.1c2,0,4,0.1,6,0.3
	c1.6,0.3,3.1,1,4.3,2.1c1.4,1.2,2.1,2.9,2.1,5.2C314.7,47.7,313.4,50.9,310.9,52.6L310.9,52.6z"/>
</svg>
