<svg id="Layer_1" data-name="Layer 1" xmlns="http://www.w3.org/2000/svg" width="500" height="500" viewBox="0 0 500 500"><circle cx="250" cy="250" r="250" fill="#26a17b"/><path d="M280,271.61v0c-1.72.12-10.58.65-30.34.65-15.78,0-26.89-.46-30.8-.65v0C158.14,269,112.8,258.37,112.8,245.72s45.34-23.22,106.09-25.94v41.31c4,.28,15.34,1,31.06,1,18.86,0,28.32-.78,30.08-.94v-41.3c60.63,2.71,105.86,13.28,105.86,25.91S340.66,268.92,280,271.61m0-56.09v-37h84.6V122.17H134.3v56.38h84.59V215.5c-68.75,3.16-120.45,16.78-120.45,33.09s51.7,29.93,120.45,33.1V400.16H280V281.66c68.64-3.16,120.22-16.77,120.22-33.07S348.67,218.69,280,215.52" fill="#fff" fill-rule="evenodd"/></svg>