<svg id="Layer_1" data-name="Layer 1" xmlns="http://www.w3.org/2000/svg" width="513.79" height="355.9" viewBox="0 0 513.79 355.9"><rect x="6.9" y="6.9" width="500" height="342.11" rx="30.7" fill="#fff" stroke="#f3f3f3" stroke-miterlimit="55.17" stroke-width="13.79"/><path d="M228.4,243.15H194.53l21.19-122.81h33.87Z" fill="#15195a"/><path d="M351.19,123.34a88.44,88.44,0,0,0-30.38-5.23c-33.45,0-57,16.73-57.15,40.63-.28,17.64,16.87,27.44,29.69,33.32,13.1,6,17.56,9.94,17.56,15.29-.13,8.23-10.59,12-20.34,12-13.53,0-20.77-2-31.78-6.53l-4.46-2-4.74,27.57c7.94,3.39,22.58,6.4,37.77,6.53,35.54,0,58.68-16.46,59-41.94.13-14-8.92-24.69-28.44-33.45-11.84-5.62-19.1-9.4-19.1-15.15.14-5.23,6.14-10.58,19.51-10.58a60.61,60.61,0,0,1,25.23,4.7l3.07,1.3,4.6-26.52Z" fill="#15195a"/><path d="M411.82,120.34H438l27.33,122.81H434s-3.07-14.11-4-18.42H386.46l-7.11,18.42H343.81l50.31-112.62C397.61,122.56,403.74,120.34,411.82,120.34Zm-2.08,44.94S399,192.59,396.21,199.64h28.16c-1.39-6.14-7.81-35.53-7.81-35.53l-2.37-10.59c-1,2.73-2.43,6.48-3.41,9C410.12,164.24,409.68,165.39,409.74,165.28Z" fill="#15195a" fill-rule="evenodd"/><path d="M47.76,120.34h54.5c7.39.26,13.38,2.48,15.33,10.32l11.85,56.43h0l3.62,17,33.18-83.75h35.82L148.81,243H113L82.8,136.31a143.44,143.44,0,0,0-35.59-13.49Z" fill="#15195a" fill-rule="evenodd"/><path d="M295.14,310.14a10.1,10.1,0,0,1-1.72.12,4.72,4.72,0,0,1-4.11-1.71,8.64,8.64,0,0,1-1.23-5v-37.7h5v38.07a2.62,2.62,0,0,0,.43,1.72,1.25,1.25,0,0,0,1,.49H295a2.6,2.6,0,0,0,.64-.12l.68,3.8A4.13,4.13,0,0,1,295.14,310.14Zm-15.1-5v4.36H256.21V269.25h23.21v4.3H261.31v12.64H276.6v4.36H261.31v14.62Zm35.8,5.09a15,15,0,0,0,5.46-.92,24.92,24.92,0,0,0,4.36-2.15l-1.78-3.31a17.94,17.94,0,0,1-3.47,1.69,11.75,11.75,0,0,1-4,.64,9.2,9.2,0,0,1-7-2.79,11.68,11.68,0,0,1-3-7.58h20.14a7.69,7.69,0,0,0,.16-1.33q0-.76,0-1.56a19.53,19.53,0,0,0-.8-5.77,12.88,12.88,0,0,0-2.3-4.42,10,10,0,0,0-3.75-2.83,12.56,12.56,0,0,0-5.07-1,12.11,12.11,0,0,0-5,1.07,13.1,13.1,0,0,0-4.27,3.1,15.55,15.55,0,0,0-3,4.95,18.19,18.19,0,0,0-1.13,6.6,18.47,18.47,0,0,0,1.1,6.57,14.28,14.28,0,0,0,3,4.88,13.4,13.4,0,0,0,4.55,3.07A14.53,14.53,0,0,0,315.84,310.26Zm-9.4-18.05h16q0-4.54-1.94-6.91a6.64,6.64,0,0,0-5.43-2.36,7.64,7.64,0,0,0-3,.61,8.06,8.06,0,0,0-2.61,1.82,9.81,9.81,0,0,0-1.94,2.91A13.17,13.17,0,0,0,306.44,292.21ZM346,310.26a13.3,13.3,0,0,0,5.16-1,16,16,0,0,0,4.48-2.79l-2.21-3.38a15.18,15.18,0,0,1-3.16,2.12,8.35,8.35,0,0,1-3.84.89,8.51,8.51,0,0,1-3.74-.83,8.27,8.27,0,0,1-2.92-2.33,11.32,11.32,0,0,1-1.87-3.59,15.18,15.18,0,0,1-.68-4.67,14.81,14.81,0,0,1,.71-4.7,11.85,11.85,0,0,1,1.93-3.65,8.44,8.44,0,0,1,3-2.37,8.58,8.58,0,0,1,3.75-.83,7,7,0,0,1,3.22.74,12.9,12.9,0,0,1,2.73,1.9l2.58-3.31a17.12,17.12,0,0,0-3.68-2.46,11.24,11.24,0,0,0-5-1,14.76,14.76,0,0,0-5.49,1,13.15,13.15,0,0,0-4.58,3.07,15,15,0,0,0-3.13,4.95,17.74,17.74,0,0,0-1.17,6.66,19,19,0,0,0,1.08,6.6,14.36,14.36,0,0,0,2.95,4.91,12.26,12.26,0,0,0,4.45,3A14.5,14.5,0,0,0,346,310.26Zm27.85-.33a12.73,12.73,0,0,1-2.85.33,9.81,9.81,0,0,1-4-.73,7,7,0,0,1-2.64-2,8,8,0,0,1-1.44-3.13,17.66,17.66,0,0,1-.43-4.05V283.8H358V280l4.67-.3.61-8.35h4.24v8.35h8v4.11h-8v16.58a7.6,7.6,0,0,0,1,4.27,4,4,0,0,0,3.59,1.5,6.83,6.83,0,0,0,1.72-.24,12.86,12.86,0,0,0,1.66-.56l1,3.81A26.68,26.68,0,0,1,373.83,309.93Zm13.54-.4V290.37A12.16,12.16,0,0,1,391,285a6.65,6.65,0,0,1,4-1.54,7.37,7.37,0,0,1,1.54.13,11.46,11.46,0,0,1,1.35.36l1-4.42a7.89,7.89,0,0,0-3.19-.61,7.66,7.66,0,0,0-4.76,1.66,13.89,13.89,0,0,0-3.72,4.48h-.18l-.43-5.4h-4.17v29.84Zm32.51-.31a13.77,13.77,0,0,1-10.5,0,12.94,12.94,0,0,1-4.39-3,14.86,14.86,0,0,1-3-4.91A20,20,0,0,1,402,288a15.15,15.15,0,0,1,3-4.95,12.89,12.89,0,0,1,4.39-3.07,13.77,13.77,0,0,1,10.5,0,12.79,12.79,0,0,1,4.39,3.07,15,15,0,0,1,3,4.95,19.85,19.85,0,0,1,0,13.26,14.69,14.69,0,0,1-3,4.91A12.84,12.84,0,0,1,419.88,309.22Zm-5.25-3.13a7.53,7.53,0,0,1-3.5-.83,8.09,8.09,0,0,1-2.73-2.33,11.13,11.13,0,0,1-1.75-3.59,16.56,16.56,0,0,1-.61-4.67,16.83,16.83,0,0,1,.61-4.7,11.36,11.36,0,0,1,1.75-3.65,8,8,0,0,1,2.73-2.37,7.79,7.79,0,0,1,7,0,7.94,7.94,0,0,1,2.74,2.37,11.57,11.57,0,0,1,1.75,3.65,16.83,16.83,0,0,1,.61,4.7,16.56,16.56,0,0,1-.61,4.67,11.34,11.34,0,0,1-1.75,3.59,8,8,0,0,1-2.74,2.33A7.5,7.5,0,0,1,414.63,306.09Zm26.71-18.18v21.62h-5V279.69h4.17l.43,4.29h.19a24.42,24.42,0,0,1,4.51-3.59,10.37,10.37,0,0,1,5.5-1.44q4.72,0,6.9,2.95c1.46,2,2.18,4.87,2.18,8.72v18.91h-5V291.29q0-4.23-1.35-6.11a4.93,4.93,0,0,0-4.3-1.87,7.3,7.3,0,0,0-4.11,1.17A26.51,26.51,0,0,0,441.34,287.91Z" fill="#15195a" fill-rule="evenodd"/></svg>