<?xml version="1.0" encoding="UTF-8"?>
<svg width="11px" height="19px" viewBox="0 0 11 19" version="1.1" xmlns="http://www.w3.org/2000/svg" xmlns:xlink="http://www.w3.org/1999/xlink">
    <!-- Generator: Sketch 55 (78076) - https://sketchapp.com -->
    <title>fb</title>
    <desc>Created with Sketch.</desc>
    <g id="CrescoLabs.com" stroke="none" stroke-width="1" fill="none" fill-rule="evenodd">
        <g id="Home-A---v2.5---Social-Nav" transform="translate(-1307.000000, -30.000000)" fill="#274B5C" fill-rule="nonzero">
            <g id="proto-nav-bar">
                <g id="Group-3" transform="translate(60.000000, 28.500000)">
                    <g id="Group" transform="translate(1130.000000, 0.500000)">
                        <path d="M127.202899,4.81521739 L124.293478,4.81521739 C124.134058,4.81521739 123.934783,4.93478261 123.775362,5.13405797 C123.655797,5.33333333 123.576087,5.61231884 123.576087,5.89130435 L123.576087,7.96376812 L127.202899,7.96376812 L127.202899,10.9927536 L123.576087,10.9927536 L123.576087,20 L120.108696,20 L120.108696,10.9927536 L117,10.9927536 L117,7.96376812 L120.108696,7.96376812 L120.108696,6.21014493 C120.108696,4.93478261 120.507246,3.85869565 121.304348,2.98188406 C122.101449,2.10507246 123.097826,1.66666667 124.293478,1.66666667 L127.202899,1.66666667 L127.202899,4.81521739" id="fb"></path>
                    </g>
                </g>
            </g>
        </g>
    </g>
</svg>