<?xml version="1.0" encoding="UTF-8"?><svg id="Layer_1" xmlns="http://www.w3.org/2000/svg" width="100.42" height="71.19" viewBox="0 0 100.42 71.19"><g id="_Group_"><path id="_Path_" d="M48.91,63.07l-4.17-1.81-1.06-.98-.04,.27c-.21-.41-1.12-1.28-1.12-1.28l-.04,.31c-.31-.64-1.13-1.28-1.13-1.28l-.05,.25c-.22-.52-1.17-1.2-1.21-1.22s-.03,.31-.03,.31c-.16-.67-1.42-1.38-1.56-1.49s-.02,.23-.02,.23c-.43-.67-1.77-1.46-1.77-1.46l.07,.41c-.45-.69-1.74-1.48-1.74-1.48v.29c-.56-.74-1.77-1.35-1.77-1.35v.33c-.43-.7-1.9-1.38-1.9-1.38l.02,.27c-.53-.67-1.93-1.23-1.93-1.23l.03,.34c-.56-.49-1.22-.9-1.93-1.21l.21,.41c-.72-.67-2.5-1.34-2.5-1.34l.12,.35c-.58-.51-2.31-1.17-2.31-1.17l.11,.36c-.4-.43-1.88-.89-1.88-.89l.07,.26c-.79-.63-1.44-.66-1.51-.68s.08,.27,.08,.27c-.65-.34-1.36-.6-2.09-.78-.05-.01,.12,.21,.12,.21-.59-.31-1.23-.51-1.91-.61l.13,.24c-.72-.39-1.95-.6-1.95-.6l.17,.28c-.76-.49-1.85-.56-1.92-.57s.11,.21,.11,.21c-.6-.25-1.24-.41-1.91-.46l.17,.23c-.52-.2-1.08-.34-1.65-.41l.16,.2c-.59-.2-1.22-.32-1.85-.36l.14,.21c-.39-.18-.82-.28-1.27-.3l.07,.18c-.5-.16-1.02-.25-1.55-.27l.1,.18c-.42-.13-.86-.2-1.3-.22l.11,.18c-.48-.13-.98-.2-1.49-.21l.07,.2c-.93-.31-1.43-.2-1.43-.2l.09,.22-1.05-.18,.88,.54-.24,.1s.25,.4,1.16,.77l-.22,.09c.35,.31,.75,.57,1.19,.79l-.23,.05c.32,.26,.68,.49,1.07,.66l-.21,.06c.38,.32,.82,.59,1.3,.8l-.2,.08c.32,.27,.7,.47,1.12,.6l-.29,.05c.47,.37,1,.68,1.57,.92l-.27,.04c.45,.31,.94,.57,1.47,.76l-.31,.05c.5,.38,1.07,.68,1.7,.88,0,0-.32,.03-.25,.07,.06,.04,.87,.68,1.8,.82l-.35,.09s1.01,.63,1.84,.82l-.29,.09c.55,.36,1.17,.62,1.82,.78,0,0-.3,.05-.26,.07,.65,.34,1.36,.61,2.1,.78,0,0-.35,.1-.29,.13s.54,.42,1.61,.49l-.27,.14s1.41,.62,2.04,.57l-.38,.18s1.75,.64,2.57,.65l-.38,.16s1.78,.66,2.84,.65l-.49,.14c.75,.24,1.54,.37,2.35,.39l-.3,.21s1.43,.49,2.36,.37l-.23,.18s1.58,.46,2.46,.25l-.27,.23s1.34,.34,2.36,.2l-.26,.19s1.56,.27,2.44,.08l-.39,.24s1.59,.29,2.44,.11c0,0-.37,.15-.18,.17s1.65,.32,2.32-.04c0,0-.29,.23-.24,.23s1.27,.14,1.85-.08l-.17,.2s1.1,.08,1.85-.17l-.23,.24s1.36-.03,1.85-.18l-.2,.21h1.55l4.62,1.44-.12-.08-.08-.08Z" fill="#010101"/><path id="_Path_2" d="M48.76,63.58l-3.64,.35-1.18-.26,.11,.19c-.34-.19-1.37-.43-1.37-.43l.12,.22c-.52-.31-1.37-.42-1.37-.42l.09,.18c-.4-.26-1.36-.36-1.4-.36s.13,.22,.13,.22c-.43-.38-1.61-.38-1.76-.4s.1,.16,.1,.16c-.62-.28-1.88-.31-1.88-.31l.25,.24c-.63-.29-1.88-.33-1.88-.33l.15,.19c-.74-.27-1.84-.23-1.84-.23l.16,.22c-.62-.3-1.92-.2-1.92-.2l.14,.17c-.68-.24-1.88-.1-1.88-.1l.19,.21c-.61-.11-1.25-.14-1.87-.08l.34,.19c-.81-.17-2.31,.04-2.31,.04l.25,.18c-.63-.13-2.1,.09-2.1,.09l.25,.2c-.47-.13-1.67,.11-1.67,.11l.17,.15c-.83-.12-1.27,.1-1.33,.11s.19,.15,.19,.15c-.6,.02-1.19,.1-1.76,.26-.04,.01,.18,.1,.18,.1-.54,.02-1.07,.12-1.56,.3l.2,.11c-.67,.01-1.58,.33-1.58,.33l.25,.13c-.74-.04-1.49,.32-1.54,.34s.18,.1,.18,.1c-.52,.06-1.02,.19-1.48,.4l.23,.09c-.44,.06-.87,.17-1.28,.34l.2,.07c-.49,.09-.96,.24-1.39,.45l.2,.09c-.35,.02-.68,.12-.98,.27l.13,.1c-.41,.08-.8,.22-1.16,.4l.14,.08c-.34,.07-.66,.18-.96,.33l.16,.08c-.38,.1-.74,.23-1.08,.41l.14,.11c-.76,.14-1.04,.4-1.04,.4l.16,.11-.79,.27,.85,.03-.11,.15s.36,.17,1.13,.08l-.09,.15c.39,.07,.78,.1,1.18,.08l-.13,.13c.34,.05,.69,.07,1.03,.04l-.11,.12c.41,.07,.83,.09,1.25,.04l-.09,.13c.34,.06,.69,.05,1.03-.03l-.16,.14c.49,.07,.99,.08,1.48,.02l-.16,.13c.45,.04,.9,.03,1.34-.05l-.18,.15c.52,.06,1.04,.05,1.55-.05,0,0-.19,.14-.13,.14s.9,.13,1.59-.13l-.19,.19s.98,.04,1.62-.14l-.14,.17c.54,.03,1.08-.02,1.59-.16,0,0-.18,.15-.13,.15,.6-.02,1.19-.1,1.76-.26,0,0-.18,.2-.12,.19s.56,.08,1.3-.28l-.11,.19s1.23-.12,1.62-.38l-.16,.26s1.47-.22,2.01-.52l-.17,.25s1.49-.23,2.19-.63l-.25,.27c.61-.12,1.2-.32,1.73-.61l-.1,.25s1.18-.21,1.73-.63l-.07,.21s1.27-.28,1.73-.75l-.07,.25s1.05-.27,1.65-.74l-.07,.22s1.16-.4,1.64-.85l-.14,.3s1.19-.39,1.66-.83c0,0-.17,.24-.04,.18s1.24-.4,1.51-.88c0,0-.07,.26-.04,.24s.9-.38,1.18-.74v.19s.74-.36,1.12-.79l-.03,.24s.88-.52,1.13-.8l-.03,.21,1.01-.58,3.76-.75h-.12l-.1-.04Z" fill="#010101"/><path id="_Path_3" d="M49.95,63.05s-.03-.09-.05-.14v.04l.05,.1Z" fill="#010101"/><path id="_Path_4" d="M49.88,62.93v-.05c-.01-.07-.03-.13-.06-.2l.02,.19-2.75-4.18-.3-1.58-.25,.24c.11-.52-.13-1.9-.13-1.9l-.29,.27c.18-.8-.14-1.9-.14-1.9l-.24,.2c.18-.63-.24-1.85-.26-1.89s-.27,.28-.27,.28c.36-.73-.35-2.17-.42-2.36s-.2,.21-.2,.21c.08-.9-.64-2.46-.64-2.46l-.25,.43c.09-.92-.6-2.46-.6-2.46l-.22,.29c0-1.05-.75-2.36-.75-2.36l-.27,.31c.12-.92-.84-2.45-.84-2.45l-.19,.27c-.01-.96-.98-2.34-.98-2.34l-.23,.34c-.19-.82-.53-1.6-1.01-2.32l-.1,.51c-.21-1.08-1.47-2.79-1.47-2.79l-.14,.4c-.18-.83-1.42-2.5-1.42-2.5l-.17,.41c-.07-.65-1.2-1.98-1.2-1.98l-.14,.29c-.31-1.07-.94-1.5-.99-1.56s-.13,.31-.13,.31c-.51-1.02-1.46-1.97-1.5-2.01s-.05,.27-.05,.27c-.36-.65-.85-1.24-1.44-1.74l-.06,.31c-.43-.82-1.5-1.75-1.5-1.75l-.05,.36c-.38-.93-1.42-1.65-1.49-1.7s-.05,.27-.05,.27c-.57-.9-1.56-1.59-1.56-1.59v.33c-.38-.51-.83-.98-1.35-1.38v.28c-.44-.55-.97-1.04-1.58-1.46l-.02,.29c-.25-.41-.61-.77-1.04-1.05l-.08,.21c-.38-.46-.84-.86-1.37-1.2l-.04,.22c-.32-.37-.7-.71-1.13-.99l-.03,.24c-.39-.41-.84-.78-1.34-1.1l-.08,.24c-.69-.86-1.29-1.06-1.29-1.06l-.08,.26-.92-.82,.47,1.05-.32-.06s-.05,.53,.56,1.42l-.29-.05c.12,.51,.31,1.01,.58,1.48l-.27-.09c.12,.45,.31,.88,.56,1.28l-.26-.07c.13,.54,.37,1.07,.69,1.55l-.27-.04c.11,.45,.34,.88,.67,1.24l-.33-.13c.18,.64,.47,1.26,.87,1.82l-.31-.13c.21,.57,.51,1.11,.89,1.61l-.36-.14c.21,.67,.56,1.3,1.02,1.86,0,0-.34-.16-.31-.09s.34,1.17,1.17,1.87l-.42-.13s.53,1.21,1.22,1.9l-.36-.09c.28,.68,.69,1.3,1.23,1.85,0,0-.35-.14-.32-.09s.63,1.18,1.5,2.01c0,0-.43-.11-.39-.04s.22,.72,1.24,1.43l-.38-.03s.94,1.44,1.61,1.78l-.53-.06s1.26,1.67,2.08,2.17l-.5-.07s1.28,1.7,2.35,2.34l-.6-.16c.57,.69,1.27,1.3,2.06,1.8h-.47s1.06,1.35,2.09,1.79l-.38,.02s1.23,1.4,2.28,1.72l-.46,.06s1.09,1.14,2.22,1.62l-.41,.03s1.36,1.2,2.4,1.55h-.58s1.37,1.23,2.38,1.57c0,0-.49-.08-.32,.05s1.41,1.31,2.37,1.37c0,0-.47,.05-.42,.08s1.18,.9,1.93,1.04l-.33,.09s1.04,.74,1.99,.96l-.42,.09s1.39,.8,2,.95l-.37,.08,1.57,.93,3.35,3.97,.12,.06,.08,.07s-.02-.05-.03-.08l-.08-.11Z" fill="#010101"/><path id="_Path_5" d="M49.88,62.93v-.05c-.01-.07-.03-.13-.06-.2l.02,.19-2.75-4.18-.3-1.58-.25,.24c.11-.52-.13-1.9-.13-1.9l-.29,.27c.18-.8-.14-1.9-.14-1.9l-.24,.2c.18-.63-.24-1.85-.26-1.89s-.27,.28-.27,.28c.36-.73-.35-2.17-.42-2.36s-.2,.21-.2,.21c.08-.9-.64-2.46-.64-2.46l-.25,.43c.09-.92-.6-2.46-.6-2.46l-.22,.29c0-1.05-.75-2.36-.75-2.36l-.27,.31c.12-.92-.84-2.45-.84-2.45l-.19,.27c-.01-.96-.98-2.34-.98-2.34l-.23,.34c-.19-.82-.53-1.6-1.01-2.32l-.1,.51c-.21-1.08-1.47-2.79-1.47-2.79l-.14,.4c-.18-.83-1.42-2.5-1.42-2.5l-.17,.41c-.07-.65-1.2-1.98-1.2-1.98l-.14,.29c-.31-1.07-.94-1.5-.99-1.56s-.13,.31-.13,.31c-.51-1.02-1.46-1.97-1.5-2.01s-.05,.27-.05,.27c-.36-.65-.85-1.24-1.44-1.74l-.06,.31c-.43-.82-1.5-1.75-1.5-1.75l-.05,.36c-.38-.93-1.42-1.65-1.49-1.7s-.05,.27-.05,.27c-.57-.9-1.56-1.59-1.56-1.59v.33c-.38-.51-.83-.98-1.35-1.38v.28c-.44-.55-.97-1.04-1.58-1.46l-.02,.29c-.25-.41-.61-.77-1.04-1.05l-.08,.21c-.38-.46-.84-.86-1.37-1.2l-.04,.22c-.32-.37-.7-.71-1.13-.99l-.03,.24c-.39-.41-.84-.78-1.34-1.1l-.08,.24c-.69-.86-1.29-1.06-1.29-1.06l-.08,.26-.92-.82,.47,1.05-.32-.06s-.05,.53,.56,1.42l-.29-.05c.12,.51,.31,1.01,.58,1.48l-.27-.09c.12,.45,.31,.88,.56,1.28l-.26-.07c.13,.54,.37,1.07,.69,1.55l-.27-.04c.11,.45,.34,.88,.67,1.24l-.33-.13c.18,.64,.47,1.26,.87,1.82l-.31-.13c.21,.57,.51,1.11,.89,1.61l-.36-.14c.21,.67,.56,1.3,1.02,1.86,0,0-.34-.16-.31-.09s.34,1.17,1.17,1.87l-.42-.13s.53,1.21,1.22,1.9l-.36-.09c.28,.68,.69,1.3,1.23,1.85,0,0-.35-.14-.32-.09s.63,1.18,1.5,2.01c0,0-.43-.11-.39-.04s.22,.72,1.24,1.43l-.38-.03s.94,1.44,1.61,1.78l-.53-.06s1.26,1.67,2.08,2.17l-.5-.07s1.28,1.7,2.35,2.34l-.6-.16c.57,.69,1.27,1.3,2.06,1.8h-.47s1.06,1.35,2.09,1.79l-.38,.02s1.23,1.4,2.28,1.72l-.46,.06s1.09,1.14,2.22,1.62l-.41,.03s1.36,1.2,2.4,1.55h-.58s1.37,1.23,2.38,1.57c0,0-.49-.08-.32,.05s1.41,1.31,2.37,1.37c0,0-.47,.05-.42,.08s1.18,.9,1.93,1.04l-.33,.09s1.04,.74,1.99,.96l-.42,.09s1.39,.8,2,.95l-.37,.08,1.57,.93,3.35,3.97,.12,.06,.08,.07s-.02-.05-.03-.08l-.08-.11Z" fill="#010101"/><path id="_Path_6" d="M48.91,63.07l-4.17-1.81-1.06-.98-.04,.27c-.21-.41-1.12-1.28-1.12-1.28l-.04,.31c-.31-.64-1.13-1.28-1.13-1.28l-.05,.25c-.22-.52-1.17-1.2-1.21-1.22s-.03,.31-.03,.31c-.16-.67-1.42-1.38-1.56-1.49s-.02,.23-.02,.23c-.43-.67-1.77-1.46-1.77-1.46l.07,.41c-.45-.69-1.74-1.48-1.74-1.48v.29c-.56-.74-1.77-1.35-1.77-1.35v.33c-.43-.7-1.9-1.38-1.9-1.38l.02,.27c-.53-.67-1.93-1.23-1.93-1.23l.03,.34c-.56-.49-1.22-.9-1.93-1.21l.21,.41c-.72-.67-2.5-1.34-2.5-1.34l.12,.35c-.58-.51-2.31-1.17-2.31-1.17l.11,.36c-.4-.43-1.88-.89-1.88-.89l.07,.26c-.79-.63-1.44-.66-1.51-.68s.08,.27,.08,.27c-.65-.34-1.36-.6-2.09-.78-.05-.01,.12,.21,.12,.21-.59-.31-1.23-.51-1.91-.61l.13,.24c-.72-.39-1.95-.6-1.95-.6l.17,.28c-.76-.49-1.85-.56-1.92-.57s.11,.21,.11,.21c-.6-.25-1.24-.41-1.91-.46l.17,.23c-.52-.2-1.08-.34-1.65-.41l.16,.2c-.59-.2-1.22-.32-1.85-.36l.14,.21c-.39-.18-.82-.28-1.27-.3l.07,.18c-.5-.16-1.02-.25-1.55-.27l.1,.18c-.42-.13-.86-.2-1.3-.22l.11,.18c-.48-.13-.98-.2-1.49-.21l.07,.2c-.93-.31-1.43-.2-1.43-.2l.09,.22-1.05-.18,.88,.54-.24,.1s.25,.4,1.16,.77l-.22,.09c.35,.31,.75,.57,1.19,.79l-.23,.05c.32,.26,.68,.49,1.07,.66l-.21,.06c.38,.32,.82,.59,1.3,.8l-.2,.08c.32,.27,.7,.47,1.12,.6l-.29,.05c.47,.37,1,.68,1.57,.92l-.27,.04c.45,.31,.94,.57,1.47,.76l-.31,.05c.5,.38,1.07,.68,1.7,.88,0,0-.32,.03-.25,.07,.06,.04,.87,.68,1.8,.82l-.35,.09s1.01,.63,1.84,.82l-.29,.09c.55,.36,1.17,.62,1.82,.78,0,0-.3,.05-.26,.07,.65,.34,1.36,.61,2.1,.78,0,0-.35,.1-.29,.13s.54,.42,1.61,.49l-.27,.14s1.41,.62,2.04,.57l-.38,.18s1.75,.64,2.57,.65l-.38,.16s1.78,.66,2.84,.65l-.49,.14c.75,.24,1.54,.37,2.35,.39l-.3,.21s1.43,.49,2.36,.37l-.23,.18s1.58,.46,2.46,.25l-.27,.23s1.34,.34,2.36,.2l-.26,.19s1.56,.27,2.44,.08l-.39,.24s1.59,.29,2.44,.11c0,0-.37,.15-.18,.17s1.65,.32,2.32-.04c0,0-.29,.23-.24,.23s1.27,.14,1.85-.08l-.17,.2s1.1,.08,1.85-.17l-.23,.24s1.36-.03,1.85-.18l-.2,.21h1.55l4.62,1.44-.12-.08-.08-.08Z" fill="#010101"/><path id="_Path_7" d="M48.76,63.58l-3.64,.35-1.18-.26,.11,.19c-.34-.19-1.37-.43-1.37-.43l.12,.22c-.52-.31-1.37-.42-1.37-.42l.09,.18c-.4-.26-1.36-.36-1.4-.36s.13,.22,.13,.22c-.43-.38-1.61-.38-1.76-.4s.1,.16,.1,.16c-.62-.28-1.88-.31-1.88-.31l.25,.24c-.63-.29-1.88-.33-1.88-.33l.15,.19c-.74-.27-1.84-.23-1.84-.23l.16,.22c-.62-.3-1.92-.2-1.92-.2l.14,.17c-.68-.24-1.88-.1-1.88-.1l.19,.21c-.61-.11-1.25-.14-1.87-.08l.34,.19c-.81-.17-2.31,.04-2.31,.04l.25,.18c-.63-.13-2.1,.09-2.1,.09l.25,.2c-.47-.13-1.67,.11-1.67,.11l.17,.15c-.83-.12-1.27,.1-1.33,.11s.19,.15,.19,.15c-.6,.02-1.19,.1-1.76,.26-.04,.01,.18,.1,.18,.1-.54,.02-1.07,.12-1.56,.3l.2,.11c-.67,.01-1.58,.33-1.58,.33l.25,.13c-.74-.04-1.49,.32-1.54,.34s.18,.1,.18,.1c-.52,.06-1.02,.19-1.48,.4l.23,.09c-.44,.06-.87,.17-1.28,.34l.2,.07c-.49,.09-.96,.24-1.39,.45l.2,.09c-.35,.02-.68,.12-.98,.27l.13,.1c-.41,.08-.8,.22-1.16,.4l.14,.08c-.34,.07-.66,.18-.96,.33l.16,.08c-.38,.1-.74,.23-1.08,.41l.14,.11c-.76,.14-1.04,.4-1.04,.4l.16,.11-.79,.27,.85,.03-.11,.15s.36,.17,1.13,.08l-.09,.15c.39,.07,.78,.1,1.18,.08l-.13,.13c.34,.05,.69,.07,1.03,.04l-.11,.12c.41,.07,.83,.09,1.25,.04l-.09,.13c.34,.06,.69,.05,1.03-.03l-.16,.14c.49,.07,.99,.08,1.48,.02l-.16,.13c.45,.04,.9,.03,1.34-.05l-.18,.15c.52,.06,1.04,.05,1.55-.05,0,0-.19,.14-.13,.14s.9,.13,1.59-.13l-.19,.19s.98,.04,1.62-.14l-.14,.17c.54,.03,1.08-.02,1.59-.16,0,0-.18,.15-.13,.15,.6-.02,1.19-.1,1.76-.26,0,0-.18,.2-.12,.19s.56,.08,1.3-.28l-.11,.19s1.23-.12,1.62-.38l-.16,.26s1.47-.22,2.01-.52l-.17,.25s1.49-.23,2.19-.63l-.25,.27c.61-.12,1.2-.32,1.73-.61l-.1,.25s1.18-.21,1.73-.63l-.07,.21s1.27-.28,1.73-.75l-.07,.25s1.05-.27,1.65-.74l-.07,.22s1.16-.4,1.64-.85l-.14,.3s1.19-.39,1.66-.83c0,0-.17,.24-.04,.18s1.24-.4,1.51-.88c0,0-.07,.26-.04,.24s.9-.38,1.18-.74v.19s.74-.36,1.12-.79l-.03,.24s.88-.52,1.13-.8l-.03,.21,1.01-.58,3.76-.75h-.12l-.1-.04Z" fill="#010101"/><path id="_Path_8" d="M49.88,62.93v-.05c-.01-.07-.03-.13-.06-.2l.02,.19-2.75-4.18-.3-1.58-.25,.24c.11-.52-.13-1.9-.13-1.9l-.29,.27c.18-.8-.14-1.9-.14-1.9l-.24,.2c.18-.63-.24-1.85-.26-1.89s-.27,.28-.27,.28c.36-.73-.35-2.17-.42-2.36s-.2,.21-.2,.21c.08-.9-.64-2.46-.64-2.46l-.25,.43c.09-.92-.6-2.46-.6-2.46l-.22,.29c0-1.05-.75-2.36-.75-2.36l-.27,.31c.12-.92-.84-2.45-.84-2.45l-.19,.27c-.01-.96-.98-2.34-.98-2.34l-.23,.34c-.19-.82-.53-1.6-1.01-2.32l-.1,.51c-.21-1.08-1.47-2.79-1.47-2.79l-.14,.4c-.18-.83-1.42-2.5-1.42-2.5l-.17,.41c-.07-.65-1.2-1.98-1.2-1.98l-.14,.29c-.31-1.07-.94-1.5-.99-1.56s-.13,.31-.13,.31c-.51-1.02-1.46-1.97-1.5-2.01s-.05,.27-.05,.27c-.36-.65-.85-1.24-1.44-1.74l-.06,.31c-.43-.82-1.5-1.75-1.5-1.75l-.05,.36c-.38-.93-1.42-1.65-1.49-1.7s-.05,.27-.05,.27c-.57-.9-1.56-1.59-1.56-1.59v.33c-.38-.51-.83-.98-1.35-1.38v.28c-.44-.55-.97-1.04-1.58-1.46l-.02,.29c-.25-.41-.61-.77-1.04-1.05l-.08,.21c-.38-.46-.84-.86-1.37-1.2l-.04,.22c-.32-.37-.7-.71-1.13-.99l-.03,.24c-.39-.41-.84-.78-1.34-1.1l-.08,.24c-.69-.86-1.29-1.06-1.29-1.06l-.08,.26-.92-.82,.47,1.05-.32-.06s-.05,.53,.56,1.42l-.29-.05c.12,.51,.31,1.01,.58,1.48l-.27-.09c.12,.45,.31,.88,.56,1.28l-.26-.07c.13,.54,.37,1.07,.69,1.55l-.27-.04c.11,.45,.34,.88,.67,1.24l-.33-.13c.18,.64,.47,1.26,.87,1.82l-.31-.13c.21,.57,.51,1.11,.89,1.61l-.36-.14c.21,.67,.56,1.3,1.02,1.86,0,0-.34-.16-.31-.09s.34,1.17,1.17,1.87l-.42-.13s.53,1.21,1.22,1.9l-.36-.09c.28,.68,.69,1.3,1.23,1.85,0,0-.35-.14-.32-.09s.63,1.18,1.5,2.01c0,0-.43-.11-.39-.04s.22,.72,1.24,1.43l-.38-.03s.94,1.44,1.61,1.78l-.53-.06s1.26,1.67,2.08,2.17l-.5-.07s1.28,1.7,2.35,2.34l-.6-.16c.57,.69,1.27,1.3,2.06,1.8h-.47s1.06,1.35,2.09,1.79l-.38,.02s1.23,1.4,2.28,1.72l-.46,.06s1.09,1.14,2.22,1.62l-.41,.03s1.36,1.2,2.4,1.55h-.58s1.37,1.23,2.38,1.57c0,0-.49-.08-.32,.05s1.41,1.31,2.37,1.37c0,0-.47,.05-.42,.08s1.18,.9,1.93,1.04l-.33,.09s1.04,.74,1.99,.96l-.42,.09s1.39,.8,2,.95l-.37,.08,1.57,.93,3.35,3.97,.12,.06,.08,.07s-.02-.05-.03-.08l-.08-.11Z" fill="#010101"/><path id="_Path_9" d="M51.51,63.07l4.17-1.81,1.06-.98,.04,.27c.21-.41,1.12-1.28,1.12-1.28l.04,.31c.31-.64,1.13-1.28,1.13-1.28l.05,.25c.22-.52,1.17-1.2,1.2-1.22s.03,.31,.03,.31c.16-.67,1.42-1.38,1.56-1.49s.02,.23,.02,.23c.43-.67,1.77-1.46,1.77-1.46l-.07,.41c.44-.69,1.74-1.48,1.74-1.48v.29c.56-.74,1.77-1.35,1.77-1.35v.33c.43-.7,1.9-1.38,1.9-1.38l-.02,.27c.53-.67,1.93-1.23,1.93-1.23l-.04,.34c.56-.49,1.22-.9,1.93-1.21l-.21,.41c.72-.67,2.5-1.34,2.5-1.34l-.12,.35c.58-.51,2.31-1.17,2.31-1.17l-.11,.36c.4-.43,1.88-.89,1.88-.89l-.07,.26c.79-.63,1.44-.66,1.51-.68s-.08,.27-.08,.27c.65-.34,1.36-.6,2.09-.78,.05-.01-.11,.21-.11,.21,.59-.31,1.23-.51,1.91-.61l-.12,.25c.72-.39,1.95-.6,1.95-.6l-.17,.28c.76-.49,1.84-.56,1.92-.57s-.12,.21-.12,.21c.6-.25,1.24-.41,1.91-.46l-.17,.23c.52-.2,1.08-.34,1.65-.41l-.16,.2c.59-.2,1.22-.32,1.85-.36l-.14,.21c.39-.18,.82-.28,1.27-.3l-.07,.18c.5-.16,1.02-.25,1.55-.27l-.1,.18c.42-.13,.86-.2,1.3-.22l-.11,.18c.48-.13,.98-.2,1.49-.21l-.07,.2c.93-.31,1.43-.2,1.43-.2l-.09,.22,1.06-.19-.88,.54,.24,.1s-.25,.4-1.16,.77l.22,.09c-.36,.31-.76,.58-1.19,.79l.23,.05c-.32,.26-.68,.49-1.07,.66l.21,.06c-.38,.32-.82,.59-1.3,.8l.2,.08c-.32,.27-.7,.47-1.12,.6l.28,.05c-.47,.37-1,.68-1.57,.92l.27,.04c-.44,.31-.94,.57-1.47,.76l.31,.05c-.5,.38-1.08,.68-1.7,.88,0,0,.32,.03,.25,.07s-.87,.68-1.8,.82l.35,.09s-1.01,.63-1.84,.82l.29,.09c-.55,.36-1.17,.62-1.82,.78,0,0,.3,.05,.26,.07-.65,.34-1.35,.61-2.09,.78,0,0,.35,.1,.28,.13s-.54,.42-1.61,.49l.27,.14s-1.41,.62-2.04,.57l.38,.18s-1.75,.64-2.57,.65l.38,.16s-1.78,.66-2.84,.65l.49,.14c-.75,.24-1.54,.37-2.34,.39l.3,.21s-1.43,.49-2.36,.37l.24,.18s-1.58,.46-2.46,.25l.27,.23s-1.34,.34-2.36,.2l.26,.19s-1.56,.27-2.44,.08l.39,.24s-1.59,.29-2.44,.11c0,0,.37,.15,.18,.17s-1.65,.32-2.32-.04c0,0,.29,.23,.24,.23s-1.27,.14-1.86-.08l.17,.2s-1.1,.08-1.85-.17l.23,.24s-1.36-.03-1.85-.18l.2,.21h-1.55l-4.62,1.44,.12-.08,.08-.08Z" fill="#010101"/><path id="_Path_10" d="M51.65,63.58l3.64,.35,1.18-.26-.11,.19c.34-.19,1.37-.43,1.37-.43l-.12,.22c.52-.31,1.37-.42,1.37-.42l-.09,.18c.4-.26,1.36-.36,1.4-.36s-.13,.22-.13,.22c.43-.38,1.61-.38,1.76-.4s-.1,.16-.1,.16c.61-.28,1.89-.31,1.89-.31l-.25,.24c.63-.29,1.88-.33,1.88-.33l-.15,.19c.74-.27,1.84-.23,1.84-.23l-.16,.22c.62-.3,1.92-.2,1.92-.2l-.16,.17c.68-.24,1.88-.1,1.88-.1l-.19,.21c.61-.11,1.25-.14,1.87-.08l-.34,.19c.81-.17,2.3,.04,2.3,.04l-.25,.18c.63-.13,2.1,.09,2.1,.09l-.25,.2c.47-.13,1.67,.11,1.67,.11l-.17,.15c.83-.12,1.27,.1,1.33,.11s-.19,.15-.19,.15c.6,.02,1.19,.1,1.76,.26,.04,.01-.18,.1-.18,.1,.54,.02,1.07,.12,1.56,.3l-.2,.11c.67,.01,1.58,.33,1.58,.33l-.25,.13c.74-.04,1.49,.32,1.55,.34s-.18,.1-.18,.1c.52,.06,1.02,.19,1.48,.4l-.23,.09c.44,.06,.88,.17,1.28,.34l-.2,.07c.49,.09,.96,.24,1.39,.45l-.2,.09c.35,.02,.68,.12,.98,.27l-.13,.1c.41,.08,.8,.22,1.16,.4l-.14,.08c.34,.07,.66,.18,.96,.33l-.16,.08c.38,.1,.74,.23,1.08,.41l-.14,.11c.76,.14,1.04,.4,1.04,.4l-.16,.11,.79,.27-.85,.03,.11,.15s-.36,.17-1.13,.08l.1,.14c-.39,.07-.78,.1-1.18,.08l.12,.13c-.34,.05-.69,.07-1.03,.04l.11,.12c-.41,.07-.83,.09-1.25,.04l.09,.13c-.34,.06-.69,.05-1.03-.03l.16,.14c-.49,.07-.99,.08-1.49,.02l.16,.13c-.45,.04-.9,.03-1.34-.05l.18,.15c-.52,.06-1.04,.05-1.55-.05,0,0,.19,.14,.13,.14s-.9,.13-1.59-.13l.18,.19s-.98,.04-1.62-.14l.14,.17c-.54,.03-1.08-.02-1.59-.16,0,0,.17,.15,.13,.15-.6-.02-1.19-.1-1.76-.26,0,0,.18,.2,.12,.19s-.56,.08-1.3-.28l.11,.19s-1.23-.12-1.62-.38l.16,.26s-1.46-.22-2.01-.52l.17,.25s-1.49-.23-2.19-.63l.25,.27c-.61-.12-1.2-.32-1.73-.61l.1,.25s-1.18-.21-1.73-.63l.07,.21s-1.27-.28-1.73-.75l.06,.25s-1.05-.27-1.65-.74l.07,.22s-1.16-.4-1.64-.85l.14,.3s-1.19-.39-1.66-.83c0,0,.17,.24,.04,.18s-1.24-.4-1.51-.88c0,0,.07,.26,.04,.24s-.9-.38-1.18-.74v.19s-.74-.36-1.12-.79l.03,.24s-.88-.52-1.13-.8l.03,.21-1.01-.58-3.76-.75h.11l.09-.04Z" fill="#010101"/><path id="_Path_11" d="M50.53,62.93v-.05l.06-.2-.02,.19,2.75-4.18,.3-1.58,.25,.24c-.11-.52,.13-1.9,.13-1.9l.29,.27c-.18-.8,.14-1.9,.14-1.9l.24,.2c-.19-.63,.24-1.85,.26-1.89s.27,.28,.27,.28c-.36-.73,.35-2.17,.42-2.36s.2,.21,.2,.21c-.08-.9,.64-2.46,.64-2.46l.25,.43c-.09-.92,.6-2.46,.6-2.46l.22,.29c0-1.05,.75-2.36,.75-2.36l.27,.31c-.12-.92,.84-2.45,.84-2.45l.19,.27c.01-.96,.98-2.34,.98-2.34l.23,.34c.19-.82,.53-1.6,1.01-2.32l.1,.51c.21-1.08,1.47-2.79,1.47-2.79l.14,.4c.18-.83,1.42-2.5,1.42-2.5l.17,.41c.07-.65,1.2-1.98,1.2-1.98l.14,.29c.31-1.07,.94-1.5,.99-1.56s.13,.31,.13,.31c.5-1.02,1.46-1.97,1.5-2.01s.05,.27,.05,.27c.36-.65,.85-1.24,1.44-1.74l.06,.31c.43-.82,1.51-1.75,1.51-1.75l.05,.36c.38-.93,1.42-1.65,1.49-1.7s.05,.27,.05,.27c.56-.9,1.56-1.59,1.56-1.59v.33c.38-.51,.83-.98,1.35-1.38v.28c.44-.55,.97-1.04,1.58-1.46l.02,.29c.25-.41,.61-.77,1.04-1.05l.07,.21c.38-.46,.84-.86,1.37-1.2l.04,.22c.32-.37,.71-.71,1.13-.99l.03,.24c.39-.41,.84-.78,1.34-1.1l.09,.24c.69-.86,1.29-1.06,1.29-1.06l.08,.26,.92-.82-.47,1.05,.32-.06s.06,.53-.56,1.42l.29-.05c-.12,.51-.32,1.01-.59,1.48l.27-.09c-.12,.45-.31,.88-.56,1.28l.26-.07c-.14,.54-.37,1.07-.69,1.55l.27-.04c-.11,.45-.34,.88-.67,1.24l.33-.13c-.18,.64-.47,1.26-.87,1.82l.3-.13c-.21,.57-.51,1.11-.89,1.61l.36-.14c-.21,.67-.55,1.3-1.01,1.86,0,0,.34-.16,.31-.09s-.34,1.17-1.17,1.87l.42-.13s-.53,1.21-1.22,1.9l.36-.09c-.28,.68-.69,1.3-1.23,1.85,0,0,.35-.14,.32-.09s-.63,1.18-1.5,2.01c0,0,.43-.11,.39-.04s-.22,.72-1.24,1.43l.38-.03s-.94,1.44-1.61,1.78l.53-.06s-1.26,1.67-2.08,2.17l.51-.07s-1.28,1.7-2.36,2.34l.6-.16c-.57,.69-1.27,1.3-2.06,1.8h.47s-1.06,1.35-2.09,1.79l.38,.02s-1.23,1.4-2.28,1.72l.46,.06s-1.09,1.14-2.22,1.62l.41,.03s-1.35,1.2-2.4,1.55h.58s-1.37,1.23-2.38,1.57c0,0,.49-.08,.32,.05s-1.41,1.31-2.37,1.37c0,0,.47,.05,.42,.08s-1.18,.9-1.93,1.04l.33,.09s-1.04,.74-1.99,.96l.42,.09s-1.39,.8-2,.95l.37,.08-1.57,.93-3.35,3.97-.12,.06-.08,.07,.03-.08,.07-.11Z" fill="#010101"/><path id="_Path_12" d="M50.14,62.67l.05-.04c.02-.08,.05-.15,.07-.23l-.11,.19,.34-5.39,.83-1.64-.4,.09c.46-.43,1.21-1.86,1.21-1.86l-.46,.1c.73-.65,1.2-1.86,1.2-1.86l-.37,.06c.61-.49,1.06-1.87,1.08-1.92s-.45,.12-.45,.12c.85-.5,1.19-2.23,1.26-2.44s-.34,.1-.34,.1c.71-.8,1.12-2.66,1.12-2.66l-.54,.28c.73-.82,1.16-2.64,1.16-2.64l-.41,.16c.73-.99,.95-2.63,.95-2.63l-.47,.15c.76-.8,.93-2.75,.93-2.75l-.37,.16c.66-.91,.71-2.72,.71-2.72l-.45,.2c.39-.87,.62-1.79,.67-2.72l-.46,.43c.56-1.13,.56-3.4,.56-3.4l-.42,.3c.41-.88,.42-3.11,.42-3.11l-.45,.3c.39-.64,.26-2.5,.26-2.5l-.34,.2c.46-1.17,.16-1.91,.15-1.99s-.34,.22-.34,.22c.24-1.22,0-2.63,0-2.68s-.24,.23-.24,.23c.12-.8,.07-1.61-.14-2.4l-.27,.26c.17-.99-.19-2.44-.19-2.44l-.31,.32c.29-1.07-.19-2.3-.21-2.39s-.23,.23-.23,.23c.1-1.14-.36-2.32-.36-2.32l-.23,.3c.01-.68-.09-1.36-.3-2.01l-.2,.27c0-1.08-.47-2.21-.47-2.21l-.22,.27c.05-.52-.04-1.05-.25-1.54l-.22,.16c-.04-.63-.19-1.26-.45-1.85l-.19,.19c-.05-.52-.17-1.04-.37-1.53l-.19,.21c-.08-.59-.24-1.18-.49-1.74l-.25,.18c-.05-1.17-.48-1.67-.48-1.67l-.26,.19-.3-1.25-.29,1.23-.26-.22s-.42,.47-.47,1.64l-.25-.2c-.25,.55-.41,1.12-.48,1.7l-.2-.23c-.2,.48-.32,.99-.36,1.5l-.2-.21c-.25,.58-.4,1.2-.43,1.82l-.22-.18c-.21,.49-.3,1.01-.25,1.53l-.22-.29c-.28,.7-.43,1.43-.46,2.17l-.2-.28c-.21,.65-.3,1.32-.29,1.99l-.24-.32c-.27,.74-.39,1.52-.35,2.3,0,0-.21-.33-.23-.25s-.5,1.28-.2,2.38l-.3-.34s-.35,1.42-.18,2.43l-.28-.28c-.21,.78-.26,1.59-.14,2.39,0,0-.23-.31-.24-.25s-.24,1.44,0,2.68c0,0-.33-.33-.34-.25s-.3,.8,.16,2l-.34-.23s-.12,1.85,.27,2.52l-.45-.34s.02,2.23,.43,3.14l-.42-.33s.01,2.28,.58,3.44l-.46-.47c.06,.95,.29,1.88,.68,2.77l-.45-.24s.06,1.81,.72,2.78l-.37-.18s.18,1.96,.94,2.82l-.47-.19s.23,1.64,.96,2.69l-.41-.19s.43,1.85,1.17,2.72l-.53-.3s.42,1.89,1.13,2.74c0,0-.41-.34-.34-.13s.41,1.97,1.27,2.54c0,0-.47-.2-.45-.15s.48,1.47,1.09,2l-.37-.09s.47,1.24,1.2,1.95l-.46-.13s.75,1.48,1.22,1.95l-.4-.13,.83,1.7,.37,5.5,.07,.13,.03,.11,.03-.09v-.14Z" fill="#010101"/><polygon id="_Path_13" points="50.02 63.16 49.99 63.11 50 63.15 50.02 63.16" fill="#010101"/><path id="_Path_14" d="M49.91,62.92s.03,.09,.05,.14l.04,.06-.07-.22h0v.02Z" fill="#010101"/><path id="_Path_15" d="M49.98,63.13l.02,.02v-.03l-.05-.06s.02,.05,.02,.07Z" fill="#010101"/><path id="_Path_16" d="M49.98,63.13l.02,.02v-.03l-.05-.06s.02,.05,.02,.07Z" fill="#010101"/><path id="_Path_17" d="M49.85,62.73c.02,.06,.04,.12,.06,.18h0v-.02l-.06-.22v.07Z" fill="#010101"/><path id="_Path_18" d="M49.85,62.73c.02,.06,.04,.12,.06,.18h0v-.02l-.06-.22v.07Z" fill="#010101"/></g></svg>