<?xml version="1.0" encoding="UTF-8"?>
<svg width="20px" height="18px" viewBox="0 0 20 18" version="1.1" xmlns="http://www.w3.org/2000/svg" xmlns:xlink="http://www.w3.org/1999/xlink">
    <!-- Generator: Sketch 55 (78076) - https://sketchapp.com -->
    <title>LinkedIn</title>
    <desc>Created with Sketch.</desc>
    <g id="CrescoLabs.com" stroke="none" stroke-width="1" fill="none" fill-rule="evenodd">
        <g id="Home-A---v2.5---Social-Nav" transform="translate(-1229.000000, -29.000000)" fill="#274B5C" fill-rule="nonzero">
            <g id="proto-nav-bar">
                <g id="Group-3" transform="translate(60.000000, 28.500000)">
                    <g id="Group" transform="translate(1130.000000, 0.500000)">
                        <path d="M58.9322034,18 L54.6742571,18 L54.6742571,11.8430847 C54.6742571,10.2315208 54.0082094,9.13135099 52.5435846,9.13135099 C51.4233111,9.13135099 50.8003075,9.87376946 50.5103274,10.5892722 C50.4015849,10.846091 50.4185762,11.2038424 50.4185762,11.5615938 L50.4185762,18 L46.2002753,18 C46.2002753,18 46.2546466,7.0936251 46.2002753,6.10223809 L50.4185762,6.10223809 L50.4185762,7.96949945 C50.6677777,7.15306322 52.0157308,5.98784766 54.1667923,5.98784766 C56.8355131,5.98784766 58.9322034,7.69922323 58.9322034,11.3844003 L58.9322034,18 L58.9322034,18 Z M41.9343999,4.61403668 L41.907214,4.61403668 C40.5479336,4.61403668 39.6666667,3.70451814 39.6666667,2.55163864 C39.6666667,1.37632925 40.5739863,0.485875706 41.9604526,0.485875706 C43.3457861,0.485875706 44.1976017,1.37408657 44.2247876,2.54827418 C44.2247876,3.70115367 43.3457861,4.61403668 41.9343999,4.61403668 L41.9343999,4.61403668 L41.9343999,4.61403668 Z M40.1526096,6.10223809 L43.9076221,6.10223809 L43.9076221,18 L40.1526096,18 L40.1526096,6.10223809 L40.1526096,6.10223809 Z" id="LinkedIn"></path>
                    </g>
                </g>
            </g>
        </g>
    </g>
</svg>