<?xml version="1.0" encoding="UTF-8"?>
<svg width="22px" height="18px" viewBox="0 0 22 18" version="1.1" xmlns="http://www.w3.org/2000/svg" xmlns:xlink="http://www.w3.org/1999/xlink">
    <!-- Generator: Sketch 55 (78076) - https://sketchapp.com -->
    <title>Twitter</title>
    <desc>Created with Sketch.</desc>
    <g id="CrescoLabs.com" stroke="none" stroke-width="1" fill="none" fill-rule="evenodd">
        <g id="Home-A---v2.5---Social-Nav" transform="translate(-1267.000000, -31.000000)" fill="#274B5C" fill-rule="nonzero">
            <g id="proto-nav-bar">
                <g id="Group-3" transform="translate(60.000000, 28.500000)">
                    <g id="Group" transform="translate(1130.000000, 0.500000)">
                        <path d="M98.6836158,4.55923408 C97.9113782,4.9109085 97.0799276,5.14873105 96.207768,5.2549923 C97.0984317,4.70850609 97.7818495,3.84197114 98.1038208,2.80971931 C97.2699033,3.31572513 96.3483994,3.68384444 95.3639817,3.88118658 C94.579408,3.02224182 93.4580597,2.48587571 92.2170522,2.48587571 C89.8374256,2.48587571 87.9068319,4.46562328 87.9068319,6.90710096 C87.9068319,7.25371511 87.9438401,7.59020873 88.0178565,7.91405233 C84.4342303,7.7293602 81.2576944,5.97099028 79.1297235,3.29295501 C78.7584083,3.9482324 78.5462277,4.70850609 78.5462277,5.51811531 C78.5462277,7.0513127 79.3073631,8.40487822 80.4644854,9.19804212 C79.7588628,9.17653696 79.0927153,8.97539951 78.5104534,8.64649564 L78.5104534,8.70089144 C78.5104534,10.843826 79.9969489,12.6312912 81.9707189,13.0360956 C81.6092721,13.139827 81.2280877,13.1916924 80.8345676,13.1916924 C80.557006,13.1916924 80.2856128,13.1651274 80.0228545,13.1132616 C80.5718093,14.8691016 82.1631615,16.1480311 84.050579,16.1821867 C82.5751856,17.3687699 80.7149076,18.0759132 78.6954941,18.0759132 C78.3476171,18.0759132 78.0034409,18.055673 77.6666667,18.0151926 C79.5750556,19.2675567 81.8424236,20 84.2763286,20 C92.2084168,20 96.5445427,13.2637985 96.5445427,7.42069696 C96.5445427,7.22841465 96.540842,7.03613233 96.5334401,6.84764532 C97.3759933,6.22399319 98.1075215,5.44600922 98.6836158,4.55923408" id="Twitter"></path>
                    </g>
                </g>
            </g>
        </g>
    </g>
</svg>